<svg width="375" height="451" viewBox="0 0 375 451" fill="none" xmlns="http://www.w3.org/2000/svg">
<g clip-path="url(#clip0_66_51)">
<g opacity="0.4">
<path d="M-79.8365 554.359C-99.0154 509.542 -69.655 457.237 -30.2908 436.849C9.07745 416.474 55.2488 418.163 99.2933 414.673C143.338 411.183 190.608 399.666 216.87 361.829C250.443 313.458 238.763 237.782 274.23 191.101C301.87 154.714 350.038 147.732 391.816 155.048C415.437 159.181 438.185 171.523 461.45 177.774C566.967 206.106 607.685 319.389 688.067 312.755C775.107 305.553 805.958 247.357 812.08 211.844C819.922 166.341 822.013 54.076 720.231 8.75399C678.885 -9.65612 637.372 -30.0936 601.917 -60.3539C548.83 -105.654 522.93 -192.408 554.806 -253.847C576.663 -295.947 621.565 -323.029 630.572 -370.997C636.623 -403.224 623.899 -438.275 602.808 -463.222C581.72 -488.154 553.27 -504.154 524.273 -515.234" stroke="url(#paint0_linear_66_51)" stroke-width="1.28449" stroke-miterlimit="10"/>
<path d="M-77.2745 556.077C-95.2496 509.412 -66.7364 455.145 -26.4294 433.381C12.9166 412.13 59.7423 413.491 104.084 410.985C147.909 408.507 194.5 398.927 221.393 363.584C255.729 318.369 247.293 245.692 282.827 199.454C311.179 162.751 357.753 153.161 399.677 157.842C423.766 160.539 447.662 171.38 471.9 177.517C574.682 203.512 615.429 312.7 694.104 306.337C778.714 299.456 810.048 243.712 816.916 208.486C825.623 163.847 827.325 55.7757 730.218 9.85623C690.181 -9.0733 649.68 -30.4755 614.693 -60.6142C563.069 -104.897 537.532 -188.397 566.955 -248.61C587.318 -290.266 630.069 -318.149 639.139 -365.553C645.402 -397.968 633.899 -432.851 614.304 -458.496C594.709 -484.141 567.348 -502.192 538.847 -514.927" stroke="url(#paint1_linear_66_51)" stroke-width="1.28449" stroke-miterlimit="10"/>
<path d="M-74.7083 557.809C-91.4876 509.313 -63.8093 453.081 -22.5677 429.912C16.7521 407.817 64.2196 408.81 108.878 407.311C152.485 405.846 198.408 398.198 225.929 365.336C261.02 323.295 255.742 253.508 291.453 207.813C320.43 170.733 365.534 158.54 407.58 160.637C432.152 161.864 457.171 171.257 482.392 177.262C582.394 201.085 623.198 306.003 700.17 299.925C782.361 293.361 814.151 240.062 821.781 205.134C831.345 161.376 832.663 57.4231 740.25 10.9744C701.517 -8.48819 662.047 -30.8452 627.497 -60.8683C577.345 -104.15 552.167 -184.412 579.136 -243.353C598.002 -284.58 638.606 -313.249 647.755 -360.08C654.227 -392.695 643.939 -427.425 625.858 -453.759C607.403 -480.618 581.479 -500.232 553.478 -514.607" stroke="url(#paint2_linear_66_51)" stroke-width="1.28449" stroke-miterlimit="10"/>
<path d="M-72.1424 559.54C-87.7301 509.201 -60.8867 451.047 -18.7065 426.444C20.6034 403.513 68.7048 404.111 113.668 403.623C157.035 403.147 202.303 397.473 230.451 367.091C266.307 328.206 264.24 261.399 300.066 216.176C329.719 178.747 373.331 163.883 415.457 163.441C440.534 163.175 466.643 171.145 492.875 177.025C590.056 198.807 630.97 299.32 706.24 293.526C786.012 287.28 818.258 236.426 826.649 201.796C837.039 158.898 837.992 58.9979 750.269 12.0962C712.804 -7.9327 674.453 -31.303 640.301 -61.1227C591.715 -103.538 566.781 -180.449 591.325 -238.114C608.689 -278.925 647.049 -308.395 656.363 -354.634C662.973 -387.458 653.991 -422.048 637.395 -449.032C620.798 -476.016 595.598 -498.268 568.105 -514.301" stroke="url(#paint3_linear_66_51)" stroke-width="1.28449" stroke-miterlimit="10"/>
<path d="M-69.5804 561.258C-83.9765 509.074 -57.9516 449.009 -14.8449 422.975C24.4633 399.236 73.1738 399.402 118.463 399.949C163.752 400.495 206.199 396.747 234.991 368.856C271.597 333.131 272.75 269.285 308.684 224.552C339.011 186.775 381.156 169.188 423.356 166.267C448.945 164.492 476.14 171.07 503.362 176.8C597.695 196.671 638.751 292.663 712.315 287.141C789.664 281.198 822.344 232.811 831.523 198.47C842.74 156.448 843.316 60.5141 760.297 13.2452C724.096 -7.36372 686.836 -31.6635 653.102 -61.3461C606.015 -102.8 581.383 -176.484 603.498 -232.84C619.365 -273.266 655.553 -303.47 664.954 -349.153C671.748 -382.17 664.032 -416.667 648.912 -444.283C633.097 -473.176 609.696 -496.283 582.7 -513.97" stroke="url(#paint4_linear_66_51)" stroke-width="1.28449" stroke-miterlimit="10"/>
<path d="M-67.014 562.99C-80.202 508.971 -55.012 446.986 -10.9832 419.506C28.3276 394.974 77.643 394.693 123.253 396.26C166.162 397.74 210.152 396.078 239.514 370.611C276.954 338.139 281.265 277.185 317.293 232.901C348.312 194.785 388.986 174.416 431.229 169.056C457.348 165.737 485.601 170.961 513.825 176.539C605.281 194.627 646.503 285.957 718.352 280.723C793.283 275.097 826.406 229.159 836.359 195.112C848.389 153.955 848.588 61.8976 770.287 14.361C735.342 -6.85515 699.165 -32.0667 665.878 -61.6064C620.283 -102.081 595.935 -172.592 615.646 -227.602C629.995 -267.668 664.029 -298.596 673.537 -343.699C680.532 -376.899 674.072 -411.331 660.42 -439.562C645.926 -469.517 623.77 -494.335 597.299 -513.671" stroke="url(#paint5_linear_66_51)" stroke-width="1.28449" stroke-miterlimit="10"/>
<path d="M-64.4482 564.722C-76.4447 508.859 -52.0649 444.989 -7.12205 416.038C32.1953 390.725 82.1197 389.967 128.06 392.583C170.732 395.02 214.064 395.363 244.065 372.373C282.261 343.074 289.803 285.078 325.923 241.274C357.62 202.823 396.835 179.623 439.135 171.866C465.779 166.988 495.085 170.891 524.32 176.298C612.886 192.697 654.292 279.283 724.434 274.321C796.934 269.017 830.488 225.532 841.227 191.774C854.057 151.486 853.9 63.1938 780.306 15.4832C746.592 -6.3774 711.527 -32.4501 678.682 -61.8605C634.579 -101.356 610.492 -168.731 627.822 -222.359C640.662 -262.081 672.549 -293.706 682.132 -338.249C689.323 -371.646 684.141 -406.033 671.945 -434.83C658.795 -465.855 637.876 -492.368 611.901 -513.357" stroke="url(#paint6_linear_66_51)" stroke-width="1.28449" stroke-miterlimit="10"/>
<path d="M-61.8825 566.453C-72.6832 508.76 -49.1014 443.003 -3.2568 412.583C36.0672 386.49 86.58 385.231 132.858 388.922C175.287 392.29 217.972 394.679 248.592 374.142C287.559 348.027 298.325 293.006 334.54 249.651C366.928 210.861 404.668 184.775 447.017 174.683C474.186 168.201 504.549 170.841 534.791 176.064C620.443 190.872 662.052 272.604 730.48 267.931C800.561 262.943 834.529 221.901 846.071 188.443C859.689 149.029 859.199 64.4038 790.317 16.6226C757.822 -5.9234 723.88 -32.8162 691.465 -62.0935C648.843 -100.606 625.003 -164.886 639.978 -217.094C651.283 -256.51 681.048 -288.795 690.719 -332.782C698.106 -366.376 694.225 -400.726 683.457 -430.095C671.668 -462.224 651.966 -490.41 626.491 -513.039" stroke="url(#paint7_linear_66_51)" stroke-width="1.28449" stroke-miterlimit="10"/>
<path d="M-59.3202 568.171C-68.9293 508.633 -46.1536 441.006 0.600857 409.101C39.952 382.251 91.045 380.464 137.644 385.22C179.829 389.519 221.864 393.94 253.111 375.884C292.834 352.942 306.848 300.888 343.138 258.004C376.221 218.889 412.473 189.877 454.891 177.472C482.58 169.374 513.997 170.782 545.271 175.813C627.997 189.122 669.821 265.907 736.546 261.518C804.204 256.834 838.579 218.254 850.936 185.091C865.313 146.544 864.531 65.4538 800.333 17.7307C769.048 -5.52796 736.226 -33.2096 704.266 -62.3615C663.127 -99.8768 639.494 -161.109 652.151 -211.865C661.905 -250.983 689.561 -283.933 699.31 -327.346C706.897 -361.123 704.335 -395.472 694.978 -425.378C684.575 -458.619 666.069 -488.456 641.102 -512.743" stroke="url(#paint8_linear_66_51)" stroke-width="1.28449" stroke-miterlimit="10"/>
<path d="M-56.754 569.903C-65.1591 508.516 -43.1813 439.047 4.46665 405.646C43.8326 378.042 95.514 375.71 142.443 381.56C184.38 386.775 225.768 393.242 257.654 377.663C298.133 357.894 315.399 308.822 351.768 266.376C385.559 226.932 420.311 194.953 462.789 180.299C491.003 170.552 523.462 170.777 555.758 175.589C635.555 187.477 677.59 259.255 742.621 255.133C807.86 250.766 842.624 214.637 855.813 181.78C870.945 144.086 869.908 66.4297 810.365 18.8935C780.29 -5.12279 748.605 -33.5387 717.071 -62.5711C677.411 -99.1033 653.952 -157.307 664.328 -206.577C672.519 -245.44 698.094 -279.002 707.922 -321.842C715.718 -355.819 714.478 -390.153 706.516 -420.606C697.522 -454.968 680.171 -486.457 655.717 -512.389" stroke="url(#paint9_linear_66_51)" stroke-width="1.28449" stroke-miterlimit="10"/>
<path d="M-54.1878 571.635C-61.3972 508.417 -40.2092 437.087 8.32819 402.178C47.7295 373.844 99.9747 370.93 147.233 377.872C188.935 384 229.659 392.504 262.177 379.418C303.412 362.823 323.934 316.745 360.369 274.743C394.859 234.988 428.099 200 470.667 183.102C499.389 171.698 532.914 170.777 566.225 175.342C643.076 185.887 685.346 252.562 748.667 248.743C811.487 244.693 846.625 211.005 860.657 178.449C876.532 141.612 875.281 67.2574 820.36 20.0231C791.49 -4.80926 760.93 -33.9107 729.85 -62.8177C691.663 -98.3491 668.337 -153.572 676.481 -201.326C683.076 -239.952 706.606 -274.095 716.493 -316.384C724.489 -350.545 724.616 -384.893 718.012 -415.88C710.453 -451.37 694.249 -484.496 670.291 -512.081" stroke="url(#paint10_linear_66_51)" stroke-width="1.28449" stroke-miterlimit="10"/>
<path d="M-51.6257 573.352C-57.6435 508.291 -37.2328 435.141 12.1856 398.695C51.6182 369.619 104.444 366.131 152.024 374.184C193.482 381.197 233.543 391.782 266.712 381.169C308.686 367.738 332.481 324.665 368.995 283.102C404.197 243.031 435.903 205.011 478.557 185.901C507.78 172.811 542.371 170.789 576.704 175.091C650.601 184.356 693.114 245.864 754.733 242.33C815.122 238.602 850.641 207.337 865.522 175.096C882.135 139.104 880.727 67.9269 830.391 21.1408C802.74 -4.55643 773.284 -34.2771 742.655 -63.0723C705.943 -97.5894 682.696 -149.873 688.658 -196.083C693.611 -234.489 715.139 -269.21 725.101 -310.939C733.305 -345.3 734.803 -379.648 729.549 -411.153C723.45 -447.779 708.364 -482.546 684.918 -511.776" stroke="url(#paint11_linear_66_51)" stroke-width="1.28449" stroke-miterlimit="10"/>
<path d="M-49.0597 575.084C-53.8695 508.188 -34.2525 433.21 16.0512 395.241C55.5233 365.448 108.912 361.333 156.818 370.51C198.044 378.405 237.438 391.057 271.24 382.939C313.964 372.667 341.033 332.599 377.596 291.469C413.51 251.083 443.662 210.008 486.435 188.704C516.141 173.92 551.811 170.838 587.175 174.857C658.122 182.902 700.891 239.33 760.791 235.936C818.77 232.642 854.638 203.692 870.379 171.762C887.702 136.607 886.23 68.474 840.398 22.2669C813.986 -4.36161 785.626 -34.639 755.447 -63.3224C720.199 -96.8213 696.982 -146.196 700.826 -190.822C704.118 -229.031 723.668 -264.292 733.692 -305.457C742.109 -340.006 744.991 -374.358 741.066 -406.404C736.438 -444.17 722.462 -480.561 699.513 -511.444" stroke="url(#paint12_linear_66_51)" stroke-width="1.28449" stroke-miterlimit="10"/>
<path d="M-46.4935 576.816C-50.1116 508.076 -31.2557 431.287 19.9128 391.772C59.4366 361.259 113.377 356.52 161.612 366.836C202.591 375.603 241.334 390.332 275.762 384.694C319.239 377.582 349.584 340.532 386.209 299.831C422.839 259.144 451.413 214.976 494.316 191.521C524.498 175.015 561.251 170.931 597.647 174.623C665.631 181.496 708.656 232.664 766.836 229.545C822.397 226.568 858.617 200.036 875.223 168.431C893.256 134.114 891.802 68.8941 850.397 23.4101C825.256 -4.21979 797.947 -34.9798 768.231 -63.5554C734.442 -96.0498 711.203 -142.514 712.983 -185.557C714.556 -223.581 732.18 -259.385 742.279 -299.99C750.908 -334.726 755.203 -369.076 752.583 -401.655C749.459 -440.541 736.557 -478.589 714.119 -511.117" stroke="url(#paint13_linear_66_51)" stroke-width="1.28449" stroke-miterlimit="10"/>
<path d="M-43.9278 578.548C-46.3502 507.977 -28.2552 429.379 23.7738 388.304C63.3494 357.071 117.845 351.677 166.406 363.161C207.162 372.793 245.225 389.593 280.301 386.459C324.529 382.507 358.151 348.476 394.827 308.208C431.502 267.94 459.152 219.949 502.21 194.334C532.855 176.109 570.703 171.065 608.142 174.382C673.172 180.155 716.44 225.977 772.918 223.143C826.061 220.483 862.617 196.359 880.103 165.089C898.838 131.582 897.509 69.1818 860.433 24.5418C836.615 -4.13625 810.308 -35.3185 781.039 -63.7961C748.705 -95.2546 725.39 -138.85 725.163 -180.3C724.96 -218.151 740.733 -254.476 750.878 -294.527C759.724 -329.436 765.439 -363.802 764.107 -396.924C762.512 -436.938 750.65 -476.618 728.721 -510.804" stroke="url(#paint14_linear_66_51)" stroke-width="1.28449" stroke-miterlimit="10"/>
<path d="M-41.3658 580.265C-42.5966 507.85 -25.2462 427.452 27.6353 384.835C67.2668 352.896 122.326 346.83 171.197 359.473C211.712 369.959 249.117 388.854 284.824 388.215C329.799 387.408 366.702 356.409 403.44 316.57C441.513 275.276 466.87 224.898 510.088 197.137C541.188 177.166 580.147 171.216 618.609 174.135C680.682 178.839 724.184 219.287 778.96 216.738C829.679 214.382 866.564 192.683 884.944 161.744C904.367 129.052 903.289 69.356 870.423 25.6575C848.012 -4.15449 822.609 -35.6829 793.815 -64.0565C762.932 -94.4929 739.48 -135.201 737.312 -175.063C735.267 -212.734 749.254 -249.586 759.449 -289.069C768.52 -324.169 775.651 -358.52 775.616 -392.203C775.57 -433.321 764.741 -474.66 743.308 -510.5" stroke="url(#paint15_linear_66_51)" stroke-width="1.28449" stroke-miterlimit="10"/>
<path d="M-38.7993 581.997C-38.8262 507.733 -22.2285 425.554 31.5095 381.363C71.201 348.731 126.82 341.979 176.004 355.795C216.3 367.114 253.021 388.111 289.376 389.976C335.111 392.312 375.287 364.362 412.066 324.929C450.872 283.343 474.593 229.816 517.991 199.932C549.517 178.21 589.608 171.422 629.1 173.879C688.22 177.573 731.965 212.586 785.039 210.322C833.335 208.269 870.54 188.969 889.821 158.388C909.102 127.807 909.23 69.4351 880.468 26.7715C859.548 -4.24647 834.955 -36.0316 806.632 -64.3148C777.192 -93.7116 753.537 -131.527 749.501 -169.824C745.553 -207.296 757.816 -244.695 768.069 -283.627C777.352 -318.914 785.929 -353.244 787.166 -387.479C788.669 -429.702 778.868 -472.714 757.948 -510.198" stroke="url(#paint16_linear_66_51)" stroke-width="1.28449" stroke-miterlimit="10"/>
<path d="M-36.2331 583.729C-35.0643 507.634 -19.2071 423.668 35.3751 377.908C75.1225 344.57 131.309 337.114 180.798 352.121C220.863 364.276 256.921 387.31 293.903 391.745C340.397 397.133 383.846 372.323 420.684 333.306C460.222 291.428 482.287 234.773 525.872 202.749C557.825 179.275 599.061 171.69 639.576 173.659C695.75 176.37 739.721 205.803 791.101 203.941C836.958 202.092 874.499 185.29 894.682 155.067C915.447 123.971 915.296 69.489 890.479 27.9109C871.206 -4.37729 847.272 -36.3412 819.428 -64.5517C791.432 -92.9088 767.524 -127.815 761.67 -164.563C755.745 -201.813 766.357 -239.782 776.657 -278.16C786.168 -313.624 796.19 -347.933 798.678 -382.744C801.763 -426.052 792.962 -470.743 772.538 -509.881" stroke="url(#paint17_linear_66_51)" stroke-width="1.28449" stroke-miterlimit="10"/>
<path d="M-33.6717 585.447C-31.3113 507.508 -16.1739 421.78 39.232 374.426C79.0516 340.392 135.801 332.218 185.588 348.433C225.441 361.404 260.824 386.568 298.438 393.497C345.683 402.045 392.425 380.262 429.297 341.669C469.571 299.513 489.955 239.693 533.766 205.563C566.145 180.337 608.522 172.031 650.058 173.422C703.304 175.205 747.493 199.12 797.158 197.547C840.597 196.015 878.434 181.574 899.538 151.733C920.642 121.891 921.531 69.52 900.49 29.0506C883.012 -4.55447 859.589 -36.6505 832.211 -64.7844C805.65 -92.0842 781.437 -124.035 773.826 -159.298C765.842 -196.285 774.901 -234.855 785.243 -272.693C794.996 -308.338 806.455 -342.608 810.194 -377.995C814.866 -422.374 807.044 -468.767 787.132 -509.549" stroke="url(#paint18_linear_66_51)" stroke-width="1.28449" stroke-miterlimit="10"/>
<path d="M-31.1056 587.179C-27.5372 507.405 -13.1484 419.908 43.0934 370.957C82.9895 336.24 140.295 327.322 190.378 344.745C230.008 358.535 264.716 385.829 302.957 395.238C350.966 406.942 401.059 388.289 437.906 350.018C478.999 307.677 497.62 244.6 541.64 208.352C574.412 181.355 617.983 172.417 660.533 173.157C710.854 174.025 755.258 192.41 803.22 191.121C844.24 189.906 882.373 177.826 904.398 148.367C926.424 118.907 927.941 69.5547 910.501 30.1451C895.022 -4.81175 871.881 -36.9972 845.007 -65.0661C819.881 -91.3087 795.322 -120.261 785.994 -154.083C775.891 -190.742 783.516 -229.965 793.835 -267.257C803.878 -303.054 816.74 -337.305 821.711 -373.291C827.985 -418.732 821.142 -466.827 801.739 -509.267" stroke="url(#paint19_linear_66_51)" stroke-width="1.28449" stroke-miterlimit="10"/>
<path d="M-28.5393 588.91C-23.7793 507.292 -10.0284 418.126 46.9592 367.502C86.9769 332.163 144.804 322.436 195.177 341.084C234.608 355.686 268.62 385.131 307.488 397.021C356.253 411.899 409.598 396.227 446.512 358.398C488.316 315.742 505.257 249.545 549.522 211.169C582.687 182.401 627.453 172.919 671.005 172.923C718.429 172.928 763.023 185.744 809.279 184.726C847.876 183.815 886.287 174.087 909.255 145.032C931.994 116.244 934.525 69.7144 920.525 31.2804C907.286 -5.02987 884.178 -37.2855 857.82 -65.2933C834.116 -90.4748 809.195 -116.348 798.179 -148.812C785.887 -185.063 792.061 -225.038 802.451 -261.784C812.702 -297.782 827.043 -331.947 833.253 -368.551C841.133 -415.039 835.261 -464.864 816.358 -508.944" stroke="url(#paint20_linear_66_51)" stroke-width="1.28449" stroke-miterlimit="10"/>
<path d="M-25.9731 590.642C-20.0214 507.179 -7.05202 416.18 50.8209 364.033C90.8698 327.951 149.314 317.504 199.972 337.41C239.187 352.813 272.528 384.401 312.028 398.786C361.556 416.819 418.149 404.16 455.142 366.77C497.645 323.803 512.918 254.482 557.416 213.981C590.975 183.442 636.943 173.535 681.492 172.699C726.029 171.867 770.799 179.074 815.345 178.359C851.511 177.769 890.222 170.37 914.12 141.724C937.516 113.686 941.296 70.0536 930.544 32.4468C919.792 -5.16001 896.471 -37.5427 870.613 -65.4992C848.319 -89.6157 823.02 -112.331 810.348 -143.507C795.814 -179.257 800.574 -220.086 811.038 -256.272C821.502 -292.457 837.329 -326.554 844.77 -363.757C854.273 -411.283 849.36 -462.834 830.965 -508.572" stroke="url(#paint21_linear_66_51)" stroke-width="1.28449" stroke-miterlimit="10"/>
</g>
</g>
<defs>
<linearGradient id="paint0_linear_66_51" x1="-322.074" y1="-247.119" x2="826.459" y2="320.708" gradientUnits="userSpaceOnUse">
<stop stop-color="#EF6B2A"/>
<stop offset="1" stop-color="#F1BC62"/>
</linearGradient>
<linearGradient id="paint1_linear_66_51" x1="-318.629" y1="-243.286" x2="822.748" y2="330.771" gradientUnits="userSpaceOnUse">
<stop stop-color="#EF6B2A"/>
<stop offset="1" stop-color="#F1BC62"/>
</linearGradient>
<linearGradient id="paint2_linear_66_51" x1="-315.251" y1="-239.401" x2="825.028" y2="338.804" gradientUnits="userSpaceOnUse">
<stop stop-color="#EF6B2A"/>
<stop offset="1" stop-color="#F1BC62"/>
</linearGradient>
<linearGradient id="paint3_linear_66_51" x1="-311.96" y1="-235.504" x2="827.212" y2="346.9" gradientUnits="userSpaceOnUse">
<stop stop-color="#EF6B2A"/>
<stop offset="1" stop-color="#F1BC62"/>
</linearGradient>
<linearGradient id="paint4_linear_66_51" x1="-308.728" y1="-231.574" x2="829.282" y2="355.089" gradientUnits="userSpaceOnUse">
<stop stop-color="#EF6B2A"/>
<stop offset="1" stop-color="#F1BC62"/>
</linearGradient>
<linearGradient id="paint5_linear_66_51" x1="-305.506" y1="-227.67" x2="831.33" y2="363.204" gradientUnits="userSpaceOnUse">
<stop stop-color="#EF6B2A"/>
<stop offset="1" stop-color="#F1BC62"/>
</linearGradient>
<linearGradient id="paint6_linear_66_51" x1="-302.281" y1="-223.752" x2="833.33" y2="371.359" gradientUnits="userSpaceOnUse">
<stop stop-color="#EF6B2A"/>
<stop offset="1" stop-color="#F1BC62"/>
</linearGradient>
<linearGradient id="paint7_linear_66_51" x1="-299.056" y1="-219.834" x2="835.281" y2="379.495" gradientUnits="userSpaceOnUse">
<stop stop-color="#EF6B2A"/>
<stop offset="1" stop-color="#F1BC62"/>
</linearGradient>
<linearGradient id="paint8_linear_66_51" x1="-295.834" y1="-215.93" x2="837.192" y2="387.642" gradientUnits="userSpaceOnUse">
<stop stop-color="#EF6B2A"/>
<stop offset="1" stop-color="#F1BC62"/>
</linearGradient>
<linearGradient id="paint9_linear_66_51" x1="-292.596" y1="-211.971" x2="839.756" y2="398.287" gradientUnits="userSpaceOnUse">
<stop stop-color="#EF6B2A"/>
<stop offset="1" stop-color="#F1BC62"/>
</linearGradient>
<linearGradient id="paint10_linear_66_51" x1="-289.375" y1="-208.067" x2="842.558" y2="409.844" gradientUnits="userSpaceOnUse">
<stop stop-color="#EF6B2A"/>
<stop offset="1" stop-color="#F1BC62"/>
</linearGradient>
<linearGradient id="paint11_linear_66_51" x1="-286.149" y1="-204.15" x2="845.317" y2="421.761" gradientUnits="userSpaceOnUse">
<stop stop-color="#EF6B2A"/>
<stop offset="1" stop-color="#F1BC62"/>
</linearGradient>
<linearGradient id="paint12_linear_66_51" x1="-282.92" y1="-200.218" x2="848.025" y2="433.935" gradientUnits="userSpaceOnUse">
<stop stop-color="#EF6B2A"/>
<stop offset="1" stop-color="#F1BC62"/>
</linearGradient>
<linearGradient id="paint13_linear_66_51" x1="-279.69" y1="-196.287" x2="850.666" y2="446.332" gradientUnits="userSpaceOnUse">
<stop stop-color="#EF6B2A"/>
<stop offset="1" stop-color="#F1BC62"/>
</linearGradient>
<linearGradient id="paint14_linear_66_51" x1="-276.465" y1="-192.369" x2="853.232" y2="458.895" gradientUnits="userSpaceOnUse">
<stop stop-color="#EF6B2A"/>
<stop offset="1" stop-color="#F1BC62"/>
</linearGradient>
<linearGradient id="paint15_linear_66_51" x1="-273.244" y1="-188.465" x2="855.688" y2="471.567" gradientUnits="userSpaceOnUse">
<stop stop-color="#EF6B2A"/>
<stop offset="1" stop-color="#F1BC62"/>
</linearGradient>
<linearGradient id="paint16_linear_66_51" x1="-270.018" y1="-184.548" x2="858.039" y2="484.373" gradientUnits="userSpaceOnUse">
<stop stop-color="#EF6B2A"/>
<stop offset="1" stop-color="#F1BC62"/>
</linearGradient>
<linearGradient id="paint17_linear_66_51" x1="-266.792" y1="-180.63" x2="860.254" y2="497.209" gradientUnits="userSpaceOnUse">
<stop stop-color="#EF6B2A"/>
<stop offset="1" stop-color="#F1BC62"/>
</linearGradient>
<linearGradient id="paint18_linear_66_51" x1="-263.563" y1="-176.698" x2="862.303" y2="510.088" gradientUnits="userSpaceOnUse">
<stop stop-color="#EF6B2A"/>
<stop offset="1" stop-color="#F1BC62"/>
</linearGradient>
<linearGradient id="paint19_linear_66_51" x1="-260.346" y1="-172.808" x2="864.271" y2="522.937" gradientUnits="userSpaceOnUse">
<stop stop-color="#EF6B2A"/>
<stop offset="1" stop-color="#F1BC62"/>
</linearGradient>
<linearGradient id="paint20_linear_66_51" x1="-257.116" y1="-168.877" x2="866.055" y2="535.824" gradientUnits="userSpaceOnUse">
<stop stop-color="#EF6B2A"/>
<stop offset="1" stop-color="#F1BC62"/>
</linearGradient>
<linearGradient id="paint21_linear_66_51" x1="-253.874" y1="-164.905" x2="867.646" y2="548.701" gradientUnits="userSpaceOnUse">
<stop stop-color="#EF6B2A"/>
<stop offset="1" stop-color="#F1BC62"/>
</linearGradient>
<clipPath id="clip0_66_51">
<rect width="375" height="451" fill="white"/>
</clipPath>
</defs>
</svg>
