<svg width="502" height="347" viewBox="0 0 502 347" fill="none" xmlns="http://www.w3.org/2000/svg">
<g clip-path="url(#clip0_33_7)">
<g opacity="0.4">
<path d="M-116.578 556.928C-142.661 495.978 -102.731 424.843 -49.1954 397.115C4.3454 369.405 67.1384 371.702 127.039 366.955C186.939 362.209 251.227 346.545 286.944 295.087C332.602 229.303 316.717 126.383 364.953 62.8979C402.544 13.4107 468.052 3.91545 524.87 13.8659C556.994 19.4862 587.932 36.2713 619.572 44.7728C763.075 83.3043 818.452 237.369 927.771 228.347C1046.15 218.552 1088.1 139.406 1096.43 91.1084C1107.09 29.2244 1109.94 -123.457 971.515 -185.095C915.284 -210.132 858.825 -237.927 810.607 -279.081C738.408 -340.69 703.185 -458.675 746.537 -542.232C776.262 -599.488 837.328 -636.319 849.579 -701.556C857.808 -745.385 840.503 -793.055 811.819 -826.982C783.14 -860.89 744.447 -882.649 705.012 -897.719" stroke="url(#paint0_linear_33_7)" stroke-width="1.7469" stroke-miterlimit="10"/>
<path d="M-113.093 559.264C-137.539 495.8 -98.7615 421.998 -43.944 392.398C9.56664 363.496 73.2495 365.348 133.554 361.939C193.156 358.57 256.52 345.54 293.095 297.474C339.792 235.982 328.319 137.141 376.645 74.2578C415.203 24.3418 478.545 11.299 535.561 17.6647C568.321 21.3328 600.82 36.0766 633.784 44.4231C773.568 79.7767 828.984 228.272 935.981 219.618C1051.05 210.26 1093.67 134.448 1103.01 86.5412C1114.85 25.8315 1117.16 -121.145 985.096 -183.596C930.646 -209.34 875.565 -238.447 827.982 -279.435C757.774 -339.659 723.044 -453.22 763.058 -535.11C790.753 -591.762 848.894 -629.683 861.229 -694.152C869.747 -738.236 854.102 -785.678 827.453 -820.555C800.805 -855.432 763.593 -879.981 724.832 -897.3" stroke="url(#paint1_linear_33_7)" stroke-width="1.7469" stroke-miterlimit="10"/>
<path d="M-109.603 561.62C-132.423 495.666 -94.7808 419.19 -38.6922 387.681C14.7826 357.63 79.3385 358.982 140.074 356.943C199.379 354.95 261.835 344.549 299.263 299.857C346.987 242.681 339.809 147.771 388.376 85.6263C427.785 35.1966 489.126 18.6142 546.308 21.4669C579.727 23.135 613.752 35.9088 648.053 44.0765C784.056 76.4749 839.549 219.164 944.231 210.898C1056.01 201.971 1099.25 129.485 1109.62 81.9825C1122.63 22.4709 1124.42 -118.905 998.739 -182.075C946.064 -208.544 892.383 -238.95 845.396 -279.781C777.189 -338.644 742.947 -447.8 779.624 -527.96C805.283 -584.029 860.504 -623.019 872.947 -686.708C881.748 -731.065 867.757 -778.298 843.166 -814.112C818.068 -850.641 782.812 -877.316 744.731 -896.866" stroke="url(#paint2_linear_33_7)" stroke-width="1.7469" stroke-miterlimit="10"/>
<path d="M-106.114 563.975C-127.313 495.513 -90.8058 416.424 -33.4407 382.963C20.0208 351.778 85.4386 352.591 146.589 351.927C205.568 351.279 267.133 343.563 305.414 302.244C354.177 249.36 351.366 158.502 400.09 96.9996C440.417 46.096 499.73 25.8813 557.022 25.2791C591.127 24.9181 626.635 35.7566 662.31 43.7534C794.477 73.3771 850.12 210.075 952.487 202.196C1060.98 193.701 1104.83 124.54 1116.24 77.442C1130.37 19.1019 1131.67 -116.763 1012.37 -180.549C961.414 -207.788 909.257 -239.572 862.81 -280.127C796.732 -337.812 762.822 -442.411 796.202 -520.835C819.818 -576.338 871.986 -616.417 884.653 -679.302C893.643 -723.942 881.429 -770.985 858.857 -807.683C836.285 -844.381 802.013 -874.645 764.623 -896.45" stroke="url(#paint3_linear_33_7)" stroke-width="1.7469" stroke-miterlimit="10"/>
<path d="M-102.629 566.311C-122.208 495.341 -86.814 413.653 -28.189 378.246C25.2703 345.961 91.5164 346.187 153.109 346.93C214.702 347.673 272.431 342.576 311.587 304.644C361.373 256.057 362.94 169.228 411.81 108.391C453.055 57.0137 510.373 33.095 567.764 29.123C602.566 26.7089 639.551 35.6546 676.573 43.4486C804.865 70.4726 860.702 201.022 960.748 193.512C1065.94 185.43 1110.39 119.623 1122.87 72.9198C1138.13 15.7698 1138.91 -114.701 1026 -178.987C976.771 -207.015 926.097 -240.062 880.219 -280.431C816.181 -336.808 782.681 -437.018 812.757 -513.662C834.336 -568.642 883.552 -609.72 896.338 -671.848C905.578 -716.751 895.083 -763.667 874.52 -801.225C853.012 -840.52 821.187 -871.945 784.472 -896" stroke="url(#paint4_linear_33_7)" stroke-width="1.7469" stroke-miterlimit="10"/>
<path d="M-99.1391 568.666C-117.075 495.201 -82.8165 410.9 -22.9372 373.529C30.5254 340.164 97.5943 339.783 159.624 341.914C217.98 343.927 277.807 341.667 317.739 307.032C368.657 262.87 374.52 179.972 423.519 119.746C465.704 67.9079 521.021 40.2056 578.472 32.9168C613.994 28.4019 652.417 35.5076 690.802 43.0935C815.181 67.693 871.244 191.901 968.959 184.784C1070.86 177.133 1115.91 114.657 1129.45 68.3527C1145.81 12.3795 1146.08 -112.819 1039.59 -177.469C992.065 -206.323 942.865 -240.611 897.594 -280.785C835.585 -335.83 802.472 -431.725 829.278 -506.539C848.793 -561.028 895.079 -603.091 908.01 -664.431C917.523 -709.583 908.738 -756.41 890.171 -794.804C870.459 -835.543 840.327 -869.296 804.326 -895.592" stroke="url(#paint5_linear_33_7)" stroke-width="1.7469" stroke-miterlimit="10"/>
<path d="M-95.6495 571.021C-111.965 495.048 -78.8082 408.186 -17.6859 368.812C35.7857 334.386 103.683 333.356 166.161 336.912C224.196 340.228 283.127 340.694 323.928 309.427C375.875 269.581 386.132 190.706 435.255 131.133C478.363 78.8395 531.696 47.2874 589.224 36.7374C625.46 30.1032 665.316 35.4115 705.076 42.7655C825.526 65.0678 881.837 182.826 977.231 176.077C1075.83 168.862 1121.46 109.723 1136.07 63.8126C1153.52 9.02152 1153.3 -111.056 1053.22 -175.943C1007.37 -205.673 959.677 -241.132 915.007 -281.13C855.028 -334.844 822.269 -426.474 845.838 -499.408C863.3 -553.43 906.666 -596.441 919.7 -657.019C929.479 -702.439 922.431 -749.205 905.845 -788.369C887.961 -830.563 859.512 -866.62 824.185 -895.165" stroke="url(#paint6_linear_33_7)" stroke-width="1.7469" stroke-miterlimit="10"/>
<path d="M-92.1602 573.376C-106.849 494.913 -74.7778 405.484 -12.4292 364.113C41.0514 328.626 109.749 326.915 172.687 331.934C230.39 336.515 288.442 339.764 330.085 311.833C383.081 276.316 397.722 201.488 446.975 142.525C491.023 89.771 542.349 54.2945 599.943 40.5683C636.892 31.7537 678.187 35.3442 719.316 42.4477C835.803 62.5854 892.391 173.741 985.453 167.385C1080.76 160.602 1126.96 104.786 1142.66 59.2827C1161.18 5.67899 1160.51 -109.411 1066.83 -174.393C1022.64 -205.056 976.477 -241.63 932.393 -281.447C874.426 -333.824 842.004 -421.245 862.371 -492.248C877.745 -545.853 918.226 -589.762 931.378 -649.584C941.424 -695.271 936.146 -741.987 921.502 -781.929C905.469 -825.625 878.674 -863.958 844.028 -894.734" stroke="url(#paint7_linear_33_7)" stroke-width="1.7469" stroke-miterlimit="10"/>
<path d="M-88.6756 575.713C-101.744 494.741 -70.769 402.768 -7.18289 359.377C46.3346 322.861 115.821 320.431 179.196 326.9C236.568 332.746 293.734 338.759 336.23 314.202C390.254 283.001 409.313 212.208 458.667 153.885C503.661 100.689 552.963 61.2325 610.652 44.362C648.309 33.3485 691.037 35.2635 733.568 42.106C846.076 60.2065 902.956 164.633 993.703 158.665C1085.72 152.295 1132.47 99.8248 1149.27 54.7237C1168.83 2.2993 1167.76 -107.983 1080.45 -172.886C1037.9 -204.518 993.268 -242.165 949.802 -281.812C893.853 -332.832 861.712 -416.109 878.926 -485.136C892.191 -538.337 929.803 -583.149 943.062 -642.191C953.38 -688.127 949.896 -734.841 937.17 -775.514C923.022 -820.722 897.853 -861.3 863.899 -894.331" stroke="url(#paint8_linear_33_7)" stroke-width="1.7469" stroke-miterlimit="10"/>
<path d="M-85.1855 578.068C-96.6166 494.582 -66.7267 400.104 -1.92548 354.679C51.6122 317.138 121.899 313.966 185.722 321.921C242.757 329.014 299.044 337.81 342.41 316.621C397.461 289.736 420.943 222.998 470.404 165.272C516.36 111.628 563.622 68.136 621.393 48.2061C659.764 34.9512 703.908 35.2572 747.831 41.8014C856.354 57.9681 913.522 155.586 1001.96 149.981C1090.69 144.042 1137.97 94.9062 1155.91 50.2203C1176.49 -1.04332 1175.08 -106.656 1094.1 -171.305C1053.19 -203.967 1010.1 -242.613 967.216 -282.097C913.279 -331.78 881.375 -410.938 895.487 -477.944C906.626 -530.798 941.408 -576.443 954.774 -634.705C965.376 -680.914 963.69 -727.608 952.861 -769.024C940.63 -815.756 917.033 -858.582 883.775 -893.849" stroke="url(#paint9_linear_33_7)" stroke-width="1.7469" stroke-miterlimit="10"/>
<path d="M-81.6953 580.423C-91.5001 494.448 -62.6844 397.439 3.32642 349.962C56.9122 311.428 127.966 307.464 192.237 316.906C248.952 325.24 304.337 336.805 348.561 319.009C404.64 296.439 432.551 233.774 482.102 176.65C529.009 122.583 574.214 74.9998 632.107 52.0184C671.17 36.5088 716.764 35.2562 762.066 41.4651C866.583 55.8068 924.07 146.484 1010.19 141.29C1095.62 135.782 1143.41 89.9663 1162.49 45.6904C1184.08 -4.4071 1182.38 -105.53 1107.69 -169.769C1068.43 -203.541 1026.87 -243.119 984.596 -282.432C932.662 -330.755 900.938 -405.858 912.014 -470.803C920.983 -523.335 952.985 -569.77 966.431 -627.283C977.305 -673.741 977.478 -720.454 968.496 -762.597C958.216 -810.864 936.179 -855.914 903.596 -893.431" stroke="url(#paint10_linear_33_7)" stroke-width="1.7469" stroke-miterlimit="10"/>
<path d="M-78.2109 582.759C-86.3951 494.276 -58.6366 394.792 8.57256 345.226C62.2009 305.681 134.043 300.938 198.752 311.89C255.135 321.429 309.618 335.824 354.729 321.39C411.813 303.123 444.175 244.544 493.833 188.018C541.708 133.523 584.828 81.8155 642.838 55.8252C682.58 38.0237 729.624 35.2736 776.318 41.1232C876.817 53.7248 934.636 137.376 1018.44 132.569C1100.57 127.498 1148.87 84.9784 1169.11 41.131C1191.7 -7.81897 1189.79 -104.619 1121.33 -168.248C1083.73 -203.197 1043.67 -243.617 1002.01 -282.778C952.083 -329.722 920.467 -400.828 928.575 -463.673C935.312 -515.905 964.59 -563.125 978.137 -619.876C989.295 -666.608 991.333 -713.321 984.187 -756.168C975.892 -805.979 955.375 -853.263 923.489 -893.015" stroke="url(#paint11_linear_33_7)" stroke-width="1.7469" stroke-miterlimit="10"/>
<path d="M-74.7213 585.115C-81.2626 494.136 -54.5836 392.165 13.8295 340.527C67.5115 300.009 140.121 294.412 205.272 306.893C261.34 317.631 314.916 334.838 360.886 323.797C418.992 309.827 455.804 255.334 505.53 199.397C554.373 144.473 595.381 88.6106 653.551 59.6379C693.952 39.5313 742.462 35.3393 790.558 40.8058C887.046 51.747 945.212 128.488 1026.68 123.873C1105.53 119.393 1154.31 80.0204 1175.71 36.5964C1199.27 -11.2142 1197.27 -103.875 1134.94 -166.717C1099.02 -202.932 1060.45 -244.109 1019.41 -283.119C971.47 -328.677 939.896 -395.827 945.124 -456.518C949.601 -508.482 976.188 -556.438 989.821 -612.422C1001.27 -659.408 1005.19 -706.127 999.85 -749.71C993.555 -801.071 974.549 -850.563 943.337 -892.565" stroke="url(#paint12_linear_33_7)" stroke-width="1.7469" stroke-miterlimit="10"/>
<path d="M-71.2311 587.47C-76.1519 493.983 -50.5077 389.551 19.0814 335.81C72.8338 294.313 146.193 287.868 211.793 301.896C267.524 313.82 320.214 333.851 367.037 326.184C426.165 316.512 467.434 266.124 517.245 210.771C567.061 155.436 605.922 95.368 664.27 63.4686C705.318 41.0197 755.301 35.4656 804.799 40.4878C897.258 49.8349 955.772 119.423 1034.9 115.182C1110.46 111.132 1159.72 75.0486 1182.3 32.0663C1206.83 -14.6047 1204.85 -103.304 1148.54 -165.162C1114.35 -202.739 1077.21 -244.573 1036.79 -283.435C990.841 -327.628 959.236 -390.819 961.657 -449.358C963.796 -501.07 987.765 -549.764 1001.5 -604.987C1013.24 -652.227 1019.08 -698.944 1015.51 -743.251C1011.26 -796.136 993.717 -847.882 963.202 -892.12" stroke="url(#paint13_linear_33_7)" stroke-width="1.7469" stroke-miterlimit="10"/>
<path d="M-67.7418 589.825C-71.0363 493.848 -46.4271 386.955 24.3324 331.093C78.1552 288.617 152.269 281.281 218.313 296.899C273.74 309.998 325.506 332.847 373.21 328.585C433.36 323.21 479.085 276.927 528.964 222.163C578.843 167.399 616.446 102.131 675.006 67.2944C716.683 42.5084 768.156 35.6478 819.073 40.1596C907.514 48.0107 966.359 110.328 1043.17 106.474C1115.44 102.857 1165.16 70.0478 1188.94 27.5207C1214.42 -18.048 1212.61 -102.913 1162.19 -163.623C1129.8 -202.625 1094.02 -245.033 1054.21 -283.763C1010.24 -326.546 978.531 -385.837 978.222 -442.209C977.946 -493.685 999.397 -543.087 1013.19 -597.556C1025.22 -645.033 1033 -691.771 1031.19 -736.817C1029.02 -791.235 1012.88 -845.2 983.061 -891.693" stroke="url(#paint14_linear_33_7)" stroke-width="1.7469" stroke-miterlimit="10"/>
<path d="M-64.2573 592.161C-65.9312 493.676 -42.3346 384.335 29.5842 326.375C83.4831 282.939 158.364 274.688 224.828 291.883C279.929 306.144 330.799 331.841 379.361 330.972C440.527 329.875 490.715 287.716 540.679 233.536C592.458 177.375 626.944 108.861 685.72 71.1063C728.016 43.9461 781 35.8534 833.308 39.8229C917.727 46.2205 976.891 101.231 1051.39 97.764C1120.36 94.5591 1170.53 65.0491 1195.52 22.9718C1221.94 -21.4893 1220.47 -102.676 1175.78 -162.106C1145.3 -202.65 1110.75 -245.529 1071.59 -284.117C1029.59 -325.51 997.693 -380.874 994.744 -435.086C991.963 -486.319 1010.99 -536.438 1024.85 -590.134C1037.19 -637.87 1046.89 -684.588 1046.84 -730.396C1046.78 -786.316 1032.05 -842.538 1002.9 -891.28" stroke="url(#paint15_linear_33_7)" stroke-width="1.7469" stroke-miterlimit="10"/>
<path d="M-60.7672 594.516C-60.8038 493.518 -38.2309 381.753 34.8528 321.653C88.8332 277.275 164.475 268.091 231.365 286.881C286.168 302.275 336.109 330.832 385.552 333.367C447.751 336.544 502.39 298.532 552.41 244.904C605.186 188.347 637.446 115.55 696.467 74.9083C739.343 45.3659 793.867 36.1339 847.577 39.4761C927.979 44.4998 987.473 92.1175 1059.65 89.0384C1125.34 86.2462 1175.93 59.998 1202.16 18.4078C1228.38 -23.1824 1228.55 -102.568 1189.44 -160.591C1160.99 -202.775 1127.54 -246.003 1089.02 -284.468C1048.98 -324.448 1016.81 -375.876 1011.32 -427.961C1005.95 -478.923 1022.63 -529.785 1036.57 -582.733C1049.2 -630.723 1060.86 -677.412 1062.55 -723.972C1064.59 -781.394 1051.26 -839.891 1022.81 -890.87" stroke="url(#paint16_linear_33_7)" stroke-width="1.7469" stroke-miterlimit="10"/>
<path d="M-57.2771 596.871C-55.6876 493.382 -34.1217 379.189 40.1101 316.954C94.1666 271.615 170.58 261.475 237.886 281.884C292.373 298.415 341.412 329.741 391.708 335.773C454.94 343.101 514.031 309.359 564.13 256.296C617.901 199.342 647.91 122.291 707.186 78.7388C750.642 46.8142 806.723 36.4988 861.823 39.1766C938.22 42.8635 998.021 82.8925 1067.9 80.36C1130.26 77.8453 1181.32 54.994 1208.77 13.8909C1237.01 -28.4002 1236.8 -102.495 1203.05 -159.041C1176.84 -202.953 1144.29 -246.424 1106.42 -284.79C1068.35 -323.356 1035.83 -370.828 1027.87 -420.806C1019.81 -471.466 1034.25 -523.103 1048.25 -575.298C1061.19 -623.529 1074.82 -670.189 1078.2 -717.532C1082.4 -776.43 1070.43 -837.21 1042.65 -890.438" stroke="url(#paint17_linear_33_7)" stroke-width="1.7469" stroke-miterlimit="10"/>
<path d="M-53.7936 599.208C-50.5834 493.211 -29.9966 376.62 45.3554 312.219C99.5102 265.933 176.69 254.816 244.4 276.869C298.6 294.509 346.721 328.732 397.876 338.156C462.129 349.781 525.699 320.157 575.844 267.67C630.616 210.337 658.339 128.983 717.922 82.5649C761.957 48.2581 819.589 36.9627 876.079 38.854C948.493 41.2785 1008.59 73.8037 1076.14 71.6639C1135.21 69.5805 1186.67 49.9404 1215.37 9.35613C1244.07 -31.2282 1245.28 -102.453 1216.67 -157.491C1192.9 -203.194 1161.04 -246.845 1123.81 -285.107C1087.68 -322.235 1054.75 -365.687 1044.4 -413.646C1033.55 -463.948 1045.87 -516.402 1059.93 -567.862C1073.19 -616.34 1088.78 -662.947 1093.86 -711.074C1100.22 -771.429 1089.58 -834.524 1062.5 -889.987" stroke="url(#paint18_linear_33_7)" stroke-width="1.7469" stroke-miterlimit="10"/>
<path d="M-50.3037 601.563C-45.4506 493.071 -25.8819 374.075 50.607 307.502C104.866 260.287 182.801 248.158 250.915 271.853C304.811 290.608 352.013 327.727 404.021 340.524C469.313 356.442 537.44 331.074 587.552 279.024C643.438 221.441 668.763 135.655 728.63 86.3587C773.2 49.6431 832.457 37.4871 890.326 38.4937C958.762 39.6744 1019.15 64.6772 1084.38 62.9247C1140.17 61.2727 1192.03 44.8439 1221.98 4.77853C1251.94 -35.2869 1254 -102.406 1230.28 -156.003C1209.23 -203.544 1177.76 -247.316 1141.21 -285.49C1107.04 -321.18 1073.64 -360.555 1060.95 -406.552C1047.21 -456.41 1057.58 -509.752 1071.62 -560.469C1085.27 -609.153 1102.77 -655.734 1109.53 -704.676C1118.06 -766.475 1108.75 -831.885 1082.36 -889.603" stroke="url(#paint19_linear_33_7)" stroke-width="1.7469" stroke-miterlimit="10"/>
<path d="M-46.8134 603.918C-40.3397 492.918 -21.6386 371.652 55.8646 302.803C110.289 254.742 188.934 241.512 257.441 266.875C311.067 286.733 357.323 326.778 410.184 342.949C476.504 363.182 549.053 341.868 599.256 290.421C656.109 232.41 679.149 142.381 739.349 90.1894C784.455 51.065 845.336 38.1705 904.566 38.1757C969.064 38.1816 1029.71 55.6116 1092.62 54.2279C1145.11 52.9886 1197.35 39.7578 1228.59 0.243176C1259.51 -38.9083 1262.95 -102.188 1243.91 -154.459C1225.91 -203.841 1194.48 -247.708 1158.64 -285.799C1126.4 -320.046 1092.51 -355.234 1077.52 -399.385C1060.81 -448.686 1069.2 -503.052 1083.33 -553.026C1097.27 -601.983 1116.78 -648.448 1125.22 -698.229C1135.94 -761.453 1127.95 -829.215 1102.25 -889.164" stroke="url(#paint20_linear_33_7)" stroke-width="1.7469" stroke-miterlimit="10"/>
<path d="M-43.3235 606.273C-35.2292 492.764 -17.5909 369.005 61.1163 298.086C115.583 249.013 195.067 234.806 263.961 261.878C317.294 282.826 362.638 325.786 416.357 345.349C483.716 369.874 560.683 352.657 610.993 301.808C668.797 243.373 689.568 149.095 750.085 94.0147C795.726 52.4815 858.242 39.0079 918.829 37.8709C979.4 36.7393 1040.29 46.5406 1100.87 45.5681C1150.05 44.7655 1202.7 34.7035 1235.2 -4.25509C1267.02 -42.3865 1272.16 -101.727 1257.54 -152.872C1242.92 -204.017 1211.2 -248.058 1176.03 -286.079C1145.71 -318.877 1111.31 -349.77 1094.07 -392.169C1074.31 -440.789 1080.78 -496.317 1095.01 -545.529C1109.24 -594.741 1130.77 -641.113 1140.89 -691.71C1153.81 -756.345 1147.13 -826.454 1122.11 -888.658" stroke="url(#paint21_linear_33_7)" stroke-width="1.7469" stroke-miterlimit="10"/>
</g>
</g>
<defs>
<linearGradient id="paint0_linear_33_7" x1="-446.021" y1="-533.082" x2="1115.98" y2="239.163" gradientUnits="userSpaceOnUse">
<stop stop-color="#EF6B2A"/>
<stop offset="1" stop-color="#F1BC62"/>
</linearGradient>
<linearGradient id="paint1_linear_33_7" x1="-441.335" y1="-527.869" x2="1110.94" y2="252.848" gradientUnits="userSpaceOnUse">
<stop stop-color="#EF6B2A"/>
<stop offset="1" stop-color="#F1BC62"/>
</linearGradient>
<linearGradient id="paint2_linear_33_7" x1="-436.742" y1="-522.586" x2="1114.04" y2="263.773" gradientUnits="userSpaceOnUse">
<stop stop-color="#EF6B2A"/>
<stop offset="1" stop-color="#F1BC62"/>
</linearGradient>
<linearGradient id="paint3_linear_33_7" x1="-432.266" y1="-517.286" x2="1117.01" y2="274.785" gradientUnits="userSpaceOnUse">
<stop stop-color="#EF6B2A"/>
<stop offset="1" stop-color="#F1BC62"/>
</linearGradient>
<linearGradient id="paint4_linear_33_7" x1="-427.87" y1="-511.94" x2="1119.82" y2="285.921" gradientUnits="userSpaceOnUse">
<stop stop-color="#EF6B2A"/>
<stop offset="1" stop-color="#F1BC62"/>
</linearGradient>
<linearGradient id="paint5_linear_33_7" x1="-423.489" y1="-506.631" x2="1122.61" y2="296.958" gradientUnits="userSpaceOnUse">
<stop stop-color="#EF6B2A"/>
<stop offset="1" stop-color="#F1BC62"/>
</linearGradient>
<linearGradient id="paint6_linear_33_7" x1="-419.102" y1="-501.302" x2="1125.33" y2="308.049" gradientUnits="userSpaceOnUse">
<stop stop-color="#EF6B2A"/>
<stop offset="1" stop-color="#F1BC62"/>
</linearGradient>
<linearGradient id="paint7_linear_33_7" x1="-414.716" y1="-495.974" x2="1127.98" y2="319.113" gradientUnits="userSpaceOnUse">
<stop stop-color="#EF6B2A"/>
<stop offset="1" stop-color="#F1BC62"/>
</linearGradient>
<linearGradient id="paint8_linear_33_7" x1="-410.335" y1="-490.665" x2="1130.58" y2="330.194" gradientUnits="userSpaceOnUse">
<stop stop-color="#EF6B2A"/>
<stop offset="1" stop-color="#F1BC62"/>
</linearGradient>
<linearGradient id="paint9_linear_33_7" x1="-405.931" y1="-485.281" x2="1134.07" y2="344.67" gradientUnits="userSpaceOnUse">
<stop stop-color="#EF6B2A"/>
<stop offset="1" stop-color="#F1BC62"/>
</linearGradient>
<linearGradient id="paint10_linear_33_7" x1="-401.55" y1="-479.972" x2="1137.88" y2="360.387" gradientUnits="userSpaceOnUse">
<stop stop-color="#EF6B2A"/>
<stop offset="1" stop-color="#F1BC62"/>
</linearGradient>
<linearGradient id="paint11_linear_33_7" x1="-397.163" y1="-474.644" x2="1141.63" y2="376.596" gradientUnits="userSpaceOnUse">
<stop stop-color="#EF6B2A"/>
<stop offset="1" stop-color="#F1BC62"/>
</linearGradient>
<linearGradient id="paint12_linear_33_7" x1="-392.771" y1="-469.297" x2="1145.31" y2="393.152" gradientUnits="userSpaceOnUse">
<stop stop-color="#EF6B2A"/>
<stop offset="1" stop-color="#F1BC62"/>
</linearGradient>
<linearGradient id="paint13_linear_33_7" x1="-388.379" y1="-463.95" x2="1148.91" y2="410.011" gradientUnits="userSpaceOnUse">
<stop stop-color="#EF6B2A"/>
<stop offset="1" stop-color="#F1BC62"/>
</linearGradient>
<linearGradient id="paint14_linear_33_7" x1="-383.993" y1="-458.622" x2="1152.4" y2="427.097" gradientUnits="userSpaceOnUse">
<stop stop-color="#EF6B2A"/>
<stop offset="1" stop-color="#F1BC62"/>
</linearGradient>
<linearGradient id="paint15_linear_33_7" x1="-379.611" y1="-453.313" x2="1155.74" y2="444.33" gradientUnits="userSpaceOnUse">
<stop stop-color="#EF6B2A"/>
<stop offset="1" stop-color="#F1BC62"/>
</linearGradient>
<linearGradient id="paint16_linear_33_7" x1="-375.224" y1="-447.985" x2="1158.93" y2="461.748" gradientUnits="userSpaceOnUse">
<stop stop-color="#EF6B2A"/>
<stop offset="1" stop-color="#F1BC62"/>
</linearGradient>
<linearGradient id="paint17_linear_33_7" x1="-370.838" y1="-442.657" x2="1161.95" y2="479.205" gradientUnits="userSpaceOnUse">
<stop stop-color="#EF6B2A"/>
<stop offset="1" stop-color="#F1BC62"/>
</linearGradient>
<linearGradient id="paint18_linear_33_7" x1="-366.446" y1="-437.31" x2="1164.73" y2="496.72" gradientUnits="userSpaceOnUse">
<stop stop-color="#EF6B2A"/>
<stop offset="1" stop-color="#F1BC62"/>
</linearGradient>
<linearGradient id="paint19_linear_33_7" x1="-362.071" y1="-432.019" x2="1167.41" y2="514.195" gradientUnits="userSpaceOnUse">
<stop stop-color="#EF6B2A"/>
<stop offset="1" stop-color="#F1BC62"/>
</linearGradient>
<linearGradient id="paint20_linear_33_7" x1="-357.678" y1="-426.672" x2="1169.83" y2="531.721" gradientUnits="userSpaceOnUse">
<stop stop-color="#EF6B2A"/>
<stop offset="1" stop-color="#F1BC62"/>
</linearGradient>
<linearGradient id="paint21_linear_33_7" x1="-353.269" y1="-421.27" x2="1172" y2="549.233" gradientUnits="userSpaceOnUse">
<stop stop-color="#EF6B2A"/>
<stop offset="1" stop-color="#F1BC62"/>
</linearGradient>
<clipPath id="clip0_33_7">
<rect width="502" height="347" fill="white"/>
</clipPath>
</defs>
</svg>
