<svg width="290" height="321" viewBox="0 0 290 321" fill="none" xmlns="http://www.w3.org/2000/svg">
<path d="M114 264.803C114 295.455 89.1518 320.303 58.5 320.303C27.8482 320.303 3 295.455 3 264.803C3 234.152 27.8482 209.303 58.5 209.303C89.1518 209.303 114 234.152 114 264.803Z" fill="url(#paint0_linear_33_31)"/>
<path d="M48.9375 217.573C48.4568 217.573 47.9958 217.769 47.6559 218.117C47.316 218.465 47.125 218.937 47.125 219.429C47.125 219.921 47.316 220.393 47.6559 220.741C47.9958 221.089 48.4568 221.285 48.9375 221.285C49.4182 221.285 49.8792 221.089 50.2191 220.741C50.5591 220.393 50.75 219.921 50.75 219.429C50.75 218.937 50.5591 218.465 50.2191 218.117C49.8792 217.769 49.4182 217.573 48.9375 217.573ZM67.0625 217.573C66.5818 217.573 66.1208 217.769 65.7809 218.117C65.441 218.465 65.25 218.937 65.25 219.429C65.25 219.921 65.441 220.393 65.7809 220.741C66.1208 221.089 66.5818 221.285 67.0625 221.285C67.5432 221.285 68.0042 221.089 68.3441 220.741C68.684 220.393 68.875 219.921 68.875 219.429C68.875 218.937 68.684 218.465 68.3441 218.117C68.0042 217.769 67.5432 217.573 67.0625 217.573ZM85.1875 217.573C84.7068 217.573 84.2458 217.769 83.9059 218.117C83.566 218.465 83.375 218.937 83.375 219.429C83.375 219.921 83.566 220.393 83.9059 220.741C84.2458 221.089 84.7068 221.285 85.1875 221.285C85.6682 221.285 86.1292 221.089 86.4691 220.741C86.809 220.393 87 219.921 87 219.429C87 218.937 86.809 218.465 86.4691 218.117C86.1292 217.769 85.6682 217.573 85.1875 217.573ZM30.8125 224.997C30.3318 224.997 29.8708 225.192 29.5309 225.541C29.191 225.889 29 226.361 29 226.853C29 227.345 29.191 227.817 29.5309 228.165C29.8708 228.513 30.3318 228.709 30.8125 228.709C31.2932 228.709 31.7542 228.513 32.0941 228.165C32.4341 227.817 32.625 227.345 32.625 226.853C32.625 226.361 32.4341 225.889 32.0941 225.541C31.7542 225.192 31.2932 224.997 30.8125 224.997ZM48.9375 224.997C48.4568 224.997 47.9958 225.192 47.6559 225.541C47.316 225.889 47.125 226.361 47.125 226.853C47.125 227.345 47.316 227.817 47.6559 228.165C47.9958 228.513 48.4568 228.709 48.9375 228.709C49.4182 228.709 49.8792 228.513 50.2191 228.165C50.5591 227.817 50.75 227.345 50.75 226.853C50.75 226.361 50.5591 225.889 50.2191 225.541C49.8792 225.192 49.4182 224.997 48.9375 224.997ZM58 224.997C57.5193 224.997 57.0583 225.192 56.7184 225.541C56.3785 225.889 56.1875 226.361 56.1875 226.853C56.1875 227.345 56.3785 227.817 56.7184 228.165C57.0583 228.513 57.5193 228.709 58 228.709C58.4807 228.709 58.9417 228.513 59.2816 228.165C59.6216 227.817 59.8125 227.345 59.8125 226.853C59.8125 226.361 59.6216 225.889 59.2816 225.541C58.9417 225.192 58.4807 224.997 58 224.997ZM67.0625 224.997C66.5818 224.997 66.1208 225.192 65.7809 225.541C65.441 225.889 65.25 226.361 65.25 226.853C65.25 227.345 65.441 227.817 65.7809 228.165C66.1208 228.513 66.5818 228.709 67.0625 228.709C67.5432 228.709 68.0042 228.513 68.3441 228.165C68.684 227.817 68.875 227.345 68.875 226.853C68.875 226.361 68.684 225.889 68.3441 225.541C68.0042 225.192 67.5432 224.997 67.0625 224.997ZM85.1875 224.997C84.7068 224.997 84.2458 225.192 83.9059 225.541C83.566 225.889 83.375 226.361 83.375 226.853C83.375 227.345 83.566 227.817 83.9059 228.165C84.2458 228.513 84.7068 228.709 85.1875 228.709C85.6682 228.709 86.1292 228.513 86.4691 228.165C86.809 227.817 87 227.345 87 226.853C87 226.361 86.809 225.889 86.4691 225.541C86.1292 225.192 85.6682 224.997 85.1875 224.997ZM76.125 228.709C75.6443 228.709 75.1833 228.904 74.8434 229.252C74.5035 229.601 74.3125 230.073 74.3125 230.565C74.3125 231.057 74.5035 231.529 74.8434 231.877C75.1833 232.225 75.6443 232.421 76.125 232.421C76.6057 232.421 77.0667 232.225 77.4066 231.877C77.7465 231.529 77.9375 231.057 77.9375 230.565C77.9375 230.073 77.7465 229.601 77.4066 229.252C77.0667 228.904 76.6057 228.709 76.125 228.709ZM39.875 230.565C39.3943 230.565 38.9333 230.76 38.5934 231.108C38.2535 231.456 38.0625 231.929 38.0625 232.421C38.0625 232.913 38.2535 233.385 38.5934 233.733C38.9333 234.081 39.3943 234.277 39.875 234.277C40.3557 234.277 40.8167 234.081 41.1566 233.733C41.4965 233.385 41.6875 232.913 41.6875 232.421C41.6875 231.929 41.4965 231.456 41.1566 231.108C40.8167 230.76 40.3557 230.565 39.875 230.565ZM48.9375 232.421C48.4568 232.421 47.9958 232.616 47.6559 232.964C47.316 233.312 47.125 233.785 47.125 234.277C47.125 234.769 47.316 235.241 47.6559 235.589C47.9958 235.937 48.4568 236.133 48.9375 236.133C49.4182 236.133 49.8792 235.937 50.2191 235.589C50.5591 235.241 50.75 234.769 50.75 234.277C50.75 233.785 50.5591 233.312 50.2191 232.964C49.8792 232.616 49.4182 232.421 48.9375 232.421ZM58 232.421C57.5193 232.421 57.0583 232.616 56.7184 232.964C56.3785 233.312 56.1875 233.785 56.1875 234.277C56.1875 234.769 56.3785 235.241 56.7184 235.589C57.0583 235.937 57.5193 236.133 58 236.133C58.4807 236.133 58.9417 235.937 59.2816 235.589C59.6216 235.241 59.8125 234.769 59.8125 234.277C59.8125 233.785 59.6216 233.312 59.2816 232.964C58.9417 232.616 58.4807 232.421 58 232.421ZM67.0625 232.421C66.5818 232.421 66.1208 232.616 65.7809 232.964C65.441 233.312 65.25 233.785 65.25 234.277C65.25 234.769 65.441 235.241 65.7809 235.589C66.1208 235.937 66.5818 236.133 67.0625 236.133C67.5432 236.133 68.0042 235.937 68.3441 235.589C68.684 235.241 68.875 234.769 68.875 234.277C68.875 233.785 68.684 233.312 68.3441 232.964C68.0042 232.616 67.5432 232.421 67.0625 232.421ZM76.125 236.133C75.6443 236.133 75.1833 236.328 74.8434 236.676C74.5035 237.024 74.3125 237.496 74.3125 237.989C74.3125 238.481 74.5035 238.953 74.8434 239.301C75.1833 239.649 75.6443 239.845 76.125 239.845C76.6057 239.845 77.0667 239.649 77.4066 239.301C77.7465 238.953 77.9375 238.481 77.9375 237.989C77.9375 237.496 77.7465 237.024 77.4066 236.676C77.0667 236.328 76.6057 236.133 76.125 236.133ZM39.875 237.989C39.3943 237.989 38.9333 238.184 38.5934 238.532C38.2535 238.88 38.0625 239.352 38.0625 239.845C38.0625 240.337 38.2535 240.809 38.5934 241.157C38.9333 241.505 39.3943 241.701 39.875 241.701C40.3557 241.701 40.8167 241.505 41.1566 241.157C41.4965 240.809 41.6875 240.337 41.6875 239.845C41.6875 239.352 41.4965 238.88 41.1566 238.532C40.8167 238.184 40.3557 237.989 39.875 237.989ZM30.8125 239.845C30.3318 239.845 29.8708 240.04 29.5309 240.388C29.191 240.736 29 241.208 29 241.701C29 242.193 29.191 242.665 29.5309 243.013C29.8708 243.361 30.3318 243.557 30.8125 243.557C31.2932 243.557 31.7542 243.361 32.0941 243.013C32.4341 242.665 32.625 242.193 32.625 241.701C32.625 241.208 32.4341 240.736 32.0941 240.388C31.7542 240.04 31.2932 239.845 30.8125 239.845ZM58 239.845C42.0666 239.845 29.1092 253.063 29.0106 269.355C29.0041 269.417 29.0005 269.479 29 269.54C28.9998 269.609 29.0033 269.678 29.0106 269.747C29.1207 286.029 42.0737 299.236 58 299.236C73.9311 299.236 86.887 286.021 86.9894 269.732C86.9962 269.669 86.9997 269.604 87 269.54C87 269.478 86.9933 269.418 86.9929 269.355C86.9918 269.351 86.9906 269.346 86.9894 269.341C86.9404 261.825 84.1656 254.95 79.6155 249.744C74.3067 243.671 66.5764 239.845 58 239.845ZM85.1875 239.845C84.7068 239.845 84.2458 240.04 83.9059 240.388C83.566 240.736 83.375 241.208 83.375 241.701C83.375 242.193 83.566 242.665 83.9059 243.013C84.2458 243.361 84.7068 243.557 85.1875 243.557C85.6682 243.557 86.1292 243.361 86.4691 243.013C86.809 242.665 87 242.193 87 241.701C87 241.208 86.809 240.736 86.4691 240.388C86.1292 240.04 85.6682 239.845 85.1875 239.845ZM58 243.557C65.5259 243.557 72.2654 246.898 76.9144 252.217V252.22C80.9355 256.82 83.375 262.875 83.375 269.54C83.375 283.912 72.0351 295.524 58 295.524C43.9649 295.524 32.625 283.912 32.625 269.54C32.625 255.169 43.9649 243.557 58 243.557ZM30.8125 247.269C30.3318 247.269 29.8708 247.464 29.5309 247.812C29.191 248.16 29 248.632 29 249.125C29 249.617 29.191 250.089 29.5309 250.437C29.8708 250.785 30.3318 250.981 30.8125 250.981C31.2932 250.981 31.7542 250.785 32.0941 250.437C32.4341 250.089 32.625 249.617 32.625 249.125C32.625 248.632 32.4341 248.16 32.0941 247.812C31.7542 247.464 31.2932 247.269 30.8125 247.269ZM85.1875 247.269C84.7068 247.269 84.2458 247.464 83.9059 247.812C83.566 248.16 83.375 248.632 83.375 249.125C83.375 249.617 83.566 250.089 83.9059 250.437C84.2458 250.785 84.7068 250.981 85.1875 250.981C85.6682 250.981 86.1292 250.785 86.4691 250.437C86.809 250.089 87 249.617 87 249.125C87 248.632 86.809 248.16 86.4691 247.812C86.1292 247.464 85.6682 247.269 85.1875 247.269ZM56.8955 254.359V256.784C52.0598 257.205 49.1428 259.926 49.1428 264.07C49.1428 267.582 51.2891 269.972 55.2494 270.972L56.8955 271.375V278.856C54.5121 278.593 52.9502 277.188 52.7962 275.221H48.6118C48.6281 279.363 51.7825 282.137 56.892 282.452V284.722H59.2603V282.438C64.4223 282 67.3882 279.277 67.3882 274.923C67.39 271.217 65.3149 268.952 60.9595 267.916L59.2603 267.547V260.438C61.3175 260.718 62.7566 262.157 62.8074 263.965H66.9068C66.8216 260.014 63.8386 257.204 59.2603 256.784V254.359H56.8955ZM56.8955 260.416V267.035C54.5973 266.544 53.3803 265.386 53.3803 263.701C53.3803 261.908 54.8565 260.541 56.8955 260.416ZM59.2603 271.831C61.97 272.375 63.2039 273.496 63.2039 275.376C63.2039 277.45 61.7651 278.731 59.2603 278.889V271.831Z" fill="url(#paint1_linear_33_31)"/>
<path d="M290 145C290 225.081 225.081 290 145 290C64.9187 290 0 225.081 0 145C0 64.9187 64.9187 0 145 0C225.081 0 290 64.9187 290 145Z" fill="url(#paint2_linear_33_31)"/>
<path d="M67.5926 61C57.8892 61 50 68.8944 50 78.6042C50 88.314 57.8892 96.2083 67.5926 96.2083H78.1481V219.437C78.1481 225.255 82.8899 230 88.7037 230H201.296C207.11 230 211.852 225.255 211.852 219.437V96.2083H222.407C232.111 96.2083 240 88.314 240 78.6042C240 68.8944 232.111 61 222.407 61H67.5926ZM67.5926 68.0417H78.1481V89.1667H67.5926C61.7788 89.1667 57.037 84.4218 57.037 78.6042C57.037 72.7865 61.7788 68.0417 67.5926 68.0417ZM85.1852 68.0417H148.519V222.958H88.7037C86.7658 222.958 85.1852 221.377 85.1852 219.437V68.0417ZM155.556 68.0417H162.538C162.538 69.9946 164.118 71.5763 166.056 71.5625H173.093C175.045 71.5625 176.612 69.9809 176.612 68.0417H183.704V184.229C183.704 186.168 185.284 187.75 187.222 187.75C189.16 187.75 190.741 186.168 190.741 184.229V68.0417H204.815V219.437C204.815 221.377 203.234 222.958 201.296 222.958H155.556V68.0417ZM211.852 68.0417H222.407C228.221 68.0417 232.963 72.7865 232.963 78.6042C232.963 84.4218 228.221 89.1667 222.407 89.1667H211.852V68.0417ZM113.333 75.0833C111.395 75.0833 109.815 76.665 109.815 78.6042V117.333C109.815 119.273 111.395 120.854 113.333 120.854C115.271 120.854 116.852 119.273 116.852 117.333V78.6042C116.852 76.665 115.271 75.0833 113.333 75.0833ZM127.407 75.0833C125.469 75.0833 123.889 76.665 123.889 78.6042V106.771C123.889 108.71 125.469 110.292 127.407 110.292C129.345 110.292 130.926 108.71 130.926 106.771V78.6042C130.926 76.665 129.345 75.0833 127.407 75.0833ZM173.107 82.125H166.07C164.118 82.125 162.551 83.7066 162.551 85.6458C162.565 87.5988 164.132 89.1667 166.07 89.1667H173.107C175.059 89.1667 176.639 87.585 176.625 85.6458C176.625 83.6929 175.059 82.1112 173.107 82.125ZM173.121 99.7292H166.084C164.132 99.7292 162.565 101.311 162.579 103.25C162.579 105.203 164.146 106.771 166.097 106.771H173.134C175.072 106.771 176.653 105.189 176.653 103.25C176.639 101.297 175.072 99.7154 173.121 99.7292ZM173.134 117.333H166.097C164.146 117.333 162.579 118.915 162.579 120.854C162.579 122.807 164.159 124.375 166.111 124.375H173.148C175.086 124.375 176.653 122.793 176.653 120.854C176.653 118.901 175.086 117.32 173.134 117.333ZM127.407 117.333C125.469 117.333 123.889 118.915 123.889 120.854V134.937C123.889 136.877 125.469 138.458 127.407 138.458C129.345 138.458 130.926 136.877 130.926 134.937V120.854C130.926 118.915 129.345 117.333 127.407 117.333ZM173.148 138.458H166.111C164.173 138.458 162.593 140.04 162.593 141.979C162.606 143.932 164.173 145.5 166.125 145.5H173.162C175.114 145.5 176.68 143.918 176.667 141.979C176.667 140.026 175.1 138.445 173.148 138.458ZM173.162 156.062H166.125C164.187 156.062 162.606 157.644 162.606 159.583C162.62 161.536 164.187 163.104 166.139 163.104H173.176C175.127 163.104 176.694 161.523 176.68 159.583C176.68 157.63 175.114 156.049 173.162 156.062ZM120.37 159.583C112.605 159.583 106.296 165.896 106.296 173.667C106.296 176.912 107.41 180.007 109.389 182.469C107.41 184.931 106.296 188.025 106.296 191.271C106.296 199.041 112.605 205.354 120.37 205.354C128.136 205.354 134.444 199.041 134.444 191.271C134.444 188.025 133.331 184.931 131.352 182.469C133.331 180.007 134.444 176.912 134.444 173.667C134.444 165.896 128.136 159.583 120.37 159.583ZM120.37 166.625C124.246 166.625 127.407 169.788 127.407 173.667C127.407 176.032 126.225 178.233 124.246 179.539C123.27 180.199 122.679 181.286 122.679 182.469C122.679 183.652 123.27 184.752 124.246 185.398C126.225 186.705 127.407 188.905 127.407 191.271C127.407 195.149 124.246 198.312 120.37 198.312C116.495 198.312 113.333 195.149 113.333 191.271C113.333 188.905 114.515 186.705 116.495 185.398C117.47 184.738 118.061 183.652 118.061 182.469C118.061 181.286 117.47 180.186 116.495 179.539C114.515 178.233 113.333 176.032 113.333 173.667C113.333 169.788 116.495 166.625 120.37 166.625ZM173.189 173.667H166.152C164.201 173.667 162.62 175.248 162.634 177.187C162.634 179.14 164.201 180.708 166.152 180.708H173.189C175.141 180.708 176.708 179.127 176.708 177.187C176.694 175.235 175.127 173.653 173.189 173.667ZM173.203 191.271H166.166C164.214 191.271 162.634 192.852 162.648 194.792C162.648 196.745 164.214 198.312 166.166 198.312H173.203C175.155 198.312 176.722 196.731 176.722 194.792C176.708 192.839 175.141 191.257 173.203 191.271ZM187.222 194.792C185.284 194.792 183.704 196.373 183.704 198.312V212.396C183.704 214.335 185.284 215.917 187.222 215.917C189.16 215.917 190.741 214.335 190.741 212.396V198.312C190.741 196.373 189.16 194.792 187.222 194.792ZM173.203 208.875H166.166C164.228 208.875 162.648 210.457 162.648 212.396C162.661 214.349 164.228 215.93 166.18 215.917H173.217C175.169 215.917 176.735 214.335 176.722 212.396C176.722 210.443 175.155 208.875 173.203 208.875Z" fill="url(#paint3_linear_33_31)"/>
<defs>
<linearGradient id="paint0_linear_33_31" x1="3" y1="209.303" x2="123.931" y2="308.154" gradientUnits="userSpaceOnUse">
<stop stop-color="#EF6B2A" stop-opacity="0"/>
<stop offset="1" stop-color="#F1BC62" stop-opacity="0.6"/>
</linearGradient>
<linearGradient id="paint1_linear_33_31" x1="29" y1="217.573" x2="107.838" y2="263.343" gradientUnits="userSpaceOnUse">
<stop stop-color="#EF6B2A"/>
<stop offset="1" stop-color="#F1BC62"/>
</linearGradient>
<linearGradient id="paint2_linear_33_31" x1="0" y1="0" x2="315.946" y2="258.259" gradientUnits="userSpaceOnUse">
<stop stop-color="#EF6B2A" stop-opacity="0"/>
<stop offset="1" stop-color="#F1BC62" stop-opacity="0.6"/>
</linearGradient>
<linearGradient id="paint3_linear_33_31" x1="50" y1="61" x2="237.206" y2="233.04" gradientUnits="userSpaceOnUse">
<stop stop-color="#EF6B2A"/>
<stop offset="1" stop-color="#F1BC62"/>
</linearGradient>
</defs>
</svg>
