<svg width="88" height="88" viewBox="0 0 88 88" fill="none" xmlns="http://www.w3.org/2000/svg">
<rect width="88" height="88" rx="44" fill="url(#paint0_linear_33_736)"/>
<path d="M32 19.2V20V67.1999H30.4V26.4H19.2V27.2V67.1999H16V68.7999H19.2H30.4H57.6H68.8H72V67.1999H68.8V33.6H57.6V34.4V67.1999H56V40.7999H44.8V41.5999V67.1999H43.2V19.2H32ZM33.6 20.8H41.6V67.1999H33.6V20.8ZM20.8 28H28.8V67.1999H20.8V28ZM24.8 28.8C24.5878 28.8 24.3843 28.8842 24.2343 29.0343C24.0843 29.1843 24 29.3878 24 29.6C24 29.8121 24.0843 30.0156 24.2343 30.1656C24.3843 30.3157 24.5878 30.4 24.8 30.4C25.0122 30.4 25.2157 30.3157 25.3657 30.1656C25.5157 30.0156 25.6 29.8121 25.6 29.6C25.6 29.3878 25.5157 29.1843 25.3657 29.0343C25.2157 28.8842 25.0122 28.8 24.8 28.8ZM22.4 31.2C22.1878 31.2 21.9843 31.2842 21.8343 31.4343C21.6843 31.5843 21.6 31.7878 21.6 32C21.6 32.2121 21.6843 32.4156 21.8343 32.5656C21.9843 32.7157 22.1878 32.8 22.4 32.8C22.6122 32.8 22.8157 32.7157 22.9657 32.5656C23.1157 32.4156 23.2 32.2121 23.2 32C23.2 31.7878 23.1157 31.5843 22.9657 31.4343C22.8157 31.2842 22.6122 31.2 22.4 31.2ZM27.2 31.2C26.9878 31.2 26.7843 31.2842 26.6343 31.4343C26.4843 31.5843 26.4 31.7878 26.4 32C26.4 32.2121 26.4843 32.4156 26.6343 32.5656C26.7843 32.7157 26.9878 32.8 27.2 32.8C27.4122 32.8 27.6157 32.7157 27.7657 32.5656C27.9157 32.4156 28 32.2121 28 32C28 31.7878 27.9157 31.5843 27.7657 31.4343C27.6157 31.2842 27.4122 31.2 27.2 31.2ZM24.8 33.6C24.5878 33.6 24.3843 33.6842 24.2343 33.8343C24.0843 33.9843 24 34.1878 24 34.4C24 34.6121 24.0843 34.8156 24.2343 34.9656C24.3843 35.1157 24.5878 35.2 24.8 35.2C25.0122 35.2 25.2157 35.1157 25.3657 34.9656C25.5157 34.8156 25.6 34.6121 25.6 34.4C25.6 34.1878 25.5157 33.9843 25.3657 33.8343C25.2157 33.6842 25.0122 33.6 24.8 33.6ZM59.2 35.2H67.2V67.1999H59.2V35.2ZM22.4 36C22.1878 36 21.9843 36.0842 21.8343 36.2343C21.6843 36.3843 21.6 36.5878 21.6 36.8C21.6 37.0121 21.6843 37.2156 21.8343 37.3656C21.9843 37.5157 22.1878 37.6 22.4 37.6C22.6122 37.6 22.8157 37.5157 22.9657 37.3656C23.1157 37.2156 23.2 37.0121 23.2 36.8C23.2 36.5878 23.1157 36.3843 22.9657 36.2343C22.8157 36.0842 22.6122 36 22.4 36ZM27.2 36C26.9878 36 26.7843 36.0842 26.6343 36.2343C26.4843 36.3843 26.4 36.5878 26.4 36.8C26.4 37.0121 26.4843 37.2156 26.6343 37.3656C26.7843 37.5157 26.9878 37.6 27.2 37.6C27.4122 37.6 27.6157 37.5157 27.7657 37.3656C27.9157 37.2156 28 37.0121 28 36.8C28 36.5878 27.9157 36.3843 27.7657 36.2343C27.6157 36.0842 27.4122 36 27.2 36ZM24.8 38.4C24.5878 38.4 24.3843 38.4842 24.2343 38.6343C24.0843 38.7843 24 38.9878 24 39.1999C24 39.4121 24.0843 39.6156 24.2343 39.7656C24.3843 39.9157 24.5878 39.9999 24.8 39.9999C25.0122 39.9999 25.2157 39.9157 25.3657 39.7656C25.5157 39.6156 25.6 39.4121 25.6 39.1999C25.6 38.9878 25.5157 38.7843 25.3657 38.6343C25.2157 38.4842 25.0122 38.4 24.8 38.4ZM22.4 40.7999C22.1878 40.7999 21.9843 40.8842 21.8343 41.0343C21.6843 41.1843 21.6 41.3878 21.6 41.5999C21.6 41.8121 21.6843 42.0156 21.8343 42.1656C21.9843 42.3157 22.1878 42.3999 22.4 42.3999C22.6122 42.3999 22.8157 42.3157 22.9657 42.1656C23.1157 42.0156 23.2 41.8121 23.2 41.5999C23.2 41.3878 23.1157 41.1843 22.9657 41.0343C22.8157 40.8842 22.6122 40.7999 22.4 40.7999ZM27.2 40.7999C26.9878 40.7999 26.7843 40.8842 26.6343 41.0343C26.4843 41.1843 26.4 41.3878 26.4 41.5999C26.4 41.8121 26.4843 42.0156 26.6343 42.1656C26.7843 42.3157 26.9878 42.3999 27.2 42.3999C27.4122 42.3999 27.6157 42.3157 27.7657 42.1656C27.9157 42.0156 28 41.8121 28 41.5999C28 41.3878 27.9157 41.1843 27.7657 41.0343C27.6157 40.8842 27.4122 40.7999 27.2 40.7999ZM46.4 42.3999H54.4V67.1999H46.4V42.3999ZM24.8 43.1999C24.5878 43.1999 24.3843 43.2842 24.2343 43.4343C24.0843 43.5843 24 43.7878 24 43.9999C24 44.2121 24.0843 44.4156 24.2343 44.5656C24.3843 44.7157 24.5878 44.7999 24.8 44.7999C25.0122 44.7999 25.2157 44.7157 25.3657 44.5656C25.5157 44.4156 25.6 44.2121 25.6 43.9999C25.6 43.7878 25.5157 43.5843 25.3657 43.4343C25.2157 43.2842 25.0122 43.1999 24.8 43.1999ZM50.4 43.1999C50.1878 43.1999 49.9843 43.2842 49.8343 43.4343C49.6843 43.5843 49.6 43.7878 49.6 43.9999C49.6 44.2121 49.6843 44.4156 49.8343 44.5656C49.9843 44.7157 50.1878 44.7999 50.4 44.7999C50.6122 44.7999 50.8157 44.7157 50.9657 44.5656C51.1157 44.4156 51.2 44.2121 51.2 43.9999C51.2 43.7878 51.1157 43.5843 50.9657 43.4343C50.8157 43.2842 50.6122 43.1999 50.4 43.1999ZM22.4 45.5999C22.1878 45.5999 21.9843 45.6842 21.8343 45.8343C21.6843 45.9843 21.6 46.1878 21.6 46.3999C21.6 46.6121 21.6843 46.8156 21.8343 46.9656C21.9843 47.1157 22.1878 47.1999 22.4 47.1999C22.6122 47.1999 22.8157 47.1157 22.9657 46.9656C23.1157 46.8156 23.2 46.6121 23.2 46.3999C23.2 46.1878 23.1157 45.9843 22.9657 45.8343C22.8157 45.6842 22.6122 45.5999 22.4 45.5999ZM27.2 45.5999C26.9878 45.5999 26.7843 45.6842 26.6343 45.8343C26.4843 45.9843 26.4 46.1878 26.4 46.3999C26.4 46.6121 26.4843 46.8156 26.6343 46.9656C26.7843 47.1157 26.9878 47.1999 27.2 47.1999C27.4122 47.1999 27.6157 47.1157 27.7657 46.9656C27.9157 46.8156 28 46.6121 28 46.3999C28 46.1878 27.9157 45.9843 27.7657 45.8343C27.6157 45.6842 27.4122 45.5999 27.2 45.5999ZM48 45.5999C47.7878 45.5999 47.5843 45.6842 47.4343 45.8343C47.2843 45.9843 47.2 46.1878 47.2 46.3999C47.2 46.6121 47.2843 46.8156 47.4343 46.9656C47.5843 47.1157 47.7878 47.1999 48 47.1999C48.2122 47.1999 48.4157 47.1157 48.5657 46.9656C48.7157 46.8156 48.8 46.6121 48.8 46.3999C48.8 46.1878 48.7157 45.9843 48.5657 45.8343C48.4157 45.6842 48.2122 45.5999 48 45.5999ZM52.8 45.5999C52.5878 45.5999 52.3843 45.6842 52.2343 45.8343C52.0843 45.9843 52 46.1878 52 46.3999C52 46.6121 52.0843 46.8156 52.2343 46.9656C52.3843 47.1157 52.5878 47.1999 52.8 47.1999C53.0122 47.1999 53.2157 47.1157 53.3657 46.9656C53.5157 46.8156 53.6 46.6121 53.6 46.3999C53.6 46.1878 53.5157 45.9843 53.3657 45.8343C53.2157 45.6842 53.0122 45.5999 52.8 45.5999ZM24.8 47.9999C24.5878 47.9999 24.3843 48.0842 24.2343 48.2343C24.0843 48.3843 24 48.5878 24 48.7999C24 49.0121 24.0843 49.2156 24.2343 49.3656C24.3843 49.5157 24.5878 49.5999 24.8 49.5999C25.0122 49.5999 25.2157 49.5157 25.3657 49.3656C25.5157 49.2156 25.6 49.0121 25.6 48.7999C25.6 48.5878 25.5157 48.3843 25.3657 48.2343C25.2157 48.0842 25.0122 47.9999 24.8 47.9999ZM50.4 47.9999C50.1878 47.9999 49.9843 48.0842 49.8343 48.2343C49.6843 48.3843 49.6 48.5878 49.6 48.7999C49.6 49.0121 49.6843 49.2156 49.8343 49.3656C49.9843 49.5157 50.1878 49.5999 50.4 49.5999C50.6122 49.5999 50.8157 49.5157 50.9657 49.3656C51.1157 49.2156 51.2 49.0121 51.2 48.7999C51.2 48.5878 51.1157 48.3843 50.9657 48.2343C50.8157 48.0842 50.6122 47.9999 50.4 47.9999ZM22.4 50.3999C22.1878 50.3999 21.9843 50.4842 21.8343 50.6343C21.6843 50.7843 21.6 50.9878 21.6 51.1999C21.6 51.4121 21.6843 51.6156 21.8343 51.7656C21.9843 51.9157 22.1878 51.9999 22.4 51.9999C22.6122 51.9999 22.8157 51.9157 22.9657 51.7656C23.1157 51.6156 23.2 51.4121 23.2 51.1999C23.2 50.9878 23.1157 50.7843 22.9657 50.6343C22.8157 50.4842 22.6122 50.3999 22.4 50.3999ZM27.2 50.3999C26.9878 50.3999 26.7843 50.4842 26.6343 50.6343C26.4843 50.7843 26.4 50.9878 26.4 51.1999C26.4 51.4121 26.4843 51.6156 26.6343 51.7656C26.7843 51.9157 26.9878 51.9999 27.2 51.9999C27.4122 51.9999 27.6157 51.9157 27.7657 51.7656C27.9157 51.6156 28 51.4121 28 51.1999C28 50.9878 27.9157 50.7843 27.7657 50.6343C27.6157 50.4842 27.4122 50.3999 27.2 50.3999ZM48 50.3999C47.7878 50.3999 47.5843 50.4842 47.4343 50.6343C47.2843 50.7843 47.2 50.9878 47.2 51.1999C47.2 51.4121 47.2843 51.6156 47.4343 51.7656C47.5843 51.9157 47.7878 51.9999 48 51.9999C48.2122 51.9999 48.4157 51.9157 48.5657 51.7656C48.7157 51.6156 48.8 51.4121 48.8 51.1999C48.8 50.9878 48.7157 50.7843 48.5657 50.6343C48.4157 50.4842 48.2122 50.3999 48 50.3999ZM52.8 50.3999C52.5878 50.3999 52.3843 50.4842 52.2343 50.6343C52.0843 50.7843 52 50.9878 52 51.1999C52 51.4121 52.0843 51.6156 52.2343 51.7656C52.3843 51.9157 52.5878 51.9999 52.8 51.9999C53.0122 51.9999 53.2157 51.9157 53.3657 51.7656C53.5157 51.6156 53.6 51.4121 53.6 51.1999C53.6 50.9878 53.5157 50.7843 53.3657 50.6343C53.2157 50.4842 53.0122 50.3999 52.8 50.3999ZM24.8 52.7999C24.5878 52.7999 24.3843 52.8842 24.2343 53.0343C24.0843 53.1843 24 53.3878 24 53.5999C24 53.8121 24.0843 54.0156 24.2343 54.1656C24.3843 54.3157 24.5878 54.3999 24.8 54.3999C25.0122 54.3999 25.2157 54.3157 25.3657 54.1656C25.5157 54.0156 25.6 53.8121 25.6 53.5999C25.6 53.3878 25.5157 53.1843 25.3657 53.0343C25.2157 52.8842 25.0122 52.7999 24.8 52.7999ZM50.4 52.7999C50.1878 52.7999 49.9843 52.8842 49.8343 53.0343C49.6843 53.1843 49.6 53.3878 49.6 53.5999C49.6 53.8121 49.6843 54.0156 49.8343 54.1656C49.9843 54.3157 50.1878 54.3999 50.4 54.3999C50.6122 54.3999 50.8157 54.3157 50.9657 54.1656C51.1157 54.0156 51.2 53.8121 51.2 53.5999C51.2 53.3878 51.1157 53.1843 50.9657 53.0343C50.8157 52.8842 50.6122 52.7999 50.4 52.7999ZM22.4 55.1999C22.1878 55.1999 21.9843 55.2842 21.8343 55.4343C21.6843 55.5843 21.6 55.7878 21.6 55.9999C21.6 56.2121 21.6843 56.4156 21.8343 56.5656C21.9843 56.7157 22.1878 56.7999 22.4 56.7999C22.6122 56.7999 22.8157 56.7157 22.9657 56.5656C23.1157 56.4156 23.2 56.2121 23.2 55.9999C23.2 55.7878 23.1157 55.5843 22.9657 55.4343C22.8157 55.2842 22.6122 55.1999 22.4 55.1999ZM27.2 55.1999C26.9878 55.1999 26.7843 55.2842 26.6343 55.4343C26.4843 55.5843 26.4 55.7878 26.4 55.9999C26.4 56.2121 26.4843 56.4156 26.6343 56.5656C26.7843 56.7157 26.9878 56.7999 27.2 56.7999C27.4122 56.7999 27.6157 56.7157 27.7657 56.5656C27.9157 56.4156 28 56.2121 28 55.9999C28 55.7878 27.9157 55.5843 27.7657 55.4343C27.6157 55.2842 27.4122 55.1999 27.2 55.1999ZM48 55.1999C47.7878 55.1999 47.5843 55.2842 47.4343 55.4343C47.2843 55.5843 47.2 55.7878 47.2 55.9999C47.2 56.2121 47.2843 56.4156 47.4343 56.5656C47.5843 56.7157 47.7878 56.7999 48 56.7999C48.2122 56.7999 48.4157 56.7157 48.5657 56.5656C48.7157 56.4156 48.8 56.2121 48.8 55.9999C48.8 55.7878 48.7157 55.5843 48.5657 55.4343C48.4157 55.2842 48.2122 55.1999 48 55.1999ZM52.8 55.1999C52.5878 55.1999 52.3843 55.2842 52.2343 55.4343C52.0843 55.5843 52 55.7878 52 55.9999C52 56.2121 52.0843 56.4156 52.2343 56.5656C52.3843 56.7157 52.5878 56.7999 52.8 56.7999C53.0122 56.7999 53.2157 56.7157 53.3657 56.5656C53.5157 56.4156 53.6 56.2121 53.6 55.9999C53.6 55.7878 53.5157 55.5843 53.3657 55.4343C53.2157 55.2842 53.0122 55.1999 52.8 55.1999ZM24.8 57.5999C24.5878 57.5999 24.3843 57.6842 24.2343 57.8343C24.0843 57.9843 24 58.1878 24 58.3999C24 58.6121 24.0843 58.8156 24.2343 58.9656C24.3843 59.1157 24.5878 59.1999 24.8 59.1999C25.0122 59.1999 25.2157 59.1157 25.3657 58.9656C25.5157 58.8156 25.6 58.6121 25.6 58.3999C25.6 58.1878 25.5157 57.9843 25.3657 57.8343C25.2157 57.6842 25.0122 57.5999 24.8 57.5999ZM50.4 57.5999C50.1878 57.5999 49.9843 57.6842 49.8343 57.8343C49.6843 57.9843 49.6 58.1878 49.6 58.3999C49.6 58.6121 49.6843 58.8156 49.8343 58.9656C49.9843 59.1157 50.1878 59.1999 50.4 59.1999C50.6122 59.1999 50.8157 59.1157 50.9657 58.9656C51.1157 58.8156 51.2 58.6121 51.2 58.3999C51.2 58.1878 51.1157 57.9843 50.9657 57.8343C50.8157 57.6842 50.6122 57.5999 50.4 57.5999ZM22.4 59.9999C22.1878 59.9999 21.9843 60.0842 21.8343 60.2343C21.6843 60.3843 21.6 60.5878 21.6 60.7999C21.6 61.0121 21.6843 61.2156 21.8343 61.3656C21.9843 61.5157 22.1878 61.5999 22.4 61.5999C22.6122 61.5999 22.8157 61.5157 22.9657 61.3656C23.1157 61.2156 23.2 61.0121 23.2 60.7999C23.2 60.5878 23.1157 60.3843 22.9657 60.2343C22.8157 60.0842 22.6122 59.9999 22.4 59.9999ZM27.2 59.9999C26.9878 59.9999 26.7843 60.0842 26.6343 60.2343C26.4843 60.3843 26.4 60.5878 26.4 60.7999C26.4 61.0121 26.4843 61.2156 26.6343 61.3656C26.7843 61.5157 26.9878 61.5999 27.2 61.5999C27.4122 61.5999 27.6157 61.5157 27.7657 61.3656C27.9157 61.2156 28 61.0121 28 60.7999C28 60.5878 27.9157 60.3843 27.7657 60.2343C27.6157 60.0842 27.4122 59.9999 27.2 59.9999ZM48 59.9999C47.7878 59.9999 47.5843 60.0842 47.4343 60.2343C47.2843 60.3843 47.2 60.5878 47.2 60.7999C47.2 61.0121 47.2843 61.2156 47.4343 61.3656C47.5843 61.5157 47.7878 61.5999 48 61.5999C48.2122 61.5999 48.4157 61.5157 48.5657 61.3656C48.7157 61.2156 48.8 61.0121 48.8 60.7999C48.8 60.5878 48.7157 60.3843 48.5657 60.2343C48.4157 60.0842 48.2122 59.9999 48 59.9999ZM52.8 59.9999C52.5878 59.9999 52.3843 60.0842 52.2343 60.2343C52.0843 60.3843 52 60.5878 52 60.7999C52 61.0121 52.0843 61.2156 52.2343 61.3656C52.3843 61.5157 52.5878 61.5999 52.8 61.5999C53.0122 61.5999 53.2157 61.5157 53.3657 61.3656C53.5157 61.2156 53.6 61.0121 53.6 60.7999C53.6 60.5878 53.5157 60.3843 53.3657 60.2343C53.2157 60.0842 53.0122 59.9999 52.8 59.9999ZM24.8 62.3999C24.5878 62.3999 24.3843 62.4842 24.2343 62.6343C24.0843 62.7843 24 62.9878 24 63.1999C24 63.4121 24.0843 63.6156 24.2343 63.7656C24.3843 63.9157 24.5878 63.9999 24.8 63.9999C25.0122 63.9999 25.2157 63.9157 25.3657 63.7656C25.5157 63.6156 25.6 63.4121 25.6 63.1999C25.6 62.9878 25.5157 62.7843 25.3657 62.6343C25.2157 62.4842 25.0122 62.3999 24.8 62.3999ZM50.4 62.3999C50.1878 62.3999 49.9843 62.4842 49.8343 62.6343C49.6843 62.7843 49.6 62.9878 49.6 63.1999C49.6 63.4121 49.6843 63.6156 49.8343 63.7656C49.9843 63.9157 50.1878 63.9999 50.4 63.9999C50.6122 63.9999 50.8157 63.9157 50.9657 63.7656C51.1157 63.6156 51.2 63.4121 51.2 63.1999C51.2 62.9878 51.1157 62.7843 50.9657 62.6343C50.8157 62.4842 50.6122 62.3999 50.4 62.3999ZM22.4 64.7999C22.1878 64.7999 21.9843 64.8842 21.8343 65.0343C21.6843 65.1843 21.6 65.3878 21.6 65.5999C21.6 65.8121 21.6843 66.0156 21.8343 66.1656C21.9843 66.3157 22.1878 66.3999 22.4 66.3999C22.6122 66.3999 22.8157 66.3157 22.9657 66.1656C23.1157 66.0156 23.2 65.8121 23.2 65.5999C23.2 65.3878 23.1157 65.1843 22.9657 65.0343C22.8157 64.8842 22.6122 64.7999 22.4 64.7999ZM27.2 64.7999C26.9878 64.7999 26.7843 64.8842 26.6343 65.0343C26.4843 65.1843 26.4 65.3878 26.4 65.5999C26.4 65.8121 26.4843 66.0156 26.6343 66.1656C26.7843 66.3157 26.9878 66.3999 27.2 66.3999C27.4122 66.3999 27.6157 66.3157 27.7657 66.1656C27.9157 66.0156 28 65.8121 28 65.5999C28 65.3878 27.9157 65.1843 27.7657 65.0343C27.6157 64.8842 27.4122 64.7999 27.2 64.7999ZM48 64.7999C47.7878 64.7999 47.5843 64.8842 47.4343 65.0343C47.2843 65.1843 47.2 65.3878 47.2 65.5999C47.2 65.8121 47.2843 66.0156 47.4343 66.1656C47.5843 66.3157 47.7878 66.3999 48 66.3999C48.2122 66.3999 48.4157 66.3157 48.5657 66.1656C48.7157 66.0156 48.8 65.8121 48.8 65.5999C48.8 65.3878 48.7157 65.1843 48.5657 65.0343C48.4157 64.8842 48.2122 64.7999 48 64.7999ZM52.8 64.7999C52.5878 64.7999 52.3843 64.8842 52.2343 65.0343C52.0843 65.1843 52 65.3878 52 65.5999C52 65.8121 52.0843 66.0156 52.2343 66.1656C52.3843 66.3157 52.5878 66.3999 52.8 66.3999C53.0122 66.3999 53.2157 66.3157 53.3657 66.1656C53.5157 66.0156 53.6 65.8121 53.6 65.5999C53.6 65.3878 53.5157 65.1843 53.3657 65.0343C53.2157 64.8842 53.0122 64.7999 52.8 64.7999Z" fill="url(#paint1_linear_33_736)"/>
<defs>
<linearGradient id="paint0_linear_33_736" x1="0" y1="0" x2="95.8732" y2="78.3681" gradientUnits="userSpaceOnUse">
<stop stop-color="#EF6B2A" stop-opacity="0"/>
<stop offset="1" stop-color="#F1BC62" stop-opacity="0.6"/>
</linearGradient>
<linearGradient id="paint1_linear_33_736" x1="16" y1="19.2" x2="70.9625" y2="69.9241" gradientUnits="userSpaceOnUse">
<stop stop-color="#EF6B2A"/>
<stop offset="1" stop-color="#F1BC62"/>
</linearGradient>
</defs>
</svg>
