<svg width="88" height="88" viewBox="0 0 88 88" fill="none" xmlns="http://www.w3.org/2000/svg">
<rect width="88" height="88" rx="44" fill="url(#paint0_linear_33_733)"/>
<path d="M21.6 18.3999V19.1999V22.3999H18.4V23.1999V26.3999H16V66.3999H48.3453C48.2325 65.8751 48.1435 65.3431 48.0859 64.7999H17.6V34.0265L40.7984 50.1937C42.7196 51.5332 45.2801 51.5326 47.2016 50.1937L70.4 34.0265V49.8187C70.9576 50.1203 71.4872 50.4632 72 50.8296V26.3999H69.6V22.3999H66.4V18.3999H21.6ZM23.2 19.9999H64.8V22.3999H23.2V19.9999ZM20 23.9999H21.6H66.4H68V26.3999H20V23.9999ZM17.6 27.9999H70.4V32.0765L46.2875 48.8812C44.9115 49.8406 43.0901 49.8406 41.7141 48.8812L17.6 32.0765V27.9999ZM21.6 37.5999C21.3878 37.5999 21.1843 37.6842 21.0343 37.8342C20.8843 37.9842 20.8 38.1877 20.8 38.3999C20.8 38.6121 20.8843 38.8156 21.0343 38.9656C21.1843 39.1156 21.3878 39.1999 21.6 39.1999C21.8122 39.1999 22.0157 39.1156 22.1657 38.9656C22.3157 38.8156 22.4 38.6121 22.4 38.3999C22.4 38.1877 22.3157 37.9842 22.1657 37.8342C22.0157 37.6842 21.8122 37.5999 21.6 37.5999ZM66.4 37.5999C66.1878 37.5999 65.9843 37.6842 65.8343 37.8342C65.6843 37.9842 65.6 38.1877 65.6 38.3999C65.6 38.6121 65.6843 38.8156 65.8343 38.9656C65.9843 39.1156 66.1878 39.1999 66.4 39.1999C66.6122 39.1999 66.8157 39.1156 66.9657 38.9656C67.1157 38.8156 67.2 38.6121 67.2 38.3999C67.2 38.1877 67.1157 37.9842 66.9657 37.8342C66.8157 37.6842 66.6122 37.5999 66.4 37.5999ZM21.6 40.7999C21.3878 40.7999 21.1843 40.8842 21.0343 41.0342C20.8843 41.1842 20.8 41.3877 20.8 41.5999C20.8 41.8121 20.8843 42.0156 21.0343 42.1656C21.1843 42.3156 21.3878 42.3999 21.6 42.3999C21.8122 42.3999 22.0157 42.3156 22.1657 42.1656C22.3157 42.0156 22.4 41.8121 22.4 41.5999C22.4 41.3877 22.3157 41.1842 22.1657 41.0342C22.0157 40.8842 21.8122 40.7999 21.6 40.7999ZM66.4 40.7999C66.1878 40.7999 65.9843 40.8842 65.8343 41.0342C65.6843 41.1842 65.6 41.3877 65.6 41.5999C65.6 41.8121 65.6843 42.0156 65.8343 42.1656C65.9843 42.3156 66.1878 42.3999 66.4 42.3999C66.6122 42.3999 66.8157 42.3156 66.9657 42.1656C67.1157 42.0156 67.2 41.8121 67.2 41.5999C67.2 41.3877 67.1157 41.1842 66.9657 41.0342C66.8157 40.8842 66.6122 40.7999 66.4 40.7999ZM21.6 43.9999C21.3878 43.9999 21.1843 44.0842 21.0343 44.2342C20.8843 44.3842 20.8 44.5877 20.8 44.7999C20.8 45.0121 20.8843 45.2156 21.0343 45.3656C21.1843 45.5156 21.3878 45.5999 21.6 45.5999C21.8122 45.5999 22.0157 45.5156 22.1657 45.3656C22.3157 45.2156 22.4 45.0121 22.4 44.7999C22.4 44.5877 22.3157 44.3842 22.1657 44.2342C22.0157 44.0842 21.8122 43.9999 21.6 43.9999ZM66.4 43.9999C66.1878 43.9999 65.9843 44.0842 65.8343 44.2342C65.6843 44.3842 65.6 44.5877 65.6 44.7999C65.6 45.0121 65.6843 45.2156 65.8343 45.3656C65.9843 45.5156 66.1878 45.5999 66.4 45.5999C66.6122 45.5999 66.8157 45.5156 66.9657 45.3656C67.1157 45.2156 67.2 45.0121 67.2 44.7999C67.2 44.5877 67.1157 44.3842 66.9657 44.2342C66.8157 44.0842 66.6122 43.9999 66.4 43.9999ZM21.6 47.1999C21.3878 47.1999 21.1843 47.2842 21.0343 47.4342C20.8843 47.5842 20.8 47.7877 20.8 47.9999C20.8 48.2121 20.8843 48.4156 21.0343 48.5656C21.1843 48.7156 21.3878 48.7999 21.6 48.7999C21.8122 48.7999 22.0157 48.7156 22.1657 48.5656C22.3157 48.4156 22.4 48.2121 22.4 47.9999C22.4 47.7877 22.3157 47.5842 22.1657 47.4342C22.0157 47.2842 21.8122 47.1999 21.6 47.1999ZM66.4 47.1999C66.1878 47.1999 65.9843 47.2842 65.8343 47.4342C65.6843 47.5842 65.6 47.7877 65.6 47.9999C65.6 48.2121 65.6843 48.4156 65.8343 48.5656C65.9843 48.7156 66.1878 48.7999 66.4 48.7999C66.6122 48.7999 66.8157 48.7156 66.9657 48.5656C67.1157 48.4156 67.2 48.2121 67.2 47.9999C67.2 47.7877 67.1157 47.5842 66.9657 47.4342C66.8157 47.2842 66.6122 47.1999 66.4 47.1999ZM21.6 50.3999C21.3878 50.3999 21.1843 50.4842 21.0343 50.6342C20.8843 50.7842 20.8 50.9877 20.8 51.1999C20.8 51.4121 20.8843 51.6156 21.0343 51.7656C21.1843 51.9156 21.3878 51.9999 21.6 51.9999C21.8122 51.9999 22.0157 51.9156 22.1657 51.7656C22.3157 51.6156 22.4 51.4121 22.4 51.1999C22.4 50.9877 22.3157 50.7842 22.1657 50.6342C22.0157 50.4842 21.8122 50.3999 21.6 50.3999ZM63.2 50.3999C56.1424 50.3999 50.4 56.1423 50.4 63.1999C50.4 70.2575 56.1424 75.9999 63.2 75.9999C70.2576 75.9999 76 70.2575 76 63.1999C76 56.1423 70.2576 50.3999 63.2 50.3999ZM63.2 51.9999C69.376 51.9999 74.4 57.0239 74.4 63.1999C74.4 69.3759 69.376 74.3999 63.2 74.3999C57.024 74.3999 52 69.3759 52 63.1999C52 57.0239 57.024 51.9999 63.2 51.9999ZM21.6 53.5999C21.3878 53.5999 21.1843 53.6842 21.0343 53.8342C20.8843 53.9842 20.8 54.1877 20.8 54.3999C20.8 54.6121 20.8843 54.8156 21.0343 54.9656C21.1843 55.1156 21.3878 55.1999 21.6 55.1999C21.8122 55.1999 22.0157 55.1156 22.1657 54.9656C22.3157 54.8156 22.4 54.6121 22.4 54.3999C22.4 54.1877 22.3157 53.9842 22.1657 53.8342C22.0157 53.6842 21.8122 53.5999 21.6 53.5999ZM21.6 56.7999C21.3878 56.7999 21.1843 56.8842 21.0343 57.0342C20.8843 57.1842 20.8 57.3877 20.8 57.5999C20.8 57.8121 20.8843 58.0156 21.0343 58.1656C21.1843 58.3156 21.3878 58.3999 21.6 58.3999C21.8122 58.3999 22.0157 58.3156 22.1657 58.1656C22.3157 58.0156 22.4 57.8121 22.4 57.5999C22.4 57.3877 22.3157 57.1842 22.1657 57.0342C22.0157 56.8842 21.8122 56.7999 21.6 56.7999ZM62.4 57.5999V62.3999H57.6V63.9999H62.4V68.7999H64V63.9999H68.8V62.3999H64V57.5999H62.4ZM21.6 59.9999C21.3878 59.9999 21.1843 60.0842 21.0343 60.2342C20.8843 60.3842 20.8 60.5877 20.8 60.7999C20.8 61.0121 20.8843 61.2156 21.0343 61.3656C21.1843 61.5156 21.3878 61.5999 21.6 61.5999C21.8122 61.5999 22.0157 61.5156 22.1657 61.3656C22.3157 61.2156 22.4 61.0121 22.4 60.7999C22.4 60.5877 22.3157 60.3842 22.1657 60.2342C22.0157 60.0842 21.8122 59.9999 21.6 59.9999ZM24.8 59.9999C24.5878 59.9999 24.3843 60.0842 24.2343 60.2342C24.0843 60.3842 24 60.5877 24 60.7999C24 61.0121 24.0843 61.2156 24.2343 61.3656C24.3843 61.5156 24.5878 61.5999 24.8 61.5999C25.0122 61.5999 25.2157 61.5156 25.3657 61.3656C25.5157 61.2156 25.6 61.0121 25.6 60.7999C25.6 60.5877 25.5157 60.3842 25.3657 60.2342C25.2157 60.0842 25.0122 59.9999 24.8 59.9999ZM28 59.9999C27.7878 59.9999 27.5843 60.0842 27.4343 60.2342C27.2843 60.3842 27.2 60.5877 27.2 60.7999C27.2 61.0121 27.2843 61.2156 27.4343 61.3656C27.5843 61.5156 27.7878 61.5999 28 61.5999C28.2122 61.5999 28.4157 61.5156 28.5657 61.3656C28.7157 61.2156 28.8 61.0121 28.8 60.7999C28.8 60.5877 28.7157 60.3842 28.5657 60.2342C28.4157 60.0842 28.2122 59.9999 28 59.9999ZM31.2 59.9999C30.9878 59.9999 30.7843 60.0842 30.6343 60.2342C30.4843 60.3842 30.4 60.5877 30.4 60.7999C30.4 61.0121 30.4843 61.2156 30.6343 61.3656C30.7843 61.5156 30.9878 61.5999 31.2 61.5999C31.4122 61.5999 31.6157 61.5156 31.7657 61.3656C31.9157 61.2156 32 61.0121 32 60.7999C32 60.5877 31.9157 60.3842 31.7657 60.2342C31.6157 60.0842 31.4122 59.9999 31.2 59.9999ZM34.4 59.9999C34.1878 59.9999 33.9843 60.0842 33.8343 60.2342C33.6843 60.3842 33.6 60.5877 33.6 60.7999C33.6 61.0121 33.6843 61.2156 33.8343 61.3656C33.9843 61.5156 34.1878 61.5999 34.4 61.5999C34.6122 61.5999 34.8157 61.5156 34.9657 61.3656C35.1157 61.2156 35.2 61.0121 35.2 60.7999C35.2 60.5877 35.1157 60.3842 34.9657 60.2342C34.8157 60.0842 34.6122 59.9999 34.4 59.9999ZM37.6 59.9999C37.3878 59.9999 37.1843 60.0842 37.0343 60.2342C36.8843 60.3842 36.8 60.5877 36.8 60.7999C36.8 61.0121 36.8843 61.2156 37.0343 61.3656C37.1843 61.5156 37.3878 61.5999 37.6 61.5999C37.8122 61.5999 38.0157 61.5156 38.1657 61.3656C38.3157 61.2156 38.4 61.0121 38.4 60.7999C38.4 60.5877 38.3157 60.3842 38.1657 60.2342C38.0157 60.0842 37.8122 59.9999 37.6 59.9999ZM40.8 59.9999C40.5878 59.9999 40.3843 60.0842 40.2343 60.2342C40.0843 60.3842 40 60.5877 40 60.7999C40 61.0121 40.0843 61.2156 40.2343 61.3656C40.3843 61.5156 40.5878 61.5999 40.8 61.5999C41.0122 61.5999 41.2157 61.5156 41.3657 61.3656C41.5157 61.2156 41.6 61.0121 41.6 60.7999C41.6 60.5877 41.5157 60.3842 41.3657 60.2342C41.2157 60.0842 41.0122 59.9999 40.8 59.9999ZM44 59.9999C43.7878 59.9999 43.5843 60.0842 43.4343 60.2342C43.2843 60.3842 43.2 60.5877 43.2 60.7999C43.2 61.0121 43.2843 61.2156 43.4343 61.3656C43.5843 61.5156 43.7878 61.5999 44 61.5999C44.2122 61.5999 44.4157 61.5156 44.5657 61.3656C44.7157 61.2156 44.8 61.0121 44.8 60.7999C44.8 60.5877 44.7157 60.3842 44.5657 60.2342C44.4157 60.0842 44.2122 59.9999 44 59.9999ZM47.2 59.9999C46.9878 59.9999 46.7843 60.0842 46.6343 60.2342C46.4843 60.3842 46.4 60.5877 46.4 60.7999C46.4 61.0121 46.4843 61.2156 46.6343 61.3656C46.7843 61.5156 46.9878 61.5999 47.2 61.5999C47.4122 61.5999 47.6157 61.5156 47.7657 61.3656C47.9157 61.2156 48 61.0121 48 60.7999C48 60.5877 47.9157 60.3842 47.7657 60.2342C47.6157 60.0842 47.4122 59.9999 47.2 59.9999Z" fill="url(#paint1_linear_33_733)"/>
<defs>
<linearGradient id="paint0_linear_33_733" x1="0" y1="0" x2="95.8732" y2="78.3681" gradientUnits="userSpaceOnUse">
<stop stop-color="#EF6B2A" stop-opacity="0"/>
<stop offset="1" stop-color="#F1BC62" stop-opacity="0.6"/>
</linearGradient>
<linearGradient id="paint1_linear_33_733" x1="16" y1="18.3999" x2="79.2142" y2="72.2251" gradientUnits="userSpaceOnUse">
<stop stop-color="#EF6B2A"/>
<stop offset="1" stop-color="#F1BC62"/>
</linearGradient>
</defs>
</svg>
