<svg width="88" height="88" viewBox="0 0 88 88" fill="none" xmlns="http://www.w3.org/2000/svg">
<rect width="88" height="88" rx="44" fill="url(#paint0_linear_33_730)"/>
<path d="M38 14C35.7969 14 32.6484 14.6875 30.6914 16.0078C26.9688 16.1445 24.4219 18.7578 24.0039 22.9023C23.75 25.4609 23.9844 27.293 24.1367 28.5039C24.1914 28.9258 24.25 29.4023 24.2305 29.543C24.1992 29.7305 24.168 29.918 24.1406 30.1055C23.9766 30.1133 23.8281 30.1367 23.7031 30.1719C22.0547 30.6133 21.3633 33.0234 22.1016 35.7773C22.6367 37.7734 23.7578 39.2734 24.9844 39.7344C25.6172 41.6719 26.5469 43.5977 27.7031 45.332L18.4844 50.6719C14.4844 52.9844 12 57.2969 12 61.918V69C12 70.6523 13.3477 72 15 72H53.6406C56.0078 74.4609 59.3242 76 63 76C70.168 76 76 70.168 76 63C76 55.832 70.168 50 63 50C61.2305 50 59.543 50.3594 58.0039 51C57.8359 50.8945 57.6875 50.7695 57.5156 50.6719L48.2969 45.332C49.4531 43.5977 50.3828 41.6719 51.0156 39.7344C52.2422 39.2734 53.3633 37.7773 53.8984 35.7773C54.6367 33.0234 53.9453 30.6133 52.2969 30.1719C52.1719 30.1406 52.0273 30.1133 51.8633 30.1055C51.7227 29.0352 51.4492 28.0352 50.9453 26.668C50.9297 26.6289 50.918 26.5938 50.9062 26.5625C51.2617 26.5898 51.8242 26.7344 52.2852 26.9219C52.6328 27.0664 53.0273 27.0078 53.3125 26.7656C53.5977 26.5273 53.7266 26.1484 53.6484 25.7852C52.0352 18.4063 46.5586 14 39 14H38ZM38 16H39C45.0703 16 49.4531 19.1016 51.25 24.582C50.5625 24.5078 49.8437 24.5898 49.3555 25.0625C48.9727 25.4258 48.6133 26.125 49.0664 27.3594C49.6836 29.0352 49.9023 30.0273 49.9688 31.4336C49.9844 31.793 50.1953 32.1133 50.5117 32.2773C50.8281 32.4375 51.2109 32.418 51.5117 32.2227C51.6758 32.1172 51.7617 32.1055 51.7812 32.1055C52.0234 32.1875 52.4609 33.4062 51.9648 35.2617C51.4727 37.1016 50.5273 37.8789 50.2344 37.8789C49.7891 37.832 49.4023 38.1719 49.2773 38.5938C47.5898 44.2617 43.1758 50 38 50C32.8242 50 28.4102 44.2617 26.7227 38.5938C26.5977 38.1719 26.2109 37.8789 25.7656 37.8789C25.4727 37.8789 24.5273 37.1016 24.0352 35.2617C23.5352 33.3906 23.9844 32.168 24.2148 32.1055C24.2187 32.1055 24.3047 32.1055 24.4844 32.2227C24.7852 32.418 25.1719 32.4375 25.4883 32.2773C25.8086 32.1133 26.0117 31.793 26.0312 31.4336C26.0547 30.9141 26.1094 30.3945 26.1992 29.8906C26.2734 29.4609 26.2148 28.9805 26.1211 28.25C25.9766 27.1289 25.7617 25.4336 25.9961 23.1016C26.3125 19.9102 28.1836 18 31.0156 18C31.2344 18 31.4414 17.9297 31.6172 17.8008C32.9883 16.7734 35.7305 16 38 16ZM32.5273 22.125C31.8125 22.0625 31.0937 22.3867 30.6836 23.0156L29.0781 25.4492C28.7734 25.9102 28.9023 26.5313 29.3633 26.8359C29.5352 26.9492 29.7227 27 29.9102 27C30.2383 27 30.5547 26.8438 30.75 26.5508L32.3516 24.1172L33.9141 24.8789C36.7617 26.2656 39.9414 27 43.1094 27H45.668C46.2187 27 46.668 26.5508 46.668 26C46.668 25.4492 46.2187 25 45.668 25H43.1094C40.2461 25 37.3672 24.3359 34.793 23.0781L33.2305 22.3164C33.0039 22.207 32.7656 22.1445 32.5273 22.125ZM28.9062 46.9414C31.3398 49.9102 34.5039 52 38 52C41.4961 52 44.6562 49.9141 47.0898 46.9453L55.9688 52.082C52.3828 54.4023 50 58.4258 50 63C50 65.5781 50.7617 67.9766 52.0625 70H15C14.4492 70 14 69.5508 14 69V61.918C14 58.0078 16.1016 54.3594 19.4883 52.3984L28.9062 46.9414ZM45.9375 52C45.8086 52.0078 45.6758 52.043 45.5508 52.1055L38 55.8828L30.4492 52.1055C29.9531 51.8594 29.3516 52.0586 29.1055 52.5508C28.8594 53.0469 29.0586 53.6484 29.5508 53.8945L37.5508 57.8945C37.6953 57.9648 37.8477 58 38 58C38.1523 58 38.3086 57.9648 38.4492 57.8945L46.4492 53.8945C46.9414 53.6484 47.1406 53.0469 46.8945 52.5508C46.7109 52.1836 46.3281 51.9766 45.9375 52ZM63 52C69.0664 52 74 56.9336 74 63C74 69.0664 69.0664 74 63 74C56.9336 74 52 69.0664 52 63C52 56.9336 56.9336 52 63 52ZM63 56C62.4492 56 62 56.4492 62 57V62H57C56.4492 62 56 62.4492 56 63C56 63.5508 56.4492 64 57 64H62V69C62 69.5508 62.4492 70 63 70C63.5508 70 64 69.5508 64 69V64H69C69.5508 64 70 63.5508 70 63C70 62.4492 69.5508 62 69 62H64V57C64 56.4492 63.5508 56 63 56ZM18 64C17.4492 64 17 64.4492 17 65V67C17 67.5508 17.4492 68 18 68C18.5508 68 19 67.5508 19 67V65C19 64.4492 18.5508 64 18 64ZM23 64C22.4492 64 22 64.4492 22 65V67C22 67.5508 22.4492 68 23 68C23.5508 68 24 67.5508 24 67V65C24 64.4492 23.5508 64 23 64ZM28 64C27.4492 64 27 64.4492 27 65V67C27 67.5508 27.4492 68 28 68C28.5508 68 29 67.5508 29 67V65C29 64.4492 28.5508 64 28 64ZM33 64C32.4492 64 32 64.4492 32 65V67C32 67.5508 32.4492 68 33 68C33.5508 68 34 67.5508 34 67V65C34 64.4492 33.5508 64 33 64ZM38 64C37.4492 64 37 64.4492 37 65V67C37 67.5508 37.4492 68 38 68C38.5508 68 39 67.5508 39 67V65C39 64.4492 38.5508 64 38 64ZM43 64C42.4492 64 42 64.4492 42 65V67C42 67.5508 42.4492 68 43 68C43.5508 68 44 67.5508 44 67V65C44 64.4492 43.5508 64 43 64ZM48 64C47.4492 64 47 64.4492 47 65V67C47 67.5508 47.4492 68 48 68C48.5508 68 49 67.5508 49 67V65C49 64.4492 48.5508 64 48 64Z" fill="url(#paint1_linear_33_730)"/>
<defs>
<linearGradient id="paint0_linear_33_730" x1="0" y1="0" x2="95.8732" y2="78.3681" gradientUnits="userSpaceOnUse">
<stop stop-color="#EF6B2A" stop-opacity="0"/>
<stop offset="1" stop-color="#F1BC62" stop-opacity="0.6"/>
</linearGradient>
<linearGradient id="paint1_linear_33_730" x1="12" y1="14" x2="79.942" y2="71.3282" gradientUnits="userSpaceOnUse">
<stop stop-color="#EF6B2A"/>
<stop offset="1" stop-color="#F1BC62"/>
</linearGradient>
</defs>
</svg>
