<svg width="430" height="748" viewBox="0 0 430 748" fill="none" xmlns="http://www.w3.org/2000/svg">
<g clip-path="url(#clip0_33_740)">
<path d="M514.288 800.498C539.681 779.604 536.597 734.757 517.736 706.228C498.876 677.7 469.186 660.52 442.371 640.872C415.556 621.225 389.082 595.216 383.67 560.778C376.761 516.763 406.544 473.288 397.934 429.592C391.223 395.536 362.838 372.044 334.257 360.165C318.093 353.446 300.062 352.297 283.505 347.059C208.406 323.318 149.131 379.212 100.271 343.195C47.3671 304.197 45.0841 255.009 51.7253 230.02C60.2338 198.011 92.1358 125.826 169.909 137.294C201.505 141.948 233.791 145.38 265.162 140.181C312.141 132.399 354.19 87.5053 352.213 35.854C350.858 0.458981 330.486 -34.5168 338.984 -68.5601C344.693 -91.4336 363.118 -108.674 383.827 -116.18C404.537 -123.685 427.259 -122.594 448.885 -118.165" stroke="url(#paint0_linear_33_740)" stroke-width="0.825937" stroke-miterlimit="10"/>
<path d="M512.15 800.573C537.325 778.034 535.357 732.271 516.318 702.491C497.28 672.712 467.725 655.765 440.424 636.635C413.446 617.729 386.825 593.207 380.282 560.106C371.957 517.793 398.8 474.951 390.008 431.508C382.939 396.976 356.337 372.452 328.443 358.839C312.417 351.023 294.099 348.471 276.952 342.779C204.27 318.639 146.199 371.911 98.3359 336.748C46.8713 298.909 43.5638 251.088 49.6484 225.99C57.3482 194.182 88.2641 124.822 163.251 134.057C194.162 137.868 226.104 140.281 257.154 134.969C302.905 127.246 343.759 84.2877 342.97 34.3918C342.424 -0.131207 323.648 -34.7613 331.935 -68.4671C337.566 -91.5478 355.165 -109.158 375.142 -117.706C395.12 -126.255 417.767 -126.904 439.554 -123.719" stroke="url(#paint1_linear_33_740)" stroke-width="0.825937" stroke-miterlimit="10"/>
<path d="M510.012 800.659C534.981 776.473 534.119 729.805 514.901 698.755C496.576 669.162 466.274 651.009 438.478 632.398C410.681 613.787 384.569 591.198 376.893 559.424C367.154 518.823 391.137 476.577 382.089 433.404C374.737 398.378 349.829 372.789 322.628 357.493C306.727 348.551 288.134 344.625 270.406 338.468C200.135 314.053 143.274 364.579 96.4067 330.27C46.3819 293.589 42.0601 247.145 47.5686 221.929C54.4805 190.341 84.4052 123.757 156.59 130.8C186.844 133.755 218.416 135.161 249.144 129.737C293.668 122.072 333.334 81.0291 333.733 32.8987C334.005 -0.763353 316.816 -35.0368 324.9 -68.4161C330.456 -91.6939 347.244 -109.706 366.472 -119.275C386.095 -129.046 408.281 -131.246 430.247 -129.315" stroke="url(#paint2_linear_33_740)" stroke-width="0.825937" stroke-miterlimit="10"/>
<path d="M507.884 800.743C532.637 774.922 532.873 727.339 513.484 695.028C495.41 664.91 464.824 646.263 436.541 628.16C409.252 610.705 382.321 589.188 373.515 558.751C362.352 519.863 383.439 478.225 374.172 435.319C366.5 399.803 343.319 373.105 316.814 356.168C301.038 346.079 282.172 340.809 263.852 334.178C195.963 309.582 140.341 357.268 94.4703 323.813C45.8852 288.291 40.5492 243.223 45.4918 217.899C51.6157 186.53 80.5817 122.666 149.932 127.563C179.546 129.65 210.711 129.97 241.137 124.536C284.411 116.798 322.939 77.7874 324.49 31.4362C325.589 -1.36573 310.056 -35.2584 317.859 -68.3343C323.396 -91.8045 339.315 -110.233 357.796 -120.813C376.883 -131.739 398.797 -135.568 420.925 -134.879" stroke="url(#paint3_linear_33_740)" stroke-width="0.825937" stroke-miterlimit="10"/>
<path d="M505.746 800.828C530.292 773.361 531.618 724.895 512.067 691.301C494.244 660.668 463.392 641.505 434.595 623.932C405.799 606.359 380.065 587.189 370.118 558.079C357.539 520.893 375.711 479.866 366.235 437.226C358.233 401.22 336.795 373.382 310.989 354.822C295.334 343.566 276.201 336.994 257.287 329.868C191.761 305.185 137.388 349.939 92.5223 317.337C45.3759 282.962 39.0275 239.292 43.3931 213.84C48.7392 182.7 76.7695 121.504 143.243 124.308C172.227 125.526 202.983 124.833 233.098 119.306C275.143 111.596 312.521 74.507 315.225 29.9452C317.159 -2.0178 303.215 -35.5335 310.786 -68.2802C316.257 -91.9484 331.352 -110.818 349.087 -122.389C366.822 -133.96 389.282 -139.918 411.579 -140.483" stroke="url(#paint4_linear_33_740)" stroke-width="0.825937" stroke-miterlimit="10"/>
<path d="M503.618 800.913C527.947 771.8 530.364 722.451 510.66 687.574C493.07 656.437 461.969 636.747 432.659 619.704C405.094 603.667 377.775 585.214 366.74 557.416C352.684 521.969 367.996 481.527 358.318 439.142C349.986 402.647 330.305 373.615 305.176 353.497C289.641 341.064 270.232 333.199 250.742 325.578C187.56 300.892 134.465 342.628 90.5859 310.88C44.8792 277.664 37.527 235.379 41.3154 209.799C45.8838 178.889 73.0108 120.306 136.585 121.071C164.966 121.407 195.293 119.703 225.09 114.095C265.904 106.412 302.16 71.2319 305.981 28.4834C308.768 -2.65267 296.397 -35.7694 303.745 -68.1979C309.15 -92.0641 323.429 -111.386 340.411 -123.926C358.438 -137.233 379.789 -144.238 402.257 -146.047" stroke="url(#paint5_linear_33_740)" stroke-width="0.825937" stroke-miterlimit="10"/>
<path d="M501.481 800.998C525.604 770.25 529.082 720.01 509.233 683.838C491.867 652.199 460.525 631.97 430.704 615.468C403.01 600.138 375.5 583.217 363.343 556.735C347.863 523.011 360.259 483.17 350.391 441.048C341.73 404.074 323.802 373.818 299.352 352.162C283.954 338.519 264.263 329.404 244.179 321.288C183.33 296.682 131.523 335.318 88.6402 304.424C44.3733 272.366 36.0264 231.466 39.22 205.771C43.0303 175.097 69.2564 119.056 129.908 117.836C157.694 117.279 187.586 114.585 217.054 108.886C256.629 101.231 291.798 67.9462 296.719 27.0128C300.366 -3.30737 289.559 -36.0241 296.676 -68.1133C302.014 -92.1776 315.466 -111.981 331.706 -125.461C349.201 -139.984 370.278 -148.548 392.916 -151.609" stroke="url(#paint6_linear_33_740)" stroke-width="0.825937" stroke-miterlimit="10"/>
<path d="M499.351 801.072C523.257 768.679 527.808 717.568 507.824 680.101C490.684 647.969 459.119 627.189 428.774 611.218C400.95 596.577 373.253 581.207 359.972 556.051C343.069 524.04 352.541 484.81 342.481 442.942C333.48 405.48 317.342 373.977 293.555 350.815C278.292 335.952 258.313 325.618 237.642 316.976C179.103 292.513 128.607 327.985 86.72 297.945C43.8836 267.047 34.5616 227.54 37.1584 201.708C40.22 171.271 65.585 109.281 123.266 114.577C150.482 117.071 179.904 109.444 209.063 103.652C247.408 96.0356 281.508 64.623 287.491 25.5185C292.007 -3.99674 282.747 -36.2915 289.65 -68.0633C294.921 -92.3358 307.543 -112.631 323.045 -127.031C340.006 -142.79 360.809 -152.901 383.609 -157.206" stroke="url(#paint7_linear_33_740)" stroke-width="0.825937" stroke-miterlimit="10"/>
<path d="M497.214 801.157C520.904 767.118 526.528 715.146 506.408 676.374C489.474 643.752 457.693 622.4 426.829 606.991C398.884 593.036 370.998 579.218 356.586 555.388C338.26 525.1 344.807 486.472 334.556 444.868C325.208 406.929 310.875 374.146 287.732 349.489C272.613 333.386 252.338 321.854 231.088 312.686C174.846 288.419 125.675 320.674 84.7838 291.488C43.3871 261.748 33.0809 223.635 35.0726 197.678C37.3865 167.488 61.6931 107.196 116.599 111.341C143.356 113.368 172.207 104.324 201.046 98.4509C238.163 90.8826 271.229 61.3189 278.249 24.0662C283.661 -4.65702 275.919 -36.5271 282.601 -67.9706C287.805 -92.4411 299.587 -113.247 314.361 -128.558C330.775 -145.573 351.309 -157.202 374.287 -162.77" stroke="url(#paint8_linear_33_740)" stroke-width="0.825937" stroke-miterlimit="10"/>
<path d="M495.086 801.242C518.569 765.567 525.238 712.716 504.99 672.637C488.262 639.525 456.284 617.599 424.883 602.754C396.816 589.485 368.742 577.219 353.197 554.706C333.456 526.13 337.062 488.126 326.628 446.765C316.94 408.336 304.43 374.272 281.907 348.145C266.949 330.799 246.362 318.091 224.523 308.377C170.555 284.369 122.731 313.344 82.8357 285.012C42.8787 256.43 31.5985 219.721 32.9831 193.618C34.5679 163.673 57.7765 105.154 109.929 108.084C136.275 109.569 164.498 99.196 193.027 93.2199C228.915 85.6996 260.976 57.9921 268.993 22.5746C275.319 -5.35835 269.078 -36.8019 275.547 -67.918C280.676 -92.5856 291.616 -113.923 305.662 -130.125C321.521 -148.404 341.803 -161.552 364.952 -168.364" stroke="url(#paint9_linear_33_740)" stroke-width="0.825937" stroke-miterlimit="10"/>
<path d="M492.949 801.327C516.215 764.007 523.931 710.308 503.573 668.91C487.053 635.318 454.877 612.808 422.947 598.525C394.766 585.922 366.497 575.219 349.811 554.044C328.657 527.19 329.318 489.789 318.702 448.681C308.657 409.776 297.996 374.397 276.094 346.819C261.305 328.21 240.391 314.368 217.97 304.087C166.262 280.39 119.799 306.033 80.8904 278.556C42.3731 251.132 30.1283 215.826 30.8872 189.58C31.7532 159.888 53.825 103.228 103.252 104.849C129.235 105.694 156.792 94.0877 185 88.01C219.661 80.5376 250.753 54.6726 259.74 21.1031C267.008 -6.05242 262.231 -37.0557 268.496 -67.8453C273.548 -92.7201 283.636 -114.588 296.976 -131.672C312.258 -151.234 332.31 -165.883 355.62 -173.938" stroke="url(#paint10_linear_33_740)" stroke-width="0.825937" stroke-miterlimit="10"/>
<path d="M490.82 801.412C513.88 762.445 522.632 707.889 502.166 665.183C485.835 631.112 453.478 607.997 421.011 594.297C392.716 582.359 364.261 573.228 346.432 553.371C323.864 528.229 321.574 491.443 310.794 450.596C300.401 411.203 291.607 374.508 270.29 345.492C255.688 325.618 234.42 310.655 211.436 299.805C161.975 276.463 116.886 298.731 78.9736 272.107C41.8961 245.842 28.6865 211.938 28.8207 185.558C28.9679 156.121 50.9247 111.434 96.6043 101.621C121.697 96.225 149.106 88.988 177.002 82.8076C210.436 75.3933 240.605 51.3664 250.507 19.6504C258.736 -6.71949 255.413 -37.2917 261.457 -67.7428C266.433 -92.8147 275.658 -115.243 288.302 -133.189C303.005 -154.055 322.82 -170.173 346.308 -179.482" stroke="url(#paint11_linear_33_740)" stroke-width="0.825937" stroke-miterlimit="10"/>
<path d="M488.683 801.497C511.526 760.895 521.306 705.482 500.74 661.457C484.597 626.908 452.068 603.185 419.055 590.06C390.654 578.777 361.995 571.23 343.035 552.699C319.061 529.269 313.81 493.097 302.857 452.502C292.107 412.634 285.197 374.6 264.455 344.148C250.049 322.997 228.411 306.935 204.861 295.496C157.631 272.55 113.884 291.488 77.016 265.632C40.1477 239.775 27.2226 208.021 26.7217 181.499C26.1678 152.303 47.2628 109.592 89.9248 98.3654C114.509 91.894 141.398 83.8692 168.964 77.5779C201.171 70.2318 230.455 48.0392 241.242 18.1591C250.47 -7.41854 248.553 -37.5653 254.393 -67.6899C259.293 -92.969 267.636 -115.946 279.603 -134.756C293.7 -156.922 313.314 -174.524 336.964 -185.076" stroke="url(#paint12_linear_33_740)" stroke-width="0.825937" stroke-miterlimit="10"/>
<path d="M486.553 801.571C509.19 759.323 519.988 703.065 499.33 657.709C483.376 622.682 450.673 598.332 417.117 585.812C388.609 575.173 359.756 569.209 339.654 552.006C314.266 530.287 306.054 494.742 294.938 454.398C283.822 414.053 278.823 374.678 258.639 342.802C244.438 320.373 222.414 303.245 198.305 291.186C153.282 268.669 110.94 284.158 75.0783 259.165C40.8312 235.292 25.788 204.113 24.6335 177.449C23.3887 148.505 43.6089 107.637 83.255 95.1092C107.324 87.502 133.7 78.7501 160.944 72.3469C191.925 65.069 220.373 44.7265 231.986 16.6676C242.251 -8.12148 241.693 -37.8382 247.33 -67.6363C252.154 -93.1227 259.605 -116.646 270.905 -136.322C284.385 -159.798 303.809 -178.864 327.629 -190.67" stroke="url(#paint13_linear_33_740)" stroke-width="0.825937" stroke-miterlimit="10"/>
<path d="M484.416 801.656C506.836 757.762 518.653 700.659 497.914 653.982C482.14 618.488 449.272 593.5 415.181 581.584C386.566 571.579 357.52 567.208 336.278 551.343C309.484 531.335 298.302 496.406 287.022 456.313C275.538 415.483 272.472 374.785 252.836 341.476C238.858 317.768 216.413 299.597 191.77 286.894C148.947 264.838 108.027 276.845 73.161 252.706C40.3537 229.992 24.3738 200.212 22.5758 173.417C20.6495 144.723 39.9563 105.59 76.6075 91.8813C100.155 83.0775 126.025 73.6695 152.948 67.1544C182.703 59.9549 210.344 41.4698 222.754 15.2145C234.086 -8.75836 234.866 -38.0838 240.3 -67.5452C245.038 -93.2278 251.597 -117.319 262.239 -137.851C275.092 -162.646 294.336 -183.177 318.317 -196.225" stroke="url(#paint14_linear_33_740)" stroke-width="0.825937" stroke-miterlimit="10"/>
<path d="M482.288 801.741C504.491 756.202 517.327 698.253 496.497 650.256C480.893 614.285 447.878 588.657 413.235 577.357C384.512 567.986 355.273 565.208 332.88 550.672C304.681 532.365 290.53 498.072 279.094 458.219C267.244 416.914 266.118 374.872 247.012 340.141C233.258 315.154 210.384 295.961 185.206 282.595C144.567 261.032 105.084 269.526 71.2047 246.241C39.8371 224.686 22.939 196.303 20.4687 169.369C17.8599 140.916 36.2144 103.408 69.9199 88.6373C92.9198 78.5577 118.301 68.5737 144.911 61.9358C173.441 54.8145 200.324 38.2229 213.49 13.7445C225.931 -9.38538 227.999 -38.3352 233.239 -67.4711C237.891 -93.36 243.548 -118.018 253.543 -139.396C265.75 -165.509 284.824 -187.496 308.984 -201.798" stroke="url(#paint15_linear_33_740)" stroke-width="0.825937" stroke-miterlimit="10"/>
<path d="M480.15 801.826C502.147 754.651 515.974 695.859 495.079 646.519C479.647 610.081 446.472 583.784 411.289 573.12C382.467 564.372 353.026 563.198 329.493 550C299.887 533.394 282.758 499.739 271.168 460.136C258.944 418.366 259.784 374.967 241.188 338.806C227.677 312.538 204.339 292.358 178.643 278.306C140.173 257.268 102.151 262.205 69.259 239.785C39.3302 219.378 21.5141 192.393 18.3818 165.33C15.1091 137.114 32.4351 101.128 63.2514 85.3911C85.6574 73.9482 110.606 63.4848 136.892 56.7148C164.207 49.6811 190.355 35.0014 204.236 12.263C217.826 -9.98706 221.139 -38.6083 226.178 -67.3974C230.744 -93.4926 235.481 -118.705 244.847 -140.942C256.389 -168.371 275.32 -191.826 299.643 -207.371" stroke="url(#paint16_linear_33_740)" stroke-width="0.825937" stroke-miterlimit="10"/>
<path d="M478.022 801.911C499.803 753.09 514.631 693.465 493.672 642.792C478.401 605.888 445.086 578.919 409.352 568.881C380.421 560.757 350.81 561.124 326.113 549.316C295.123 534.348 274.995 501.394 263.249 462.031C250.649 419.786 253.468 375.05 235.382 337.459C222.121 309.899 198.297 288.775 172.106 273.994C135.778 253.494 99.2756 254.807 67.3393 233.306C38.8909 213.992 20.1347 188.469 16.3124 161.278C12.3852 133.3 28.5984 98.7412 56.6015 82.1429C78.3489 69.251 102.931 58.4041 128.893 51.4919C154.855 44.5797 180.437 31.8259 195.009 10.7786C209.781 -10.5437 214.3 -38.8732 219.153 -67.3376C223.634 -93.6392 227.451 -119.406 236.187 -142.502C247.056 -171.245 265.854 -196.16 290.346 -212.958" stroke="url(#paint17_linear_33_740)" stroke-width="0.825937" stroke-miterlimit="10"/>
<path d="M475.884 801.996C497.458 751.529 513.268 691.072 492.246 639.066C477.136 601.687 443.68 574.047 407.406 564.654C378.374 557.133 348.554 559.125 322.726 548.654C290.322 535.398 267.214 503.071 255.324 463.957C242.339 421.239 247.154 375.163 229.559 336.145C216.56 307.301 192.214 285.267 165.543 269.715C131.351 249.784 96.3344 247.507 65.3941 226.86C38.3855 208.704 18.7381 184.566 14.2258 157.249C9.64409 129.508 24.6527 96.3034 49.9334 78.9068C70.9274 64.4627 95.2464 53.3347 120.865 46.282C145.742 39.4345 170.505 28.7131 185.747 9.31825C201.734 -11.0283 207.433 -39.1251 212.084 -67.2528C216.469 -93.7599 219.358 -120.07 227.482 -144.038C237.658 -174.093 256.333 -200.478 280.995 -218.52" stroke="url(#paint18_linear_33_740)" stroke-width="0.825937" stroke-miterlimit="10"/>
<path d="M473.756 802.08C495.114 749.978 511.906 688.68 490.838 635.338C475.89 597.494 442.291 569.162 405.47 560.426C376.327 553.508 346.309 557.135 319.348 547.981C285.528 536.427 259.378 504.754 247.415 465.862C233.964 422.708 240.857 375.255 223.754 334.808C211.017 304.692 186.124 281.78 158.998 265.414C126.923 246.064 93.41 240.185 63.4658 220.393C37.8969 203.394 17.3576 180.632 12.1479 153.208C6.93818 125.784 20.5884 93.8055 43.2749 75.6697C63.4114 59.571 87.5635 48.2752 112.858 41.0803C136.513 34.3415 160.608 25.6582 176.513 7.85504C193.751 -11.4375 200.537 -39.3845 205.052 -67.1719C209.302 -93.9009 211.303 -120.738 218.805 -145.575C228.29 -176.934 246.85 -204.79 271.682 -224.085" stroke="url(#paint19_linear_33_740)" stroke-width="0.825937" stroke-miterlimit="10"/>
<path d="M471.618 802.155C492.768 748.407 510.461 686.305 489.42 631.591C474.579 593.307 440.9 564.247 403.523 556.178C374.278 549.863 344.051 555.115 315.95 547.299C280.715 537.458 251.624 506.408 239.477 467.759C225.669 424.119 234.551 375.347 217.928 333.453C205.471 302.052 179.972 278.33 152.433 261.105C122.448 242.349 90.457 232.856 61.5181 213.916C37.3797 198.077 15.9762 176.687 10.0589 149.148C4.1415 121.609 16.3713 91.2817 36.6044 72.4031C55.7245 54.5631 79.88 43.2056 104.838 35.839C127.28 29.2182 150.695 22.6254 167.257 6.35321C185.761 -11.8154 193.686 -39.6687 197.997 -67.1295C202.172 -94.0557 203.215 -121.444 210.116 -147.153C218.89 -179.812 237.353 -209.151 262.347 -229.689" stroke="url(#paint20_linear_33_740)" stroke-width="0.825937" stroke-miterlimit="10"/>
<path d="M469.489 802.24C490.423 746.846 509.162 683.886 488.003 627.865C473.359 589.091 439.501 559.343 401.586 551.94C372.228 546.209 341.804 553.105 312.57 546.616C275.921 538.487 243.878 508.051 231.559 469.664C217.403 425.547 228.264 375.447 212.114 332.117C199.937 299.442 173.799 274.954 145.887 256.804C117.976 238.653 87.5326 225.534 59.5804 207.449C36.8817 192.769 14.6049 172.751 7.97057 145.098C1.47729 118.024 11.9983 88.8038 29.9355 69.1569C47.8634 49.5109 72.198 38.1564 96.8192 30.6181C118.049 24.1152 140.77 19.6756 158.012 4.88092C177.781 -12.0919 186.856 -39.9242 190.946 -67.0466C195.036 -94.1791 195.122 -122.108 201.43 -148.69C209.485 -182.649 227.851 -213.461 253.024 -235.253" stroke="url(#paint21_linear_33_740)" stroke-width="0.825937" stroke-miterlimit="10"/>
</g>
<defs>
<linearGradient id="paint0_linear_33_740" x1="448.199" y1="-125.215" x2="-211.446" y2="203.569" gradientUnits="userSpaceOnUse">
<stop stop-color="#EF6B2A"/>
<stop offset="1" stop-color="#F1BC62"/>
</linearGradient>
<linearGradient id="paint1_linear_33_740" x1="445.446" y1="-128.912" x2="-213.579" y2="197.616" gradientUnits="userSpaceOnUse">
<stop stop-color="#EF6B2A"/>
<stop offset="1" stop-color="#F1BC62"/>
</linearGradient>
<linearGradient id="paint2_linear_33_740" x1="443.593" y1="-133.291" x2="-215.977" y2="192.014" gradientUnits="userSpaceOnUse">
<stop stop-color="#EF6B2A"/>
<stop offset="1" stop-color="#F1BC62"/>
</linearGradient>
<linearGradient id="paint3_linear_33_740" x1="441.71" y1="-138.16" x2="-218.55" y2="185.899" gradientUnits="userSpaceOnUse">
<stop stop-color="#EF6B2A"/>
<stop offset="1" stop-color="#F1BC62"/>
</linearGradient>
<linearGradient id="paint4_linear_33_740" x1="439.788" y1="-143.585" x2="-221.326" y2="179.204" gradientUnits="userSpaceOnUse">
<stop stop-color="#EF6B2A"/>
<stop offset="1" stop-color="#F1BC62"/>
</linearGradient>
<linearGradient id="paint5_linear_33_740" x1="437.838" y1="-149.529" x2="-224.259" y2="171.947" gradientUnits="userSpaceOnUse">
<stop stop-color="#EF6B2A"/>
<stop offset="1" stop-color="#F1BC62"/>
</linearGradient>
<linearGradient id="paint6_linear_33_740" x1="435.857" y1="-155.788" x2="-227.319" y2="164.384" gradientUnits="userSpaceOnUse">
<stop stop-color="#EF6B2A"/>
<stop offset="1" stop-color="#F1BC62"/>
</linearGradient>
<linearGradient id="paint7_linear_33_740" x1="433.897" y1="-162.099" x2="-230.384" y2="156.809" gradientUnits="userSpaceOnUse">
<stop stop-color="#EF6B2A"/>
<stop offset="1" stop-color="#F1BC62"/>
</linearGradient>
<linearGradient id="paint8_linear_33_740" x1="431.948" y1="-168.381" x2="-233.498" y2="149.362" gradientUnits="userSpaceOnUse">
<stop stop-color="#EF6B2A"/>
<stop offset="1" stop-color="#F1BC62"/>
</linearGradient>
<linearGradient id="paint9_linear_33_740" x1="430.01" y1="-174.695" x2="-236.66" y2="141.959" gradientUnits="userSpaceOnUse">
<stop stop-color="#EF6B2A"/>
<stop offset="1" stop-color="#F1BC62"/>
</linearGradient>
<linearGradient id="paint10_linear_33_740" x1="428.078" y1="-180.989" x2="-239.857" y2="134.649" gradientUnits="userSpaceOnUse">
<stop stop-color="#EF6B2A"/>
<stop offset="1" stop-color="#F1BC62"/>
</linearGradient>
<linearGradient id="paint11_linear_33_740" x1="426.174" y1="-187.254" x2="-243.06" y2="127.435" gradientUnits="userSpaceOnUse">
<stop stop-color="#EF6B2A"/>
<stop offset="1" stop-color="#F1BC62"/>
</linearGradient>
<linearGradient id="paint12_linear_33_740" x1="424.254" y1="-193.57" x2="-246.371" y2="120.268" gradientUnits="userSpaceOnUse">
<stop stop-color="#EF6B2A"/>
<stop offset="1" stop-color="#F1BC62"/>
</linearGradient>
<linearGradient id="paint13_linear_33_740" x1="422.361" y1="-199.888" x2="-249.667" y2="113.133" gradientUnits="userSpaceOnUse">
<stop stop-color="#EF6B2A"/>
<stop offset="1" stop-color="#F1BC62"/>
</linearGradient>
<linearGradient id="paint14_linear_33_740" x1="420.47" y1="-206.165" x2="-252.988" y2="106.095" gradientUnits="userSpaceOnUse">
<stop stop-color="#EF6B2A"/>
<stop offset="1" stop-color="#F1BC62"/>
</linearGradient>
<linearGradient id="paint15_linear_33_740" x1="418.593" y1="-212.464" x2="-256.412" y2="99.1615" gradientUnits="userSpaceOnUse">
<stop stop-color="#EF6B2A"/>
<stop offset="1" stop-color="#F1BC62"/>
</linearGradient>
<linearGradient id="paint16_linear_33_740" x1="416.715" y1="-218.763" x2="-259.851" y2="92.2577" gradientUnits="userSpaceOnUse">
<stop stop-color="#EF6B2A"/>
<stop offset="1" stop-color="#F1BC62"/>
</linearGradient>
<linearGradient id="paint17_linear_33_740" x1="414.853" y1="-225.074" x2="-263.304" y2="85.3836" gradientUnits="userSpaceOnUse">
<stop stop-color="#EF6B2A"/>
<stop offset="1" stop-color="#F1BC62"/>
</linearGradient>
<linearGradient id="paint18_linear_33_740" x1="412.987" y1="-231.364" x2="-266.806" y2="78.5949" gradientUnits="userSpaceOnUse">
<stop stop-color="#EF6B2A"/>
<stop offset="1" stop-color="#F1BC62"/>
</linearGradient>
<linearGradient id="paint19_linear_33_740" x1="411.138" y1="-237.655" x2="-270.338" y2="71.8634" gradientUnits="userSpaceOnUse">
<stop stop-color="#EF6B2A"/>
<stop offset="1" stop-color="#F1BC62"/>
</linearGradient>
<linearGradient id="paint20_linear_33_740" x1="409.256" y1="-243.984" x2="-273.946" y2="65.1377" gradientUnits="userSpaceOnUse">
<stop stop-color="#EF6B2A"/>
<stop offset="1" stop-color="#F1BC62"/>
</linearGradient>
<linearGradient id="paint21_linear_33_740" x1="407.446" y1="-250.28" x2="-277.607" y2="58.5856" gradientUnits="userSpaceOnUse">
<stop stop-color="#EF6B2A"/>
<stop offset="1" stop-color="#F1BC62"/>
</linearGradient>
<clipPath id="clip0_33_740">
<rect width="430" height="748" fill="white"/>
</clipPath>
</defs>
</svg>
