<svg width="88" height="88" viewBox="0 0 88 88" fill="none" xmlns="http://www.w3.org/2000/svg">
<rect width="88" height="88" rx="44" fill="url(#paint0_linear_33_32)"/>
<path d="M44 13C26.8903 13 13 26.8903 13 44C13 61.1097 26.8903 75 44 75C61.1097 75 75 61.1097 75 44C75 26.8903 61.1097 13 44 13ZM44 14.8788C60.0944 14.8788 73.1212 27.9057 73.1212 44C73.1212 60.0943 60.0944 73.1212 44 73.1212C27.9057 73.1212 14.8788 60.0943 14.8788 44C14.8788 27.9057 27.9057 14.8788 44 14.8788ZM60.9091 23.3333C60.66 23.3333 60.421 23.4323 60.2449 23.6085C60.0687 23.7846 59.9697 24.0236 59.9697 24.2727C59.9697 24.5219 60.0687 24.7608 60.2449 24.937C60.421 25.1132 60.66 25.2121 60.9091 25.2121C61.1583 25.2121 61.3972 25.1132 61.5734 24.937C61.7495 24.7608 61.8485 24.5219 61.8485 24.2727C61.8485 24.0236 61.7495 23.7846 61.5734 23.6085C61.3972 23.4323 61.1583 23.3333 60.9091 23.3333ZM58.0909 26.1515C57.8418 26.1515 57.6029 26.2505 57.4267 26.4267C57.2505 26.6028 57.1515 26.8418 57.1515 27.0909C57.1515 27.3401 57.2505 27.579 57.4267 27.7552C57.6029 27.9313 57.8418 28.0303 58.0909 28.0303C58.3401 28.0303 58.579 27.9313 58.7552 27.7552C58.9314 27.579 59.0303 27.3401 59.0303 27.0909C59.0303 26.8418 58.9314 26.6028 58.7552 26.4267C58.579 26.2505 58.3401 26.1515 58.0909 26.1515ZM55.2728 28.9697C55.0236 28.9697 54.7847 29.0687 54.6085 29.2448C54.4323 29.421 54.3334 29.6599 54.3334 29.9091C54.3334 30.1582 54.4323 30.3972 54.6085 30.5733C54.7847 30.7495 55.0236 30.8485 55.2728 30.8485C55.5219 30.8485 55.7608 30.7495 55.937 30.5733C56.1132 30.3972 56.2122 30.1582 56.2122 29.9091C56.2122 29.6599 56.1132 29.421 55.937 29.2448C55.7608 29.0687 55.5219 28.9697 55.2728 28.9697ZM43.046 31.5053V33.4979C39.1484 33.8586 36.7821 36.0664 36.7821 39.4003C36.7821 42.2156 38.5433 44.1495 41.7616 44.9724L43.046 45.3063V51.8876C40.8957 51.6424 39.5101 50.4435 39.3654 48.7263H36.3069C36.321 52.0753 38.9192 54.3416 43.0478 54.6159V56.491H45.0238V54.5994C49.253 54.2377 51.6932 52.0301 51.6932 48.4933C51.6932 45.506 49.9892 43.6739 46.3669 42.7927L45.0238 42.49V36.2683C46.9299 36.4994 48.2278 37.7411 48.286 39.3287H51.3024C51.2159 36.1094 48.7617 33.8304 45.0238 33.4979V31.5053H43.046ZM52.4546 31.7879C52.2054 31.7879 51.9665 31.8868 51.7903 32.063C51.6142 32.2392 51.5152 32.4781 51.5152 32.7273C51.5152 32.9764 51.6142 33.2154 51.7903 33.3915C51.9665 33.5677 52.2054 33.6667 52.4546 33.6667C52.7037 33.6667 52.9427 33.5677 53.1188 33.3915C53.295 33.2154 53.394 32.9764 53.394 32.7273C53.394 32.4781 53.295 32.2392 53.1188 32.063C52.9427 31.8868 52.7037 31.7879 52.4546 31.7879ZM43.0478 36.2555V42.0717C40.9689 41.6536 39.8709 40.6286 39.8718 39.1416C39.8718 37.5681 41.2 36.356 43.0478 36.2555ZM17.697 43.0606C17.4479 43.0606 17.2089 43.1596 17.0327 43.3357C16.8566 43.5119 16.7576 43.7509 16.7576 44C16.7576 44.2491 16.8566 44.4881 17.0327 44.6643C17.2089 44.8404 17.4479 44.9394 17.697 44.9394C17.9461 44.9394 18.1851 44.8404 18.3613 44.6643C18.5374 44.4881 18.6364 44.2491 18.6364 44C18.6364 43.7509 18.5374 43.5119 18.3613 43.3357C18.1851 43.1596 17.9461 43.0606 17.697 43.0606ZM21.4546 43.0606C21.2054 43.0606 20.9665 43.1596 20.7903 43.3357C20.6142 43.5119 20.5152 43.7509 20.5152 44C20.5152 44.2491 20.6142 44.4881 20.7903 44.6643C20.9665 44.8404 21.2054 44.9394 21.4546 44.9394C21.7037 44.9394 21.9427 44.8404 22.1188 44.6643C22.295 44.4881 22.394 44.2491 22.394 44C22.394 43.7509 22.295 43.5119 22.1188 43.3357C21.9427 43.1596 21.7037 43.0606 21.4546 43.0606ZM25.2122 43.0606C24.963 43.0606 24.7241 43.1596 24.5479 43.3357C24.3717 43.5119 24.2728 43.7509 24.2728 44C24.2728 44.2491 24.3717 44.4881 24.5479 44.6643C24.7241 44.8404 24.963 44.9394 25.2122 44.9394C25.4613 44.9394 25.7002 44.8404 25.8764 44.6643C26.0526 44.4881 26.1515 44.2491 26.1515 44C26.1515 43.7509 26.0526 43.5119 25.8764 43.3357C25.7002 43.1596 25.4613 43.0606 25.2122 43.0606ZM28.9697 43.0606C28.7206 43.0606 28.4816 43.1596 28.3055 43.3357C28.1293 43.5119 28.0303 43.7509 28.0303 44C28.0303 44.2491 28.1293 44.4881 28.3055 44.6643C28.4816 44.8404 28.7206 44.9394 28.9697 44.9394C29.2189 44.9394 29.4578 44.8404 29.634 44.6643C29.8102 44.4881 29.9091 44.2491 29.9091 44C29.9091 43.7509 29.8102 43.5119 29.634 43.3357C29.4578 43.1596 29.2189 43.0606 28.9697 43.0606ZM32.7273 43.0606C32.4782 43.0606 32.2392 43.1596 32.0631 43.3357C31.8869 43.5119 31.7879 43.7509 31.7879 44C31.7879 44.2491 31.8869 44.4881 32.0631 44.6643C32.2392 44.8404 32.4782 44.9394 32.7273 44.9394C32.9764 44.9394 33.2154 44.8404 33.3916 44.6643C33.5677 44.4881 33.6667 44.2491 33.6667 44C33.6667 43.7509 33.5677 43.5119 33.3916 43.3357C33.2154 43.1596 32.9764 43.0606 32.7273 43.0606ZM45.0257 45.6806C47.4794 46.171 48.6199 47.1682 48.6199 48.8291C48.6199 50.6618 47.3065 51.7864 45.0257 51.917V45.6806ZM52.4546 54.3333C52.2054 54.3333 51.9665 54.4323 51.7903 54.6085C51.6142 54.7846 51.5152 55.0236 51.5152 55.2727C51.5152 55.5219 51.6142 55.7608 51.7903 55.937C51.9665 56.1132 52.2054 56.2121 52.4546 56.2121C52.7037 56.2121 52.9427 56.1132 53.1188 55.937C53.295 55.7608 53.394 55.5219 53.394 55.2727C53.394 55.0236 53.295 54.7846 53.1188 54.6085C52.9427 54.4323 52.7037 54.3333 52.4546 54.3333ZM55.2728 57.1515C55.0236 57.1515 54.7847 57.2505 54.6085 57.4267C54.4323 57.6028 54.3334 57.8418 54.3334 58.0909C54.3334 58.3401 54.4323 58.579 54.6085 58.7552C54.7847 58.9313 55.0236 59.0303 55.2728 59.0303C55.5219 59.0303 55.7608 58.9313 55.937 58.7552C56.1132 58.579 56.2122 58.3401 56.2122 58.0909C56.2122 57.8418 56.1132 57.6028 55.937 57.4267C55.7608 57.2505 55.5219 57.1515 55.2728 57.1515ZM58.0909 59.9697C57.8418 59.9697 57.6029 60.0687 57.4267 60.2448C57.2505 60.421 57.1515 60.6599 57.1515 60.9091C57.1515 61.1582 57.2505 61.3972 57.4267 61.5733C57.6029 61.7495 57.8418 61.8485 58.0909 61.8485C58.3401 61.8485 58.579 61.7495 58.7552 61.5733C58.9314 61.3972 59.0303 61.1582 59.0303 60.9091C59.0303 60.6599 58.9314 60.421 58.7552 60.2448C58.579 60.0687 58.3401 59.9697 58.0909 59.9697ZM60.9091 62.7879C60.66 62.7879 60.421 62.8868 60.2449 63.063C60.0687 63.2392 59.9697 63.4781 59.9697 63.7273C59.9697 63.9764 60.0687 64.2154 60.2449 64.3915C60.421 64.5677 60.66 64.6667 60.9091 64.6667C61.1583 64.6667 61.3972 64.5677 61.5734 64.3915C61.7495 64.2154 61.8485 63.9764 61.8485 63.7273C61.8485 63.4781 61.7495 63.2392 61.5734 63.063C61.3972 62.8868 61.1583 62.7879 60.9091 62.7879Z" fill="url(#paint1_linear_33_32)"/>
<defs>
<linearGradient id="paint0_linear_33_32" x1="0" y1="0" x2="95.8732" y2="78.3681" gradientUnits="userSpaceOnUse">
<stop stop-color="#EF6B2A" stop-opacity="0"/>
<stop offset="1" stop-color="#F1BC62" stop-opacity="0.6"/>
</linearGradient>
<linearGradient id="paint1_linear_33_32" x1="13" y1="13" x2="80.5471" y2="68.2139" gradientUnits="userSpaceOnUse">
<stop stop-color="#EF6B2A"/>
<stop offset="1" stop-color="#F1BC62"/>
</linearGradient>
</defs>
</svg>
