<svg width="88" height="88" viewBox="0 0 88 88" fill="none" xmlns="http://www.w3.org/2000/svg">
<rect width="88" height="88" rx="44" fill="url(#paint0_linear_33_35)"/>
<path d="M46.5 14C43.19 14 40.2705 15.6995 38.5605 18.2695C37.7305 18.0895 36.88 18 36 18C29.38 18 24 23.38 24 30C24 34.53 26.5207 38.4698 30.2207 40.5098C30.1307 40.9998 30.0691 41.5 30.0391 42H17C15.35 42 14 43.35 14 45V51C14 51.769 14.3002 52.466 14.7812 52.998C14.3002 53.53 14 54.228 14 55V61C14 61.771 14.3003 62.468 14.7793 63C14.3003 63.532 14 64.229 14 65V71C14 72.654 15.346 74 17 74H33C33.771 74 34.468 73.6997 35 73.2207C35.532 73.7007 36.229 74 37 74H53C53.771 74 54.468 73.6997 55 73.2207C55.532 73.7007 56.229 74 57 74H73C74.654 74 76 72.654 76 71V65C76 64.229 75.6997 63.532 75.2207 63C75.7007 62.468 76 61.771 76 61V55C76 54.228 75.6998 53.53 75.2188 52.998C75.6998 52.466 76 51.769 76 51V45C76 43.35 74.65 42 73 42H59.9609C59.6409 37.11 56.9608 32.8494 53.0508 30.3594C54.8708 28.6394 56 26.2 56 23.5C56 18.26 51.74 14 46.5 14ZM46.5 16C50.64 16 54 19.36 54 23.5C54 25.86 52.8995 27.9698 51.1895 29.3398C50.1395 28.8698 49.0291 28.5093 47.8691 28.2793C47.2691 24.0293 44.4298 20.5102 40.5898 18.9102C41.9498 17.1402 44.09 16 46.5 16ZM36 20C36.55 20 37.0891 20.0406 37.6191 20.1406C38.2891 20.2406 38.9405 20.4202 39.5605 20.6602C42.7205 21.8602 45.1208 24.6295 45.8008 28.0195C45.5308 28.0095 45.27 28 45 28C38.31 28 32.6292 32.4007 30.6992 38.4707C27.8792 36.7007 26 33.57 26 30C26 24.49 30.49 20 36 20ZM36 22.8887C32.079 22.8887 28.8887 26.079 28.8887 30C28.8887 30.552 29.3357 31 29.8887 31C30.4417 31 30.8887 30.552 30.8887 30C30.8887 27.182 33.182 24.8887 36 24.8887C36.553 24.8887 37 24.4407 37 23.8887C37 23.3367 36.553 22.8887 36 22.8887ZM45 30C45.34 30 45.67 30.0091 46 30.0391C46.68 30.0891 47.3402 30.1896 47.9902 30.3496C48.3002 30.4196 48.6004 30.5096 48.9004 30.5996C49.7604 30.8696 50.5698 31.2299 51.3398 31.6699C55.0398 33.7299 57.6209 37.56 57.9609 42C57.9909 42.33 58 42.66 58 43C58 43.34 57.9909 43.67 57.9609 44C57.8009 46.17 57.1 48.1799 56 49.9199C55.53 50.6699 54.9791 51.37 54.3691 52C54.1431 52.235 53.8934 52.447 53.6504 52.666C53.4884 52.812 53.337 52.9675 53.168 53.1055C52.77 53.4285 52.3549 53.729 51.9199 54C50.4499 54.93 48.78 55.5696 47 55.8496C46.34 55.9496 45.68 56 45 56C42.46 56 40.0901 55.27 38.0801 54C37.2401 53.47 36.4595 52.8506 35.7695 52.1406C35.7895 52.1006 35.8103 52.05 35.8203 52H35.6309C35.0209 51.37 34.47 50.6699 34 49.9199C32.9 48.1799 32.2008 46.16 32.0508 44C32.0108 43.67 32 43.34 32 43C32 42.66 32.0108 42.33 32.0508 42C32.0708 41.78 32.0894 41.5596 32.1094 41.3496C32.1994 40.6696 32.3395 40.0209 32.5195 39.3809C34.0895 33.9709 39.09 30 45 30ZM45 34C44.447 34 44 34.448 44 35V36C41.794 36 40 37.794 40 40C40 42.206 41.794 44 44 44H46C47.103 44 48 44.897 48 46C48 47.103 47.103 48 46 48V46C46 45.448 45.553 45 45 45C44.447 45 44 45.448 44 46V48C42.897 48 42 47.103 42 46C42 45.448 41.553 45 41 45C40.447 45 40 45.448 40 46C40 48.206 41.794 50 44 50V51C44 51.552 44.447 52 45 52C45.553 52 46 51.552 46 51V50C48.206 50 50 48.206 50 46C50 43.794 48.206 42 46 42V40C46 39.448 45.553 39 45 39C44.447 39 44 39.448 44 40V42C42.897 42 42 41.103 42 40C42 38.897 42.897 38 44 38H46C47.103 38 48 38.897 48 40C48 40.552 48.447 41 49 41C49.553 41 50 40.552 50 40C50 37.794 48.206 36 46 36V35C46 34.448 45.553 34 45 34ZM17 44H30.0391C30.2291 46.99 31.31 49.74 33 52H28H24H17C16.45 52 16 51.55 16 51V45C16 44.45 16.45 44 17 44ZM59.9707 44H73C73.55 44 74 44.45 74 45V51C74 51.55 73.55 52 73 52H68H64H57C58.69 49.74 59.7707 46.99 59.9707 44ZM17 54H24C24.552 54 25 54.449 25 55V61C25 61.551 24.552 62 24 62H17C16.448 62 16 61.551 16 61V55C16 54.449 16.448 54 17 54ZM28 54H33H34.8203C37.5003 56.49 41.07 58 45 58V61C45 61.55 44.55 62 44 62H37H33H28C27.45 62 27 61.55 27 61V55C27 54.45 27.45 54 28 54ZM55.1797 54H57H64C64.55 54 65 54.45 65 55V61C65 61.55 64.55 62 64 62H57H53H48C47.45 62 47 61.55 47 61V57.8594C50.14 57.4494 52.9597 56.06 55.1797 54ZM68 54H73C73.552 54 74 54.449 74 55V61C74 61.551 73.552 62 73 62H68C67.448 62 67 61.551 67 61V55C67 54.449 67.448 54 68 54ZM17 64H24H28H33C33.552 64 34 64.449 34 65V71C34 71.551 33.552 72 33 72H17C16.448 72 16 71.551 16 71V65C16 64.449 16.448 64 17 64ZM37 64H44H48H53C53.552 64 54 64.449 54 65V71C54 71.551 53.552 72 53 72H37C36.448 72 36 71.551 36 71V65C36 64.449 36.448 64 37 64ZM57 64H64H68H73C73.552 64 74 64.449 74 65V71C74 71.551 73.552 72 73 72H57C56.448 72 56 71.551 56 71V65C56 64.449 56.448 64 57 64Z" fill="url(#paint1_linear_33_35)"/>
<defs>
<linearGradient id="paint0_linear_33_35" x1="0" y1="0" x2="95.8732" y2="78.3681" gradientUnits="userSpaceOnUse">
<stop stop-color="#EF6B2A" stop-opacity="0"/>
<stop offset="1" stop-color="#F1BC62" stop-opacity="0.6"/>
</linearGradient>
<linearGradient id="paint1_linear_33_35" x1="14" y1="14" x2="79.7618" y2="69.5464" gradientUnits="userSpaceOnUse">
<stop stop-color="#EF6B2A"/>
<stop offset="1" stop-color="#F1BC62"/>
</linearGradient>
</defs>
</svg>
