<svg width="88" height="88" viewBox="0 0 88 88" fill="none" xmlns="http://www.w3.org/2000/svg">
<rect width="88" height="88" rx="44" fill="url(#paint0_linear_33_41)"/>
<g clip-path="url(#clip0_33_41)">
<path d="M55 12C45.8516 12 38.0508 17.8789 35.1797 26.0703C22.2383 27 12 37.8203 12 51C12 64.7891 23.2109 76 37 76C50.1797 76 61 65.7617 61.9297 52.8203C70.1211 49.9492 76 42.1484 76 33C76 21.4219 66.5781 12 55 12ZM55 14C65.4805 14 74 22.5195 74 33C74 41.0117 69.0195 47.8789 61.9883 50.6602C61.9297 45.8008 60.4688 41.2695 58 37.4609V26C58 25.6016 57.8008 25.2305 57.4023 25.0781C57 24.9219 56.6016 25.0078 56.3008 25.2891L53.3008 28.2891C52.9023 28.6875 52.9023 29.3203 53.3008 29.7109C53.6992 30.1016 54.3008 30.1016 54.6992 29.7109L56 28.4219V34.7812C51.4883 29.4883 44.8086 26.1016 37.3398 26.0117C40.1211 18.9805 46.9883 14 55 14ZM56 17C55.4453 17 55 17.4492 55 18V20C55 20.5508 55.4453 21 56 21C56.5547 21 57 20.5508 57 20V18C57 17.4492 56.5547 17 56 17ZM50.7695 18.0195C50.6406 18.0156 50.5117 18.0391 50.3828 18.0938C49.8711 18.2969 49.6211 18.8828 49.8281 19.3945L50.5781 21.25C50.7344 21.6367 51.1094 21.875 51.5039 21.875C51.6289 21.875 51.7578 21.8516 51.8789 21.8008C52.3906 21.5938 52.6367 21.0117 52.4336 20.5L51.6836 18.6445C51.5273 18.2617 51.1602 18.0273 50.7695 18.0195ZM61.4727 18.1094C61.082 18.1094 60.7109 18.3398 60.5508 18.7188L59.7656 20.5625C59.5508 21.0703 59.7891 21.6562 60.2969 21.875C60.4258 21.9258 60.5547 21.9531 60.6875 21.9531C61.0781 21.9531 61.4453 21.7266 61.6094 21.3438L62.3906 19.5039C62.6094 18.9961 62.3711 18.4062 61.8594 18.1914C61.7344 18.1367 61.6016 18.1133 61.4727 18.1094ZM65.8984 21.1016C65.6445 21.1016 65.3867 21.1992 65.1914 21.3945L63.7773 22.8086C63.3867 23.1992 63.3867 23.832 63.7773 24.2227C63.9727 24.418 64.2266 24.5156 64.4844 24.5156C64.7422 24.5156 64.9961 24.418 65.1914 24.2227L66.6055 22.8086C66.9961 22.418 66.9961 21.7852 66.6055 21.3945C66.4102 21.1992 66.1523 21.1016 65.8984 21.1016ZM68.9961 25.7539C68.8672 25.75 68.7344 25.7734 68.6055 25.8281L66.75 26.5781C66.2383 26.7812 65.9922 27.3672 66.1992 27.8789C66.3555 28.2695 66.7305 28.5039 67.125 28.5039C67.25 28.5039 67.3789 28.4805 67.5 28.4336L69.3555 27.6836C69.8672 27.4766 70.1133 26.8945 69.9062 26.3789C69.75 25.9961 69.3867 25.7617 68.9961 25.7539ZM37 28C44.8789 28 51.8516 31.9922 56 38.0508C56.7695 39.1797 57.4414 40.3789 58 41.6406C59.2891 44.5 60 47.6719 60 51C60 51.1094 60 51.2188 59.9883 51.3281C59.9883 52.0391 59.9492 52.7305 59.8711 53.4219C58.6602 64.9688 48.8594 74 37 74C24.3203 74 14 63.6797 14 51C14 39.1406 23.0312 29.3398 34.5781 28.1289C35.2695 28.0508 35.9609 28.0117 36.6719 28.0117C36.7812 28 36.8906 28 37 28ZM37 31C25.9727 31 17 39.9727 17 51C17 62.0273 25.9727 71 37 71C48.0273 71 57 62.0273 57 51C57 45.3516 54.5938 39.9375 50.3945 36.1523C49.9883 35.7812 49.3555 35.8125 48.9844 36.2227C48.6133 36.6328 48.6484 37.2656 49.0586 37.6367C52.8359 41.043 55 45.9141 55 51C55 60.9258 46.9258 69 37 69C27.0742 69 19 60.9258 19 51C19 41.0742 27.0742 33 37 33C38.0039 33 39.0117 33.082 39.9922 33.25C40.5391 33.3359 41.0547 32.9727 41.1445 32.4258C41.2344 31.8828 40.8672 31.3672 40.3242 31.2773C39.2305 31.0898 38.1133 31 37 31ZM68 31C67.4453 31 67 31.4492 67 32C67 32.5508 67.4453 33 68 33H70C70.5547 33 71 32.5508 71 32C71 31.4492 70.5547 31 70 31H68ZM43.9453 32.3203C43.5547 32.3281 43.1914 32.5664 43.0391 32.9531C42.8359 33.4648 43.0898 34.0469 43.6055 34.25C44.4258 34.5742 45.2383 34.9648 46.0117 35.4102C46.168 35.5039 46.3398 35.5469 46.5117 35.5469C46.8555 35.5469 47.1914 35.3672 47.375 35.0469C47.6523 34.5703 47.4883 33.9609 47.0117 33.6836C46.1562 33.1875 45.2539 32.75 44.3359 32.3906C44.207 32.3398 44.0742 32.3164 43.9453 32.3203ZM34.8828 41C33.875 41 33.0234 41.7539 32.8984 42.75L32.1484 48.75C32.0781 49.3203 32.2539 49.8906 32.6328 50.3242C33.0117 50.7539 33.5586 51 34.1328 51H37C38.6523 51 40 52.3477 40 54V56C40 57.6523 38.6523 59 37 59H35C33.8984 59 33 58.1016 33 57C33 56.4492 32.5547 56 32 56C31.4453 56 31 56.4492 31 57C31 59.207 32.793 61 35 61H37C39.7578 61 42 58.7578 42 56V54C42 51.2422 39.7578 49 37 49H34.1328L34.8828 43H41C41.5547 43 42 42.5508 42 42C42 41.4492 41.5547 41 41 41H34.8828ZM23.3906 53.2109C23.2656 53.1875 23.1289 53.1914 22.9961 53.2188C22.457 53.3438 22.1211 53.8828 22.2461 54.4219C23.1797 58.457 25.7695 61.9766 29.3594 64.0781C29.5195 64.168 29.6914 64.2148 29.8633 64.2148C30.2109 64.2148 30.543 64.0352 30.7305 63.7188C31.0078 63.2422 30.8477 62.6289 30.3711 62.3516C27.2539 60.5273 25.0039 57.4727 24.1953 53.9688C24.1016 53.5664 23.7773 53.2773 23.3906 53.2109Z" fill="url(#paint1_linear_33_41)"/>
</g>
<defs>
<linearGradient id="paint0_linear_33_41" x1="0" y1="0" x2="95.8732" y2="78.3681" gradientUnits="userSpaceOnUse">
<stop stop-color="#EF6B2A" stop-opacity="0"/>
<stop offset="1" stop-color="#F1BC62" stop-opacity="0.6"/>
</linearGradient>
<linearGradient id="paint1_linear_33_41" x1="12" y1="12" x2="81.726" y2="68.995" gradientUnits="userSpaceOnUse">
<stop stop-color="#EF6B2A"/>
<stop offset="1" stop-color="#F1BC62"/>
</linearGradient>
<clipPath id="clip0_33_41">
<rect width="64" height="64" fill="white" transform="translate(12 12)"/>
</clipPath>
</defs>
</svg>
