<svg width="88" height="88" viewBox="0 0 88 88" fill="none" xmlns="http://www.w3.org/2000/svg">
<rect width="88" height="88" rx="44" fill="url(#paint0_linear_33_38)"/>
<path d="M15 22C13.35 22 12 23.35 12 25V59C12 60.65 13.35 62 15 62H45.2207C47.4707 64.75 53.3602 71.0508 59.9902 71.0508C67.2302 71.0508 73.5698 63.5598 75.3398 61.2598C75.8898 60.5498 75.8898 59.5598 75.3398 58.8398C74.7298 58.0498 73.56 56.6196 72 55.0996V25C72 23.35 70.65 22 69 22H15ZM15 24H69C69.55 24 70 24.45 70 25V38H14V30H59C59.553 30 60 29.553 60 29C60 28.447 59.553 28 59 28H14V25C14 24.45 14.45 24 15 24ZM63 28C62.447 28 62 28.447 62 29C62 29.553 62.447 30 63 30H67C67.553 30 68 29.553 68 29C68 28.447 67.553 28 67 28H63ZM17 32C16.447 32 16 32.447 16 33V35C16 35.553 16.447 36 17 36C17.553 36 18 35.553 18 35V33C18 32.447 17.553 32 17 32ZM22 32C21.447 32 21 32.447 21 33V35C21 35.553 21.447 36 22 36C22.553 36 23 35.553 23 35V33C23 32.447 22.553 32 22 32ZM27 32C26.447 32 26 32.447 26 33V35C26 35.553 26.447 36 27 36C27.553 36 28 35.553 28 35V33C28 32.447 27.553 32 27 32ZM32 32C31.447 32 31 32.447 31 33V35C31 35.553 31.447 36 32 36C32.553 36 33 35.553 33 35V33C33 32.447 32.553 32 32 32ZM37 32C36.447 32 36 32.447 36 33V35C36 35.553 36.447 36 37 36C37.553 36 38 35.553 38 35V33C38 32.447 37.553 32 37 32ZM42 32C41.447 32 41 32.447 41 33V35C41 35.553 41.447 36 42 36C42.553 36 43 35.553 43 35V33C43 32.447 42.553 32 42 32ZM47 32C46.447 32 46 32.447 46 33V35C46 35.553 46.447 36 47 36C47.553 36 48 35.553 48 35V33C48 32.447 47.553 32 47 32ZM52 32C51.447 32 51 32.447 51 33V35C51 35.553 51.447 36 52 36C52.553 36 53 35.553 53 35V33C53 32.447 52.553 32 52 32ZM57 32C56.447 32 56 32.447 56 33V35C56 35.553 56.447 36 57 36C57.553 36 58 35.553 58 35V33C58 32.447 57.553 32 57 32ZM62 32C61.447 32 61 32.447 61 33V35C61 35.553 61.447 36 62 36C62.553 36 63 35.553 63 35V33C63 32.447 62.553 32 62 32ZM67 32C66.447 32 66 32.447 66 33V35C66 35.553 66.447 36 67 36C67.553 36 68 35.553 68 35V33C68 32.447 67.553 32 67 32ZM14 40H70V53.3203C67.24 51.0603 63.7402 49.0508 59.9902 49.0508C53.3302 49.0508 47.4195 55.4204 45.1895 58.1504C44.7495 58.6804 44.5295 59.34 44.5195 60H15C14.45 60 14 59.55 14 59V40ZM21 46C20.447 46 20 46.447 20 47C20 47.553 20.447 48 21 48H35C35.553 48 36 47.553 36 47C36 46.447 35.553 46 35 46H21ZM39 46C38.447 46 38 46.447 38 47C38 47.553 38.447 48 39 48H43C43.553 48 44 47.553 44 47C44 46.447 43.553 46 43 46H39ZM21 50C20.447 50 20 50.447 20 51C20 51.553 20.447 52 21 52H39C39.553 52 40 51.553 40 51C40 50.447 39.553 50 39 50H21ZM59.9902 51.0508C63.7802 51.0508 67.38 53.5209 70 55.9609C70.76 56.6509 71.43 57.3407 72 57.9707C72.78 58.8207 73.38 59.5591 73.75 60.0391C72.12 62.1591 66.3202 69.0508 59.9902 69.0508C55.0402 69.0508 50.3894 64.81 47.8594 62C47.4194 61.51 47.0402 61.0595 46.7402 60.6895C46.5802 60.4895 46.4995 60.24 46.5195 60C46.5295 59.79 46.6002 59.5799 46.7402 59.4199C48.7902 56.8999 54.1802 51.0508 59.9902 51.0508ZM59.9902 54.0547C56.6812 54.0547 53.9902 56.7457 53.9902 60.0547C53.9902 63.3637 56.6812 66.0547 59.9902 66.0547C63.2992 66.0547 65.9902 63.3637 65.9902 60.0547C65.9902 56.7457 63.2992 54.0547 59.9902 54.0547ZM59.9902 56.0547C62.1962 56.0547 63.9902 57.8487 63.9902 60.0547C63.9902 62.2607 62.1962 64.0547 59.9902 64.0547C57.7842 64.0547 55.9902 62.2607 55.9902 60.0547C55.9902 57.8487 57.7842 56.0547 59.9902 56.0547Z" fill="url(#paint1_linear_33_38)"/>
<defs>
<linearGradient id="paint0_linear_33_38" x1="0" y1="0" x2="95.8732" y2="78.3681" gradientUnits="userSpaceOnUse">
<stop stop-color="#EF6B2A" stop-opacity="0"/>
<stop offset="1" stop-color="#F1BC62" stop-opacity="0.6"/>
</linearGradient>
<linearGradient id="paint1_linear_33_38" x1="12" y1="22" x2="66.4292" y2="79.8262" gradientUnits="userSpaceOnUse">
<stop stop-color="#EF6B2A"/>
<stop offset="1" stop-color="#F1BC62"/>
</linearGradient>
</defs>
</svg>
