<svg width="88" height="88" viewBox="0 0 88 88" fill="none" xmlns="http://www.w3.org/2000/svg">
<rect width="88" height="88" rx="44" fill="url(#paint0_linear_78_11)"/>
<path d="M45 15C42.243 15 40 17.243 40 20C40 22.4144 41.7209 24.4336 44 24.8984V28.0508C39.0687 28.3094 34.6298 30.439 31.3945 33.7637L25.3281 28.4551C25.7431 27.7266 26 26.8967 26 26C26 23.243 23.757 21 21 21C18.243 21 16 23.243 16 26C16 28.757 18.243 31 21 31C22.1359 31 23.1712 30.6035 24.0117 29.9629L30.082 35.2734C27.5346 38.507 26 42.5734 26 47C26 51.7047 27.7278 56.0063 30.5703 59.3281L24.8867 63.9316C24.0696 63.3499 23.0772 63 22 63C19.243 63 17 65.243 17 68C17 70.757 19.243 73 22 73C24.757 73 27 70.757 27 68C27 67.0447 26.7167 66.1603 26.25 65.4004L31.957 60.7793C35.3637 64.0056 39.9485 66 45 66C49.7146 66 54.023 64.2634 57.3477 61.4102L60.9062 65.1465C60.3392 65.9572 60 66.9378 60 68C60 70.757 62.243 73 65 73C67.757 73 70 70.757 70 68C70 65.243 67.757 63 65 63C64.0279 63 63.1279 63.2915 62.3594 63.7734L58.793 60.0293C62.0115 56.624 64 52.0445 64 47C64 42.1207 62.1352 37.6807 59.1016 34.3125L64.2461 29.166C65.0369 29.6906 65.982 30 67 30C69.757 30 72 27.757 72 25C72 22.243 69.757 20 67 20C64.243 20 62 22.243 62 25C62 26.017 62.3084 26.9616 62.832 27.752L57.6875 32.8984C54.5524 30.0747 50.4841 28.286 46 28.0508V24.8984C48.2791 24.4336 50 22.4144 50 20C50 17.243 47.757 15 45 15ZM45 17C46.654 17 48 18.346 48 20C48 21.654 46.654 23 45 23C43.346 23 42 21.654 42 20C42 18.346 43.346 17 45 17ZM67 22C68.654 22 70 23.346 70 25C70 26.654 68.654 28 67 28C65.346 28 64 26.654 64 25C64 23.346 65.346 22 67 22ZM21 23C22.654 23 24 24.346 24 26C24 27.654 22.654 29 21 29C19.346 29 18 27.654 18 26C18 24.346 19.346 23 21 23ZM45 30C54.374 30 62 37.626 62 47C62 56.374 54.374 64 45 64C35.626 64 28 56.374 28 47C28 37.626 35.626 30 45 30ZM45 33C40.875 33 38 37.216 38 41C38 42.7964 38.4159 44.6689 39.1562 46.3027L36.4863 48.1387C34.5893 49.1297 33 51.793 33 54V55C33 56.084 33.916 57 35 57H55C56.084 57 57 56.084 57 55V54C57 51.798 55.4116 49.1366 53.5156 48.1426L50.8496 46.2891C51.5861 44.6584 52 42.7914 52 41C52 37.216 49.125 33 45 33ZM45 35C47.947 35 50 38.162 50 41C50 44.7 47.816 49 45 49C42.184 49 40 44.7 40 41C40 38.162 42.053 35 45 35ZM49.8594 48.0371L52.4297 49.8223L52.5508 49.8945C53.8098 50.5255 55 52.521 55 54V55H35V54C35 52.519 36.1893 50.5235 37.4473 49.8945L40.1465 48.0469C41.3677 49.8032 43.04 51 45 51C46.9634 51 48.6376 49.7985 49.8594 48.0371ZM22 65C23.654 65 25 66.346 25 68C25 69.654 23.654 71 22 71C20.346 71 19 69.654 19 68C19 66.346 20.346 65 22 65ZM65 65C66.654 65 68 66.346 68 68C68 69.654 66.654 71 65 71C63.346 71 62 69.654 62 68C62 66.346 63.346 65 65 65Z" fill="url(#paint1_linear_78_11)"/>
<defs>
<linearGradient id="paint0_linear_78_11" x1="0" y1="0" x2="95.8732" y2="78.3681" gradientUnits="userSpaceOnUse">
<stop stop-color="#EF6B2A" stop-opacity="0"/>
<stop offset="1" stop-color="#F1BC62" stop-opacity="0.6"/>
</linearGradient>
<linearGradient id="paint1_linear_78_11" x1="16" y1="15" x2="78.7127" y2="64.4946" gradientUnits="userSpaceOnUse">
<stop stop-color="#EF6B2A"/>
<stop offset="1" stop-color="#F1BC62"/>
</linearGradient>
</defs>
</svg>
