<svg width="88" height="88" viewBox="0 0 88 88" fill="none" xmlns="http://www.w3.org/2000/svg">
<rect width="88" height="88" rx="44" fill="url(#paint0_linear_78_6)"/>
<path d="M22 24C20.37 24 19.1098 25.2008 19.0098 26.8008C18.9998 26.8608 19 26.93 19 27V30H16C14.37 30 13.1098 31.2008 13.0098 32.8008C12.9998 32.8608 13 32.93 13 33V61C13 62.7 14.3 64 16 64H66C67.7 64 69 62.7 69 61V58H72C73.7 58 75 56.7 75 55V54V27C75 25.3 73.7 24 72 24H22ZM22 26H72C72.6 26 73 26.4 73 27V54V55C73 55.6 72.6 56 72 56H22C21.4 56 21 55.6 21 55V54V27C21 26.4 21.4 26 22 26ZM34 28C33.4 28 33 28.4 33 29V31C33 31.6 33.4 32 34 32C34.6 32 35 31.6 35 31V29C35 28.4 34.6 28 34 28ZM39 28C38.4 28 38 28.4 38 29V31C38 31.6 38.4 32 39 32C39.6 32 40 31.6 40 31V29C40 28.4 39.6 28 39 28ZM44 28C43.4 28 43 28.4 43 29V31V31.0996C40 32.8996 38 36.6 38 41C38 45.4 40.1 49.1004 43 50.9004V53C43 53.6 43.4 54 44 54C44.6 54 45 53.6 45 53V51.6992C45.6 51.8992 46.3 52 47 52C47.7 52 48.4 51.8992 49 51.6992V53C49 53.6 49.4 54 50 54C50.6 54 51 53.6 51 53V51V50.9004C54 49.1004 56 45.4 56 41C56 36.6 53.9 32.8996 51 31.0996V29C51 28.4 50.6 28 50 28C49.4 28 49 28.4 49 29V30.3008C48.4 30.1008 47.7 30 47 30C46.3 30 45.6 30.1008 45 30.3008V29C45 28.4 44.6 28 44 28ZM55 28C54.4 28 54 28.4 54 29V31C54 31.6 54.4 32 55 32C55.6 32 56 31.6 56 31V29C56 28.4 55.6 28 55 28ZM60 28C59.4 28 59 28.4 59 29V31C59 31.6 59.4 32 60 32C60.6 32 61 31.6 61 31V29C61 28.4 60.6 28 60 28ZM24 29C23.4 29 23 29.4 23 30C23 30.6 23.4 31 24 31H29C29.6 31 30 30.6 30 30C30 29.4 29.6 29 29 29H24ZM65 29C64.4 29 64 29.4 64 30C64 30.6 64.4 31 65 31H70C70.6 31 71 30.6 71 30C71 29.4 70.6 29 70 29H65ZM47 31.8008C47.26 31.8008 47.5193 31.8194 47.7793 31.8594C48.0593 31.8894 48.3298 31.9491 48.5898 32.0391C49.0998 32.1791 49.5791 32.3997 50.0391 32.6797C50.6791 33.0797 51.2808 33.6105 51.8008 34.2305C52.3208 34.8405 52.7594 35.5498 53.1094 36.3398C53.7394 37.6998 54.0996 39.3 54.0996 41C54.0996 46.1 50.9 50.1992 47 50.1992C45.6 50.1992 44.2992 49.6795 43.1992 48.7695C42.6292 48.2995 42.1097 47.7303 41.6797 47.0703C41.2097 46.3903 40.8191 45.6291 40.5391 44.7891C40.3191 44.1791 40.1508 43.5294 40.0508 42.8594C40.0408 42.8594 40.0508 42.8496 40.0508 42.8496C39.9908 42.4896 39.9497 42.12 39.9297 41.75C39.9097 41.5 39.9004 41.25 39.9004 41C39.9004 35.9 43.1 31.8008 47 31.8008ZM16 32H19V54V55C19 56.7 20.3 58 22 58H67V61C67 61.6 66.6 62 66 62H16C15.4 62 15 61.6 15 61V33C15 32.4 15.4 32 16 32ZM29 38C26.8 38 25 39.8 25 42C25 44.2 26.8 46 29 46C31.2 46 33 44.2 33 42C33 39.8 31.2 38 29 38ZM65 38C62.8 38 61 39.8 61 42C61 44.2 62.8 46 65 46C67.2 46 69 44.2 69 42C69 39.8 67.2 38 65 38ZM29 39.8008C30.2 39.8008 31.1992 40.8 31.1992 42C31.1992 43.2 30.2 44.1992 29 44.1992C27.8 44.1992 26.8008 43.2 26.8008 42C26.8008 40.8 27.8 39.8008 29 39.8008ZM65 39.8008C66.2 39.8008 67.1992 40.8 67.1992 42C67.1992 43.2 66.2 44.1992 65 44.1992C63.8 44.1992 62.8008 43.2 62.8008 42C62.8008 40.8 63.8 39.8008 65 39.8008ZM34 50C33.4 50 33 50.4 33 51V53C33 53.6 33.4 54 34 54C34.6 54 35 53.6 35 53V51C35 50.4 34.6 50 34 50ZM39 50C38.4 50 38 50.4 38 51V53C38 53.6 38.4 54 39 54C39.6 54 40 53.6 40 53V51C40 50.4 39.6 50 39 50ZM55 50C54.4 50 54 50.4 54 51V53C54 53.6 54.4 54 55 54C55.6 54 56 53.6 56 53V51C56 50.4 55.6 50 55 50ZM60 50C59.4 50 59 50.4 59 51V53C59 53.6 59.4 54 60 54C60.6 54 61 53.6 61 53V51C61 50.4 60.6 50 60 50ZM24 51C23.4 51 23 51.4 23 52C23 52.6 23.4 53 24 53H29C29.6 53 30 52.6 30 52C30 51.4 29.6 51 29 51H24ZM65 51C64.4 51 64 51.4 64 52C64 52.6 64.4 53 65 53H70C70.6 53 71 52.6 71 52C71 51.4 70.6 51 70 51H65Z" fill="url(#paint1_linear_78_6)"/>
<defs>
<linearGradient id="paint0_linear_78_6" x1="0" y1="0" x2="95.8732" y2="78.3681" gradientUnits="userSpaceOnUse">
<stop stop-color="#EF6B2A" stop-opacity="0"/>
<stop offset="1" stop-color="#F1BC62" stop-opacity="0.6"/>
</linearGradient>
<linearGradient id="paint1_linear_78_6" x1="13" y1="24" x2="56.2507" y2="78.7983" gradientUnits="userSpaceOnUse">
<stop stop-color="#EF6B2A"/>
<stop offset="1" stop-color="#F1BC62"/>
</linearGradient>
</defs>
</svg>
