<svg width="88" height="88" viewBox="0 0 88 88" fill="none" xmlns="http://www.w3.org/2000/svg">
<rect width="88" height="88" rx="44" fill="url(#paint0_linear_78_14)"/>
<path d="M44 18C42.1055 18 39.4023 18.5898 37.6992 19.7188C35.8594 19.8008 34.3437 20.625 33.3086 21.9766C33.2578 21.9727 33.2109 21.9688 33.1562 21.9688H32.4883C31.0391 21.9688 28.9219 22.3867 27.5 23.3125C24.9219 23.4531 23.0937 25.3477 22.8086 28.2148C22.6328 29.9609 22.8008 31.2578 22.8984 32.0312C22.9297 32.2656 22.9648 32.5586 22.9648 32.625C22.9531 32.6719 22.9453 32.7148 22.9375 32.7617C22.9102 32.7695 22.8828 32.7773 22.8555 32.7812C21.5469 33.1328 20.9961 34.8789 21.5469 36.9375C21.918 38.3164 22.6641 39.3437 23.5273 39.7422C24.0117 41.1797 24.7148 42.5547 25.5625 43.75L16.5781 49.5625C13.7109 51.418 12 54.5664 12 57.9805V61.1914C12 62.7422 13.2578 64 14.8047 64H20V67C20 68.6523 21.3477 70 23 70H65C66.6523 70 68 68.6523 68 67V64H73.1094C74.6602 64 75.918 62.7422 75.918 61.1914V57.9805C75.918 54.5664 74.2031 51.418 71.3359 49.5625L63.0742 44.2188C64.0703 42.9219 64.9023 41.375 65.4531 39.7422C66.3164 39.3437 67.0625 38.3164 67.4336 36.9375C67.9844 34.8789 67.4336 33.1328 66.125 32.7812C66.1016 32.7773 66.0703 32.7695 66.043 32.7656C65.957 32.2461 65.8242 31.7383 65.625 31.1406C65.7227 31.168 65.8203 31.2031 65.9062 31.2383C66.25 31.3828 66.6484 31.3242 66.9336 31.0859C67.2187 30.8477 67.3477 30.4687 67.2695 30.1055C66.1563 25.0078 62.375 21.9688 57.1562 21.9688H56.4883C55.9414 21.9688 55.293 22.0352 54.6289 22.1641C52.3242 19.4883 48.9414 18 44.8555 18H44ZM44 20H44.8555C49.9062 20 53.5703 22.543 55.1289 27.0391C54.5742 27.0117 54.0195 27.1172 53.6133 27.5039C53.2578 27.8477 52.918 28.4922 53.332 29.625C53.8555 31.043 54.043 31.8789 54.0977 33.0664C54.1133 33.4258 54.3203 33.7461 54.6406 33.9102C54.957 34.0742 55.3398 34.0547 55.6406 33.8594C55.6914 33.8281 55.7305 33.8086 55.7539 33.7969C55.9375 34.0234 56.1719 34.9453 55.8125 36.2969C55.4219 37.7422 54.6914 38.4102 54.4688 38.4336C54.0234 38.4336 53.6367 38.7227 53.5117 39.1484C52.1172 43.8281 48.3125 48.8047 44 48.8047C39.6836 48.8047 35.8789 43.8281 34.4883 39.1484C34.3633 38.7227 33.9766 38.4336 33.5312 38.4336C33.3086 38.4102 32.5742 37.7422 32.1875 36.2969C31.8008 34.8516 32.0977 33.8945 32.1914 33.7812C32.1914 33.7812 32.2461 33.7891 32.3555 33.8594C32.6562 34.0547 33.0391 34.0742 33.3594 33.9102C33.6758 33.75 33.8828 33.4258 33.9023 33.0664C33.9219 32.6289 33.9688 32.1875 34.0469 31.7656C34.1133 31.3789 34.0586 30.9336 33.9805 30.3164C33.8594 29.3633 33.6719 27.9258 33.8711 25.9453C34.1367 23.293 35.6836 21.7109 38.0273 21.7109C38.2422 21.7109 38.4531 21.6406 38.625 21.5117C39.7578 20.6641 42.1172 20 44 20ZM56.4883 23.9688H57.1562C60.8828 23.9688 63.625 25.7891 64.8633 29.0234C64.4883 29.0508 64.1328 29.1719 63.8438 29.4492C63.5781 29.7031 63.1836 30.2891 63.5703 31.3398C63.9687 32.4219 64.1133 33.0586 64.1562 33.9609C64.1719 34.3203 64.4102 34.625 64.7305 34.7852C64.9844 34.918 65.293 34.9219 65.5625 34.8164C65.6445 35.0898 65.7031 35.6484 65.5 36.418C65.2305 37.418 64.7461 37.8828 64.6602 37.9219C64.2188 37.9219 63.8281 38.2109 63.7031 38.6367C62.9688 41.1055 61.5156 43.3789 59.8125 44.7227C59.3789 45.0664 59.3047 45.6953 59.6445 46.1289C59.8438 46.3789 60.1367 46.5117 60.4336 46.5117C60.6523 46.5117 60.8711 46.4414 61.0508 46.2969C61.2773 46.1172 61.5 45.9219 61.7188 45.7188L70.25 51.2383C72.543 52.7266 73.9141 55.2461 73.9141 57.9805V61.1914H73.918C73.918 61.6367 73.5547 62 73.1094 62H68V61.918C68 57.2969 65.5156 52.9844 61.5156 50.668L52.5938 45.5039C53.7344 43.9102 54.6484 42.1055 55.25 40.2812C56.3242 39.8516 57.2734 38.5664 57.7422 36.8164C58.4062 34.3398 57.7852 32.25 56.2695 31.8438C56.1875 31.8203 56.0898 31.8008 55.9844 31.7891C55.8633 30.9375 55.6406 30.1211 55.2617 29.0664C55.5312 29.1172 55.8789 29.2148 56.1719 29.3359C56.5156 29.4805 56.9102 29.418 57.1914 29.1758C57.4805 28.9375 57.6094 28.5625 57.5312 28.1992C57.1875 26.6406 56.6445 25.2344 55.9258 24C56.1172 23.9844 56.3086 23.9688 56.4883 23.9688ZM32.2695 23.9766C32.0898 24.5313 31.9453 25.1094 31.8828 25.7461C31.6641 27.9531 31.8594 29.5273 31.9961 30.5742C32.0352 30.8984 32.0898 31.3086 32.0781 31.4219C32.0547 31.543 32.0352 31.6641 32.0156 31.7891C31.9141 31.8008 31.8164 31.8203 31.7344 31.8438C30.2148 32.25 29.5937 34.3398 30.2578 36.8164C30.7266 38.5664 31.6758 39.8516 32.75 40.2812C33.3555 42.1055 34.2656 43.9102 35.4062 45.5039L26.4883 50.668C22.4844 52.9844 20 57.2969 20 61.918V62H14.8047C14.3633 62 14 61.6367 14 61.1914V57.9805C14 55.2461 15.3711 52.7266 17.668 51.2383L26.8438 45.3008C26.9375 45.3984 27.0273 45.5 27.1211 45.5898C27.3164 45.7773 27.5664 45.8711 27.8164 45.8711C28.0781 45.8711 28.3398 45.7695 28.5352 45.5664C28.918 45.168 28.9102 44.5352 28.5117 44.1523C27.0859 42.7734 25.9062 40.7656 25.2773 38.6367C25.1484 38.2109 24.8125 37.9297 24.3711 37.9297C24.2344 37.8828 23.75 37.418 23.4805 36.418C23.2773 35.6562 23.3359 35.1016 23.4141 34.8281C23.6875 34.9492 24.0078 34.9453 24.2812 34.8047C24.6016 34.6406 24.8086 34.3203 24.8242 33.9648C24.8398 33.6289 24.875 33.2969 24.9336 32.9727C24.9922 32.6367 24.9453 32.2773 24.8828 31.7812C24.7891 31.043 24.6484 29.9336 24.8008 28.4102C24.9961 26.4375 26.0977 25.3047 27.8281 25.3047C28.043 25.3047 28.2539 25.2344 28.4258 25.1055C29.2344 24.5 30.8828 24.0234 32.2695 23.9766ZM39 24.9531C38.4531 25.0039 37.9375 25.2969 37.6172 25.7812L36.2461 27.8633C35.9414 28.3242 36.0703 28.9453 36.5312 29.25C36.6992 29.3594 36.8906 29.4102 37.0781 29.4102C37.4062 29.4102 37.7227 29.2539 37.918 28.9648L39.2188 26.9844L40.4414 27.582C42.8984 28.7773 45.6406 29.4102 48.375 29.4102H50.5625C51.1133 29.4102 51.5625 28.9648 51.5625 28.4102C51.5625 27.8594 51.1133 27.4102 50.5625 27.4102H48.375C45.9414 27.4102 43.5 26.8477 41.3164 25.7852L39.9805 25.1367C39.668 24.9805 39.3281 24.9258 39 24.9531ZM36.6758 47.0781C38.6992 49.293 41.2266 50.8047 44 50.8047C46.7734 50.8047 49.2969 49.293 51.3242 47.0781L60.5117 52.3984C63.8984 54.3594 66 58.0078 66 61.918V67C66 67.5508 65.5508 68 65 68H23C22.4492 68 22 67.5508 22 67V61.918C22 58.0078 24.1016 54.3594 27.4883 52.3984L36.6758 47.0781ZM51.9375 51C51.8086 51.0078 51.6758 51.043 51.5508 51.1055L44 54.8828L36.4492 51.1055C35.9531 50.8555 35.3516 51.0586 35.1055 51.5508C34.8594 52.0469 35.0586 52.6484 35.5508 52.8945L43.5508 56.8945C43.6953 56.9648 43.8477 57 44 57C44.1523 57 44.3086 56.9648 44.4492 56.8945L52.4492 52.8945C52.9414 52.6484 53.1406 52.0469 52.8945 51.5508C52.7109 51.1836 52.3281 50.9766 51.9375 51ZM24 62C23.4492 62 23 62.4492 23 63V65C23 65.5508 23.4492 66 24 66C24.5508 66 25 65.5508 25 65V63C25 62.4492 24.5508 62 24 62ZM29 62C28.4492 62 28 62.4492 28 63V65C28 65.5508 28.4492 66 29 66C29.5508 66 30 65.5508 30 65V63C30 62.4492 29.5508 62 29 62ZM34 62C33.4492 62 33 62.4492 33 63V65C33 65.5508 33.4492 66 34 66C34.5508 66 35 65.5508 35 65V63C35 62.4492 34.5508 62 34 62ZM39 62C38.4492 62 38 62.4492 38 63V65C38 65.5508 38.4492 66 39 66C39.5508 66 40 65.5508 40 65V63C40 62.4492 39.5508 62 39 62ZM44 62C43.4492 62 43 62.4492 43 63V65C43 65.5508 43.4492 66 44 66C44.5508 66 45 65.5508 45 65V63C45 62.4492 44.5508 62 44 62ZM49 62C48.4492 62 48 62.4492 48 63V65C48 65.5508 48.4492 66 49 66C49.5508 66 50 65.5508 50 65V63C50 62.4492 49.5508 62 49 62ZM54 62C53.4492 62 53 62.4492 53 63V65C53 65.5508 53.4492 66 54 66C54.5508 66 55 65.5508 55 65V63C55 62.4492 54.5508 62 54 62ZM59 62C58.4492 62 58 62.4492 58 63V65C58 65.5508 58.4492 66 59 66C59.5508 66 60 65.5508 60 65V63C60 62.4492 59.5508 62 59 62ZM64 62C63.4492 62 63 62.4492 63 63V65C63 65.5508 63.4492 66 64 66C64.5508 66 65 65.5508 65 65V63C65 62.4492 64.5508 62 64 62Z" fill="url(#paint1_linear_78_14)"/>
<defs>
<linearGradient id="paint0_linear_78_14" x1="0" y1="0" x2="95.8732" y2="78.3681" gradientUnits="userSpaceOnUse">
<stop stop-color="#EF6B2A" stop-opacity="0"/>
<stop offset="1" stop-color="#F1BC62" stop-opacity="0.6"/>
</linearGradient>
<linearGradient id="paint1_linear_78_14" x1="12" y1="18" x2="69.807" y2="76.0821" gradientUnits="userSpaceOnUse">
<stop stop-color="#EF6B2A"/>
<stop offset="1" stop-color="#F1BC62"/>
</linearGradient>
</defs>
</svg>
