<svg width="88" height="88" viewBox="0 0 88 88" fill="none" xmlns="http://www.w3.org/2000/svg">
<rect width="88" height="88" rx="44" fill="url(#paint0_linear_78_17)"/>
<path d="M43.5921 13C41.4144 13 39.6727 14.6008 39.2726 16.6656C38.4716 15.9248 37.4207 15.4469 36.25 15.4469C33.7818 15.4469 31.7632 17.4651 31.7632 19.9329V23.6033H17.0789C14.8359 23.6033 13 25.4389 13 27.6815V50.5193C13 52.7619 14.8359 54.5975 17.0789 54.5975H28.8442L34.2105 65.3919V74.1727C34.209 74.2808 34.229 74.3881 34.2693 74.4884C34.3096 74.5887 34.3694 74.68 34.4453 74.757C34.5212 74.834 34.6117 74.8951 34.7114 74.9368C34.8112 74.9785 34.9182 75 35.0263 75C35.1344 75 35.2415 74.9785 35.3412 74.9368C35.4409 74.8951 35.5314 74.834 35.6073 74.757C35.6832 74.68 35.743 74.5887 35.7834 74.4884C35.8237 74.3881 35.8436 74.2808 35.8421 74.1727V65.2007C35.8419 65.0747 35.8124 64.9503 35.7561 64.8375L23.7949 40.7763C23.7883 40.7628 23.7814 40.7495 23.7742 40.7364C23.6571 40.5301 23.6053 40.3545 23.6053 40.3238C23.6053 39.6385 24.7261 38.2847 26.5625 38.2847C28.6082 38.2847 29.5626 38.8799 31.1258 40.8336C31.1304 40.8393 31.35 41.1321 31.6453 41.5345C31.9405 41.937 32.3416 42.4849 32.81 43.1276C33.7468 44.413 34.957 46.0789 36.1544 47.7283C38.5493 51.027 40.8914 54.2597 40.8914 54.2597C40.967 54.3643 41.0664 54.4495 41.1814 54.5082C41.2963 54.5669 41.4236 54.5975 41.5526 54.5975H61.1316V60.3069C61.1316 62.0928 59.7178 63.5219 57.9417 63.5615C57.9131 63.5589 57.8844 63.5579 57.8557 63.5583C57.8162 63.5592 57.7767 63.5629 57.7378 63.5695H52.5658C52.5117 63.5687 52.4581 63.5787 52.4079 63.5988C52.3578 63.619 52.3121 63.6489 52.2736 63.6869C52.2351 63.7248 52.2046 63.77 52.1837 63.8199C52.1628 63.8697 52.1521 63.9232 52.1521 63.9773C52.1521 64.0313 52.1628 64.0848 52.1837 64.1347C52.2046 64.1846 52.2351 64.2298 52.2736 64.2677C52.3121 64.3057 52.3578 64.3356 52.4079 64.3557C52.4581 64.3759 52.5117 64.3859 52.5658 64.3851H57.0415C57.0418 64.4283 57.0455 64.4715 57.0526 64.5141V74.1727C57.0511 74.2808 57.0711 74.3881 57.1114 74.4884C57.1517 74.5887 57.2115 74.68 57.2874 74.757C57.3634 74.834 57.4538 74.8951 57.5535 74.9368C57.6533 74.9785 57.7603 75 57.8684 75C57.9765 75 58.0836 74.9785 58.1833 74.9368C58.283 74.8951 58.3735 74.834 58.4494 74.757C58.5253 74.68 58.5851 74.5887 58.6255 74.4884C58.6658 74.3881 58.6857 74.2808 58.6842 74.1727V65.1259C60.9914 64.7341 62.7632 62.7213 62.7632 60.3069V54.5975H70.9211C73.1641 54.5975 75 52.7619 75 50.5193V27.6815C75 25.4389 73.1641 23.6033 70.9211 23.6033H62.7424C62.5345 21.325 60.607 19.5251 58.2763 19.5251C57.178 19.5251 56.2031 19.9696 55.4211 20.6307V19.9329C55.4211 17.4651 53.4024 15.4469 50.9342 15.4469C49.7635 15.4469 48.7126 15.9248 47.9116 16.6656C47.5115 14.6008 45.7698 13 43.5921 13ZM43.5921 14.6313C45.1783 14.6313 46.4474 15.9001 46.4474 17.486V19.5251V19.9329V23.6033H40.7368V19.9329V19.5251V17.486C40.7368 15.9001 42.0059 14.6313 43.5921 14.6313ZM36.25 17.0782C37.8362 17.0782 39.1053 18.347 39.1053 19.9329V23.6033H33.3947V19.9329C33.3947 18.347 34.6638 17.0782 36.25 17.0782ZM50.9342 17.0782C52.5204 17.0782 53.7895 18.347 53.7895 19.9329V23.6033H48.0789V19.9329C48.0789 18.347 49.348 17.0782 50.9342 17.0782ZM58.2763 21.1564C59.7227 21.1564 60.8945 22.2148 61.0917 23.6033H55.4609C55.6581 22.2148 56.8299 21.1564 58.2763 21.1564ZM17.0789 25.2345H32.4419C32.53 25.2491 32.6199 25.2491 32.708 25.2345H39.784C39.8721 25.2491 39.962 25.2491 40.0501 25.2345H47.1261C47.2142 25.2491 47.3041 25.2491 47.3922 25.2345H70.9211C72.2822 25.2345 73.3684 26.3206 73.3684 27.6815V50.5193C73.3684 51.8802 72.2822 52.9662 70.9211 52.9662H62.0732C62.0274 52.9585 61.9811 52.9548 61.9346 52.955C61.8951 52.9559 61.8557 52.9596 61.8167 52.9662H41.9685C41.8505 52.8034 40.5444 51.003 39.6024 49.7036H65.6184C65.7266 49.7036 65.8303 49.6607 65.9068 49.5842C65.9833 49.5077 66.0263 49.404 66.0263 49.2958C66.0263 47.2643 67.6655 45.6255 69.6974 45.6255C69.8055 45.6255 69.9093 45.5825 69.9858 45.506C70.0623 45.4295 70.1053 45.3258 70.1053 45.2176V32.9831C70.1053 32.8749 70.0623 32.7712 69.9858 32.6947C69.9093 32.6183 69.8055 32.5753 69.6974 32.5753C67.6655 32.5753 66.0263 30.9364 66.0263 28.9049C66.0263 28.7968 65.9833 28.693 65.9068 28.6166C65.8303 28.5401 65.7266 28.4971 65.6184 28.4971H62.3553C62.3012 28.4963 62.2475 28.5063 62.1974 28.5265C62.1472 28.5466 62.1016 28.5765 62.0631 28.6145C62.0246 28.6524 61.994 28.6976 61.9732 28.7475C61.9523 28.7974 61.9416 28.8509 61.9416 28.9049C61.9416 28.959 61.9523 29.0125 61.9732 29.0623C61.994 29.1122 62.0246 29.1574 62.0631 29.1953C62.1016 29.2333 62.1472 29.2632 62.1974 29.2834C62.2475 29.3035 62.3012 29.3135 62.3553 29.3127H65.2934C65.4966 31.4441 67.1577 33.1049 69.2895 33.3081V44.8927C67.1577 45.0959 65.4966 46.7567 65.2934 48.888H39.0113C38.3237 47.9399 38.2519 47.839 37.4753 46.7693C36.2775 45.1195 35.0656 43.4539 34.1277 42.167C33.6587 41.5235 33.2585 40.9742 32.9613 40.5692C32.6641 40.1641 32.5004 39.9391 32.4005 39.8141C30.7006 37.6895 29.0037 36.6535 26.5625 36.6535C23.9741 36.6535 21.9737 38.3583 21.9737 40.3238C21.9737 40.8722 22.1975 41.2659 22.3545 41.5425L26.0064 48.888H22.7066C22.5034 46.7567 20.8423 45.0959 18.7105 44.8927V33.3081C20.8423 33.1049 22.5034 31.4441 22.7066 29.3127H55.0132C55.0672 29.3135 55.1209 29.3035 55.171 29.2834C55.2212 29.2632 55.2668 29.2333 55.3053 29.1953C55.3438 29.1574 55.3744 29.1122 55.3953 29.0623C55.4161 29.0125 55.4269 28.959 55.4269 28.9049C55.4269 28.8509 55.4161 28.7974 55.3953 28.7475C55.3744 28.6976 55.3438 28.6524 55.3053 28.6145C55.2668 28.5765 55.2212 28.5466 55.171 28.5265C55.1209 28.5063 55.0672 28.4963 55.0132 28.4971H22.3816C22.2734 28.4971 22.1697 28.5401 22.0932 28.6166C22.0167 28.693 21.9737 28.7968 21.9737 28.9049C21.9737 30.9364 20.3345 32.5753 18.3026 32.5753C18.1945 32.5753 18.0907 32.6183 18.0142 32.6947C17.9377 32.7712 17.8947 32.8749 17.8947 32.9831V45.2176C17.8947 45.3258 17.9377 45.4295 18.0142 45.506C18.0907 45.5825 18.1945 45.6255 18.3026 45.6255C20.3345 45.6255 21.9737 47.2643 21.9737 49.2958C21.9737 49.404 22.0167 49.5077 22.0932 49.5842C22.1697 49.6607 22.2734 49.7036 22.3816 49.7036H26.4111L28.0332 52.9662H17.0789C15.7178 52.9662 14.6316 51.8802 14.6316 50.5193V27.6815C14.6316 26.3206 15.7178 25.2345 17.0789 25.2345ZM56.6447 28.4971C56.5907 28.4963 56.537 28.5063 56.4869 28.5265C56.4367 28.5466 56.3911 28.5765 56.3526 28.6145C56.3141 28.6524 56.2835 28.6976 56.2626 28.7475C56.2418 28.7974 56.231 28.8509 56.231 28.9049C56.231 28.959 56.2418 29.0125 56.2626 29.0623C56.2835 29.1122 56.3141 29.1574 56.3526 29.1953C56.3911 29.2333 56.4367 29.2632 56.4869 29.2834C56.537 29.3035 56.5907 29.3135 56.6447 29.3127H57.4605C57.5146 29.3135 57.5682 29.3035 57.6184 29.2834C57.6686 29.2632 57.7142 29.2333 57.7527 29.1953C57.7912 29.1574 57.8218 29.1122 57.8426 29.0623C57.8635 29.0125 57.8742 28.959 57.8742 28.9049C57.8742 28.8509 57.8635 28.7974 57.8426 28.7475C57.8218 28.6976 57.7912 28.6524 57.7527 28.6145C57.7142 28.5765 57.6686 28.5466 57.6184 28.5265C57.5682 28.5063 57.5146 28.4963 57.4605 28.4971H56.6447ZM44 31.7596C39.9499 31.7596 36.6579 35.051 36.6579 39.1004C36.6579 43.1497 39.9499 46.4411 44 46.4411C48.0501 46.4411 51.3421 43.1497 51.3421 39.1004C51.3421 35.051 48.0501 31.7596 44 31.7596ZM44 32.5753C47.6092 32.5753 50.5263 35.4918 50.5263 39.1004C50.5263 42.7089 47.6092 45.6255 44 45.6255C40.3908 45.6255 37.4737 42.7089 37.4737 39.1004C37.4737 35.4918 40.3908 32.5753 44 32.5753ZM61.1316 36.6535C60.3498 36.6535 59.7123 36.9613 59.2976 37.4277C58.883 37.8941 58.6842 38.5 58.6842 39.1004C58.6842 39.7008 58.883 40.3067 59.2976 40.7731C59.7123 41.2395 60.3498 41.5473 61.1316 41.5473C61.9134 41.5473 62.5508 41.2395 62.9655 40.7731C63.3802 40.3067 63.5789 39.7008 63.5789 39.1004C63.5789 38.5 63.3802 37.8941 62.9655 37.4277C62.5508 36.9613 61.9134 36.6535 61.1316 36.6535ZM61.1316 37.4691C61.7094 37.4691 62.0917 37.6711 62.3569 37.9693C62.622 38.2676 62.7632 38.6812 62.7632 39.1004C62.7632 39.5195 62.622 39.9332 62.3569 40.2314C62.0917 40.5297 61.7094 40.7316 61.1316 40.7316C60.5537 40.7316 60.1715 40.5297 59.9063 40.2314C59.6411 39.9332 59.5 39.5195 59.5 39.1004C59.5 38.6812 59.6411 38.2676 59.9063 37.9693C60.1715 37.6711 60.5537 37.4691 61.1316 37.4691ZM50.1184 63.5695C50.0644 63.5687 50.0107 63.5787 49.9605 63.5988C49.9104 63.619 49.8647 63.6489 49.8262 63.6869C49.7878 63.7248 49.7572 63.77 49.7363 63.8199C49.7155 63.8697 49.7047 63.9232 49.7047 63.9773C49.7047 64.0313 49.7155 64.0848 49.7363 64.1347C49.7572 64.1846 49.7878 64.2298 49.8262 64.2677C49.8647 64.3057 49.9104 64.3356 49.9605 64.3557C50.0107 64.3759 50.0644 64.3859 50.1184 64.3851H50.9342C50.9883 64.3859 51.0419 64.3759 51.0921 64.3557C51.1422 64.3356 51.1879 64.3057 51.2264 64.2677C51.2649 64.2298 51.2954 64.1846 51.3163 64.1347C51.3372 64.0848 51.3479 64.0313 51.3479 63.9773C51.3479 63.9232 51.3372 63.8697 51.3163 63.8199C51.2954 63.77 51.2649 63.7248 51.2264 63.6869C51.1879 63.6489 51.1422 63.619 51.0921 63.5988C51.0419 63.5787 50.9883 63.5687 50.9342 63.5695H50.1184Z" fill="url(#paint1_linear_78_17)"/>
<defs>
<linearGradient id="paint0_linear_78_17" x1="0" y1="0" x2="95.8732" y2="78.3681" gradientUnits="userSpaceOnUse">
<stop stop-color="#EF6B2A" stop-opacity="0"/>
<stop offset="1" stop-color="#F1BC62" stop-opacity="0.6"/>
</linearGradient>
<linearGradient id="paint1_linear_78_17" x1="13" y1="13" x2="80.547" y2="68.2139" gradientUnits="userSpaceOnUse">
<stop stop-color="#EF6B2A"/>
<stop offset="1" stop-color="#F1BC62"/>
</linearGradient>
</defs>
</svg>
